<?xml version="1.0" encoding="iso-8859-1"?>
<!-- Generator: Adobe Illustrator 18.0.0, SVG Export Plug-In . SVG Version: 6.00 Build 0)  -->
<!DOCTYPE svg PUBLIC "-//W3C//DTD SVG 1.1//EN" "http://www.w3.org/Graphics/SVG/1.1/DTD/svg11.dtd">
<svg version="1.1" id="Capa_1" xmlns="http://www.w3.org/2000/svg" xmlns:xlink="http://www.w3.org/1999/xlink" x="0px" y="0px"
	 viewBox="0 0 200 200" style="enable-background:new 0 0 200 200;" xml:space="preserve">
<path d="M168.998,200c6.816,0,12.363-5.546,12.363-12.362V12.362C181.361,5.546,175.814,0,168.998,0H31.002
	c-6.817,0-12.363,5.546-12.363,12.362v175.275c0,6.816,5.547,12.362,12.363,12.362h76.332v-8.667H150V200H168.998z M161.666,15.544
	c3.498,0,6.334,2.835,6.334,6.333c0,3.498-2.836,6.333-6.334,6.333c-3.497,0-6.332-2.835-6.332-6.333
	C155.334,18.379,158.169,15.544,161.666,15.544z M161.666,171.79c3.498,0,6.334,2.835,6.334,6.333c0,3.498-2.836,6.333-6.334,6.333
	c-3.497,0-6.332-2.835-6.332-6.333C155.334,174.625,158.169,171.79,161.666,171.79z M38.334,184.456
	c-3.498,0-6.334-2.835-6.334-6.333c0-3.498,2.836-6.333,6.334-6.333c3.497,0,6.332,2.835,6.332,6.333
	C44.666,181.621,41.831,184.456,38.334,184.456z M38.334,28.21c-3.498,0-6.334-2.835-6.334-6.333c0-3.498,2.836-6.333,6.334-6.333
	c3.497,0,6.332,2.835,6.332,6.333C44.666,25.375,41.831,28.21,38.334,28.21z M100,145.249c-4.276,0-8.432-0.504-12.427-1.427
	c1.43,7.246,2.381,12.935,2.381,15.256c0,11.096-9.027,20.122-20.122,20.122c-11.095,0-20.122-9.026-20.122-20.122
	c0-4.238,3.164-19.688,6.642-35.381C49.238,114.429,45,102.836,45,90.249c0-30.377,24.625-55,55-55s55,24.623,55,55
	C155,120.626,130.375,145.249,100,145.249z M122,90.249c0,12.15-9.851,22-22,22c-12.149,0-22-9.85-22-22s9.851-22,22-22
	C112.149,68.249,122,78.099,122,90.249z M54.832,159.078c0,8.284,6.716,15,15,15c8.284,0,15-6.716,15-15
	c0-8.285-15-70.976-15-70.976S54.832,150.793,54.832,159.078z M75.686,159.078c0,3.232-2.62,5.854-5.853,5.854
	c-3.233,0-5.854-2.621-5.854-5.854c0-3.233,2.62-5.854,5.854-5.854C73.065,153.224,75.686,155.845,75.686,159.078z"/>
<g>
</g>
<g>
</g>
<g>
</g>
<g>
</g>
<g>
</g>
<g>
</g>
<g>
</g>
<g>
</g>
<g>
</g>
<g>
</g>
<g>
</g>
<g>
</g>
<g>
</g>
<g>
</g>
<g>
</g>
</svg>
