<?xml version="1.0" encoding="iso-8859-1"?>
<!-- Generator: Adobe Illustrator 18.0.0, SVG Export Plug-In . SVG Version: 6.00 Build 0)  -->
<!DOCTYPE svg PUBLIC "-//W3C//DTD SVG 1.1//EN" "http://www.w3.org/Graphics/SVG/1.1/DTD/svg11.dtd">
<svg version="1.1" id="Capa_1" xmlns="http://www.w3.org/2000/svg" xmlns:xlink="http://www.w3.org/1999/xlink" x="0px" y="0px"
	 viewBox="0 0 238.834 238.834" style="enable-background:new 0 0 238.834 238.834;" xml:space="preserve">
<path d="M119.417,143.501c3.859,0,7,3.141,7,7c0,3.859-3.141,7-7,7s-7-3.141-7-7C112.417,146.642,115.558,143.501,119.417,143.501z
	 M143.251,238.834v-3.167H95.583v3.167H74.251v-3.167H62.083c-1.381,0-2.5-1.119-2.5-2.5V5.833c0-1.381,1.119-2.5,2.5-2.5h11.613
	L76.417,0h86l2.721,3.333h11.613c1.381,0,2.5,1.119,2.5,2.5v227.334c0,1.381-1.119,2.5-2.5,2.5h-12.168v3.167H143.251z M78.084,47.5
	h82.666v-23H78.084V47.5z M78.084,77.5h82.666v-23H78.084V77.5z M78.084,107.5h82.666v-23H78.084V107.5z M119.417,137.501
	c-7.168,0-13,5.832-13,13c0,7.168,5.832,13,13,13s13-5.832,13-13C132.417,143.333,126.585,137.501,119.417,137.501z M160.75,212.833
	v-58.974C151.484,166.662,136.429,175,119.417,175s-32.067-8.338-41.333-21.141v58.974H160.75z"/>
<g>
</g>
<g>
</g>
<g>
</g>
<g>
</g>
<g>
</g>
<g>
</g>
<g>
</g>
<g>
</g>
<g>
</g>
<g>
</g>
<g>
</g>
<g>
</g>
<g>
</g>
<g>
</g>
<g>
</g>
</svg>
