<?xml version="1.0" encoding="utf-8"?>
<!-- Generator: Adobe Illustrator 16.0.4, SVG Export Plug-In . SVG Version: 6.00 Build 0)  -->
<!DOCTYPE svg PUBLIC "-//W3C//DTD SVG 1.1//EN" "http://www.w3.org/Graphics/SVG/1.1/DTD/svg11.dtd">
<svg version="1.1" id="Layer_1" xmlns="http://www.w3.org/2000/svg" xmlns:xlink="http://www.w3.org/1999/xlink" x="0px" y="0px"
	 width="50px" height="50px" viewBox="0 0 50 50" enable-background="new 0 0 50 50" xml:space="preserve">
<g>
	<g>
		<path d="M26.578,19.708c0.068,0.215,0.109,0.448,0.109,0.694v3.259c0,1.029-0.675,1.871-1.5,1.871s-1.5-0.842-1.5-1.871v-3.259
			c0-0.246,0.041-0.479,0.109-0.694c-2.066,0.546-3.609,2.421-3.609,4.654v4.339c0,2.657,2.174,4.831,4.83,4.831h0.34
			c2.656,0,4.83-2.174,4.83-4.831v-4.339C30.188,22.129,28.645,20.254,26.578,19.708z"/>
		<ellipse cx="25.188" cy="22.031" rx="0.75" ry="1.5"/>
	</g>
	<g>
		<path d="M25.562,19.708h-0.75c0-1.132-0.615-1.245-2.125-1.245c-1.213,0-2.875,0-2.875-1.995h0.75
			c0,1.132,0.615,1.245,2.125,1.245C23.9,17.713,25.562,17.713,25.562,19.708z"/>
	</g>
</g>
</svg>
