<?xml version="1.0" encoding="iso-8859-1"?>
<!-- Generator: Adobe Illustrator 18.1.1, SVG Export Plug-In . SVG Version: 6.00 Build 0)  -->
<svg version="1.1" id="Capa_1" xmlns="http://www.w3.org/2000/svg" xmlns:xlink="http://www.w3.org/1999/xlink" x="0px" y="0px"
	 viewBox="0 0 18.243 18.243" style="enable-background:new 0 0 18.243 18.243;" xml:space="preserve">
<g>
	<g>
		<path style="fill:#030104;" d="M16.569,5.029H4.761c-0.008,0-0.016,0-0.024,0C4.515,3.88,4.038,3.011,3.302,2.452
			C1.883,1.375,0.077,1.864,0,1.885L0.224,2.69C0.24,2.684,1.717,2.293,2.802,3.121c0.826,0.631,1.245,1.814,1.245,3.517v9.096
			h0.835v-1.819h4.926v2.572h0.896h0.418h0.479h0.418h0.479h0.417h0.479h0.418h0.478h0.419h0.894v-2.572h0.969
			c0.922,0,1.671-0.749,1.671-1.671V6.699C18.24,5.777,17.491,5.029,16.569,5.029z M10.225,16.071v-2.155h0.479v2.155H10.225z
			 M11.122,16.071v-2.155h0.479v2.155H11.122z M12.018,16.071v-2.155h0.479v2.155H12.018z M12.914,16.071v-2.155h0.479v2.155H12.914
			z M13.81,16.071v-2.155h0.478v2.155H13.81z M15.184,16.071h-0.478v-2.155h0.478V16.071z M17.404,12.244
			c0,0.461-0.374,0.836-0.835,0.836H4.97c0,0,0-0.375,0-0.836V6.699c0-0.461,0-0.835,0-0.835h11.6c0.461,0,0.835,0.375,0.835,0.835
			L17.404,12.244L17.404,12.244z"/>
		<path style="fill:#030104;" d="M15.635,6.66h-2.298c-0.206,0-0.372,0.167-0.372,0.372v0.94H8.103
			C8.008,7.54,7.624,7.215,7.162,7.215c-0.534,0-0.966,0.432-0.966,0.966c0,0.533,0.433,0.965,0.966,0.965
			c0.462,0,0.847-0.324,0.941-0.757h4.862V9.33c0,0.205,0.166,0.372,0.372,0.372h1.221v1.718h-2.097l-1.035-1.147l-0.502-0.002
			c-0.094-0.436-0.48-0.762-0.943-0.762c-0.533,0-0.965,0.432-0.965,0.965s0.432,0.967,0.965,0.967c0.46,0,0.844-0.323,0.941-0.753
			l0.317,0.001l1.035,1.149h2.701V9.701h0.659c0.206,0,0.373-0.167,0.373-0.372V7.032C16.008,6.827,15.841,6.66,15.635,6.66z"/>
	</g>
</g>
<g>
</g>
<g>
</g>
<g>
</g>
<g>
</g>
<g>
</g>
<g>
</g>
<g>
</g>
<g>
</g>
<g>
</g>
<g>
</g>
<g>
</g>
<g>
</g>
<g>
</g>
<g>
</g>
<g>
</g>
</svg>
