<?xml version="1.0" encoding="utf-8"?>
<!-- Generator: Adobe Illustrator 16.0.4, SVG Export Plug-In . SVG Version: 6.00 Build 0)  -->
<!DOCTYPE svg PUBLIC "-//W3C//DTD SVG 1.1//EN" "http://www.w3.org/Graphics/SVG/1.1/DTD/svg11.dtd">
<svg version="1.1" id="Layer_1" xmlns="http://www.w3.org/2000/svg" xmlns:xlink="http://www.w3.org/1999/xlink" x="0px" y="0px"
	 width="50px" height="50px" viewBox="0 0 50 50" enable-background="new 0 0 50 50" xml:space="preserve">
<g>
	<path d="M31.672,17.254c-1.312,0-2.545,0.329-3.627,0.905c1.015,1.175,1.769,2.574,2.185,4.115c0.433-0.23,0.919-0.373,1.442-0.373
		c1.709,0,3.099,1.39,3.099,3.098c0,1.708-1.39,3.098-3.099,3.098c-0.523,0-1.01-0.143-1.442-0.373
		c-0.416,1.541-1.17,2.941-2.185,4.115c1.082,0.576,2.315,0.906,3.627,0.906c4.277,0,7.744-3.471,7.744-7.747
		C39.416,20.724,35.949,17.254,31.672,17.254z"/>
	<path d="M31.672,26.549c-0.443,0-0.842-0.189-1.125-0.49c-0.043,0.438-0.123,0.861-0.219,1.279c0.397,0.23,0.854,0.373,1.344,0.373
		c1.494,0,2.711-1.217,2.711-2.711c0-1.494-1.217-2.711-2.711-2.711c-0.491,0-0.946,0.143-1.344,0.372
		c0.096,0.419,0.174,0.844,0.219,1.28c0.283-0.301,0.682-0.49,1.125-0.49c0.854,0,1.55,0.693,1.55,1.549
		C33.222,25.855,32.526,26.549,31.672,26.549z"/>
	<path d="M20.116,21.664c-1.839,0-3.336,1.496-3.336,3.336c0,1.84,1.497,3.336,3.336,3.336c1.839,0,3.336-1.496,3.336-3.336
		C23.452,23.16,21.955,21.664,20.116,21.664z M20.116,26.906c-1.052,0-1.907-0.855-1.907-1.907c0-1.052,0.854-1.906,1.907-1.906
		c1.053,0,1.906,0.854,1.906,1.906C22.021,26.051,21.167,26.906,20.116,26.906z"/>
	<path d="M20.116,15.467c-5.265,0-9.532,4.269-9.532,9.532c0,5.264,4.268,9.534,9.532,9.534c5.264,0,9.532-4.27,9.532-9.534
		C29.647,19.736,25.379,15.467,20.116,15.467z M20.116,28.812c-2.103,0-3.813-1.711-3.813-3.813c0-2.102,1.71-3.812,3.813-3.812
		c2.103,0,3.813,1.711,3.813,3.812C23.929,27.102,22.217,28.812,20.116,28.812z"/>
</g>
</svg>
