<?xml version="1.0" encoding="iso-8859-1"?>
<!-- Generator: Adobe Illustrator 18.0.0, SVG Export Plug-In . SVG Version: 6.00 Build 0)  -->
<!DOCTYPE svg PUBLIC "-//W3C//DTD SVG 1.1//EN" "http://www.w3.org/Graphics/SVG/1.1/DTD/svg11.dtd">
<svg version="1.1" id="Capa_1" xmlns="http://www.w3.org/2000/svg" xmlns:xlink="http://www.w3.org/1999/xlink" x="0px" y="0px"
	 viewBox="0 0 180 180" style="enable-background:new 0 0 180 180;" xml:space="preserve">
<path d="M180,169.531V10.469c-2.931,1.615-6.686,1.187-9.171-1.298c-2.485-2.485-2.914-6.24-1.298-9.171H31.905v2.64
	c0,2.344-1.899,4.243-4.243,4.243c-2.343,0-4.242-1.899-4.242-4.243V0H10.469c1.616,2.931,1.188,6.686-1.298,9.171
	C6.685,11.655,2.931,12.084,0,10.469v159.063c2.931-1.615,6.685-1.187,9.171,1.298c2.485,2.485,2.913,6.24,1.298,9.171H23.42v-2.64
	c0-2.344,1.899-4.243,4.242-4.243c2.344,0,4.243,1.899,4.243,4.243V180h137.626c-1.616-2.931-1.188-6.686,1.298-9.171
	C173.314,168.345,177.069,167.916,180,169.531z M157.948,136.295c0,11.939-9.714,21.653-21.653,21.653h-22.398
	c-3.099,0-5.61-2.512-5.61-5.61c0-3.099,2.512-5.61,5.61-5.61h22.398c5.753,0,10.433-4.68,10.433-10.433v-92.59
	c0-5.753-4.68-10.433-10.433-10.433H43.703c-5.751,0-10.431,4.68-10.431,10.433v92.59c0,5.753,4.679,10.433,10.431,10.433h22.4
	c3.099,0,5.61,2.512,5.61,5.61c0,3.099-2.512,5.61-5.61,5.61h-22.4c-11.938,0-21.651-9.714-21.651-21.653v-92.59
	c0-11.94,9.713-21.653,21.651-21.653h92.592c11.939,0,21.653,9.714,21.653,21.653V136.295z M52.521,134.156
	c-3.681,0-6.678-2.994-6.678-6.681V52.524c0-3.687,2.997-6.681,6.678-6.681h74.954c3.687,0,6.681,2.994,6.681,6.681v74.951
	c0,3.686-2.994,6.681-6.681,6.681H52.521z M76.316,78.624v4.239h-6.482v-4.676c0-3.116-1.371-4.302-3.554-4.302
	c-2.181,0-3.554,1.186-3.554,4.302v23.563c0,3.115,1.373,4.237,3.554,4.237c2.183,0,3.554-1.122,3.554-4.237v-6.233h6.482v5.795
	c0,6.983-3.49,10.973-10.223,10.973c-6.733,0-10.223-3.989-10.223-10.973V78.624c0-6.982,3.49-10.972,10.223-10.972
	C72.826,67.652,76.316,71.642,76.316,78.624z M90.592,68.151H80.493v43.635h6.856V95.392h3.242c6.856,0,10.223-3.803,10.223-10.783
	v-5.674C100.814,71.954,97.448,68.151,90.592,68.151z M93.958,85.045c0,3.116-1.186,4.113-3.366,4.113H87.35V74.385h3.242
	c2.181,0,3.366,0.997,3.366,4.113V85.045z M117.646,68.151h6.483v33.225c0,6.982-3.491,10.972-10.224,10.972
	c-6.733,0-10.224-3.989-10.224-10.972V68.151h6.857v33.661c0,3.116,1.371,4.238,3.553,4.238c2.183,0,3.554-1.122,3.554-4.238V68.151
	z"/>
<g>
</g>
<g>
</g>
<g>
</g>
<g>
</g>
<g>
</g>
<g>
</g>
<g>
</g>
<g>
</g>
<g>
</g>
<g>
</g>
<g>
</g>
<g>
</g>
<g>
</g>
<g>
</g>
<g>
</g>
</svg>
