<?xml version="1.0" encoding="iso-8859-1"?>
<!-- Generator: Adobe Illustrator 18.0.0, SVG Export Plug-In . SVG Version: 6.00 Build 0)  -->
<!DOCTYPE svg PUBLIC "-//W3C//DTD SVG 1.1//EN" "http://www.w3.org/Graphics/SVG/1.1/DTD/svg11.dtd">
<svg version="1.1" id="Capa_1" xmlns="http://www.w3.org/2000/svg" xmlns:xlink="http://www.w3.org/1999/xlink" x="0px" y="0px"
	 viewBox="0 0 203.625 203.625" style="enable-background:new 0 0 203.625 203.625;" xml:space="preserve">
<path d="M14.48,170.14c58.266,3.353,116.398,3.351,174.664,0c5.523-0.345,10.657-5.138,11.334-10.66
	c4.195-38.671,4.195-76.663,0-115.334c-0.677-5.522-5.811-10.316-11.334-10.66c-58.266-3.353-116.398-3.351-174.664,0
	C8.957,33.83,3.824,38.623,3.146,44.145c-4.195,38.671-4.195,76.663,0,115.334C3.824,165.002,8.957,169.795,14.48,170.14z
	 M101.812,38.812c1.934,0,3.5,1.566,3.5,3.5c0,1.934-1.566,3.5-3.5,3.5s-3.5-1.566-3.5-3.5
	C98.312,40.379,99.879,38.812,101.812,38.812z M17.377,49.812h168.871v104H17.377V49.812z"/>
<g>
</g>
<g>
</g>
<g>
</g>
<g>
</g>
<g>
</g>
<g>
</g>
<g>
</g>
<g>
</g>
<g>
</g>
<g>
</g>
<g>
</g>
<g>
</g>
<g>
</g>
<g>
</g>
<g>
</g>
</svg>
