<?xml version="1.0" encoding="utf-8"?>
<!-- Generator: Adobe Illustrator 18.0.0, SVG Export Plug-In . SVG Version: 6.00 Build 0)  -->
<!DOCTYPE svg PUBLIC "-//W3C//DTD SVG 1.1//EN" "http://www.w3.org/Graphics/SVG/1.1/DTD/svg11.dtd">
<svg version="1.1" id="Capa_1" xmlns="http://www.w3.org/2000/svg" xmlns:xlink="http://www.w3.org/1999/xlink" x="0px" y="0px"
	 width="612px" height="580.3px" viewBox="0 105.8 612 580.3" enable-background="new 0 105.8 612 580.3" xml:space="preserve">
<path fill="#AFB6BB" d="M419.7,654.5H192.3c-2.4,0-3.3-3.2-1.3-4.6l19-13.4c20.5-14.5,30.3-41.1,24.3-66.4l0,0h143.4v0
	c-6,25.3,3.7,51.9,24.3,66.4l19,13.4C423,651.3,422,654.5,419.7,654.5z"/>
<path fill="#E7ECED" d="M575.1,570.1H36.9C16.5,570.1,0,553.6,0,533.2V142.7c0-20.4,16.5-36.9,36.9-36.9h538.2
	c20.4,0,36.9,16.5,36.9,36.9v390.4C612,553.6,595.5,570.1,575.1,570.1z"/>
<path fill="#38454F" d="M612,475.1H0V142.7c0-20.4,16.5-36.9,36.9-36.9h538.2c20.4,0,36.9,16.5,36.9,36.9V475.1z"/>
<g>
	<path fill="#839CAA" d="M42.2,200.8c2.7,0,5.4-1,7.5-3.1l42.2-42.2c4.1-4.1,4.1-10.8,0-14.9c-4.1-4.1-10.8-4.1-14.9,0l-42.2,42.2
		c-4.1,4.1-4.1,10.8,0,14.9C36.8,199.8,39.5,200.8,42.2,200.8z"/>
	<path fill="#839CAA" d="M42.2,253.6c2.7,0,5.4-1,7.5-3.1l21.1-21.1c4.1-4.1,4.1-10.8,0-14.9c-4.1-4.1-10.8-4.1-14.9,0l-21.1,21.1
		c-4.1,4.1-4.1,10.8,0,14.9C36.8,252.5,39.5,253.6,42.2,253.6z"/>
	<path fill="#839CAA" d="M76.9,193.3c-1.9,2-3.1,4.7-3.1,7.5s1.2,5.5,3.1,7.5c2,1.9,4.6,3.1,7.5,3.1c2.7,0,5.5-1.2,7.5-3.1
		c1.9-2,3.1-4.7,3.1-7.5s-1.2-5.5-3.1-7.5C87.9,189.4,80.9,189.4,76.9,193.3z"/>
	<path fill="#839CAA" d="M98.1,187.1c2.1,2.1,4.8,3.1,7.5,3.1c2.7,0,5.4-1,7.5-3.1l31.7-31.7c4.1-4.1,4.1-10.8,0-14.9
		c-4.1-4.1-10.8-4.1-14.9,0l-31.7,31.7C93.9,176.4,93.9,183,98.1,187.1z"/>
	<path fill="#839CAA" d="M129.7,193.3l-95,95c-4.1,4.1-4.1,10.8,0,14.9c2.1,2.1,4.8,3.1,7.5,3.1s5.4-1,7.5-3.1l95-95
		c4.1-4.1,4.1-10.8,0-14.9C140.5,189.2,133.8,189.2,129.7,193.3z"/>
	<path fill="#839CAA" d="M150.8,172.2c-1.9,2-3.1,4.6-3.1,7.5s1.2,5.5,3.1,7.5c2,1.9,4.6,3.1,7.5,3.1c2.8,0,5.5-1.2,7.5-3.1
		c1.9-2,3.1-4.6,3.1-7.5s-1.2-5.5-3.1-7.5C161.9,168.3,154.7,168.3,150.8,172.2z"/>
	<path fill="#839CAA" d="M197.4,140.6c-4.1-4.1-10.8-4.1-14.9,0l-10.6,10.6c-4.1,4.1-4.1,10.8,0,14.9c2.1,2.1,4.8,3.1,7.5,3.1
		s5.4-1,7.5-3.1l10.6-10.6C201.5,151.4,201.5,144.7,197.4,140.6z"/>
</g>
<path fill="#E7ECED" d="M427.3,686.2H184.7c-8.7,0-15.8-7.1-15.8-15.8l0,0c0-8.7,7.1-15.8,15.8-15.8h242.7c8.7,0,15.8,7.1,15.8,15.8
	l0,0C443.2,679.1,436.1,686.2,427.3,686.2z"/>
</svg>
