<?xml version="1.0" encoding="iso-8859-1"?>
<!-- Generator: Adobe Illustrator 19.0.0, SVG Export Plug-In . SVG Version: 6.00 Build 0)  -->
<svg version="1.1" id="Capa_1" xmlns="http://www.w3.org/2000/svg" xmlns:xlink="http://www.w3.org/1999/xlink" x="0px" y="0px"
	 viewBox="0 0 58 58" style="enable-background:new 0 0 58 58;" xml:space="preserve">
<path style="fill:#AFB6BB;" d="M39.774,53.5H18.226c-0.224,0-0.311-0.307-0.124-0.437l1.805-1.273c1.947-1.373,2.868-3.891,2.3-6.29
	v0h13.588l0,0.002c-0.568,2.4,0.354,4.917,2.302,6.29l1.803,1.271C40.085,53.194,39.997,53.5,39.774,53.5z"/>
<path style="fill:#38454F;" d="M54.502,45.5H3.498C1.566,45.5,0,43.934,0,42.002V4.998C0,3.066,1.566,1.5,3.498,1.5h51.003
	C56.434,1.5,58,3.066,58,4.998v37.003C58,43.934,56.434,45.5,54.502,45.5z"/>
<path style="fill:#E7ECED;" d="M40.5,56.5h-23c-0.825,0-1.5-0.675-1.5-1.5l0,0c0-0.825,0.675-1.5,1.5-1.5h23
	c0.825,0,1.5,0.675,1.5,1.5l0,0C42,55.825,41.325,56.5,40.5,56.5z"/>
<path style="fill:#546A79;" d="M54,42.5H4c-0.552,0-1-0.448-1-1v-36c0-0.552,0.448-1,1-1h50c0.552,0,1,0.448,1,1v36
	C55,42.052,54.552,42.5,54,42.5z"/>
<g>
	<path style="fill:#839CAA;" d="M6,12.5c0.256,0,0.512-0.098,0.707-0.293l4-4c0.391-0.391,0.391-1.023,0-1.414s-1.023-0.391-1.414,0
		l-4,4c-0.391,0.391-0.391,1.023,0,1.414C5.488,12.402,5.744,12.5,6,12.5z"/>
	<path style="fill:#839CAA;" d="M6,17.5c0.256,0,0.512-0.098,0.707-0.293l2-2c0.391-0.391,0.391-1.023,0-1.414s-1.023-0.391-1.414,0
		l-2,2c-0.391,0.391-0.391,1.023,0,1.414C5.488,17.402,5.744,17.5,6,17.5z"/>
	<path style="fill:#839CAA;" d="M9.29,11.79C9.109,11.98,9,12.24,9,12.5c0,0.26,0.109,0.52,0.29,0.71C9.479,13.39,9.74,13.5,10,13.5
		s0.52-0.11,0.71-0.29C10.89,13.02,11,12.76,11,12.5c0-0.26-0.11-0.52-0.29-0.71C10.34,11.42,9.68,11.42,9.29,11.79z"/>
	<path style="fill:#839CAA;" d="M11.293,11.207C11.488,11.402,11.744,11.5,12,11.5s0.512-0.098,0.707-0.293l3-3
		c0.391-0.391,0.391-1.023,0-1.414s-1.023-0.391-1.414,0l-3,3C10.902,10.184,10.902,10.816,11.293,11.207z"/>
	<path style="fill:#839CAA;" d="M14.293,11.793l-9,9c-0.391,0.391-0.391,1.023,0,1.414C5.488,22.402,5.744,22.5,6,22.5
		s0.512-0.098,0.707-0.293l9-9c0.391-0.391,0.391-1.023,0-1.414S14.684,11.402,14.293,11.793z"/>
	<path style="fill:#839CAA;" d="M16.29,9.79C16.109,9.98,16,10.24,16,10.5c0,0.26,0.109,0.52,0.29,0.71
		c0.189,0.18,0.45,0.29,0.71,0.29s0.52-0.11,0.71-0.29C17.89,11.02,18,10.76,18,10.5c0-0.26-0.11-0.52-0.29-0.71
		C17.34,9.42,16.649,9.42,16.29,9.79z"/>
	<path style="fill:#839CAA;" d="M20.707,6.793c-0.391-0.391-1.023-0.391-1.414,0l-1,1c-0.391,0.391-0.391,1.023,0,1.414
		C18.488,9.402,18.744,9.5,19,9.5s0.512-0.098,0.707-0.293l1-1C21.098,7.816,21.098,7.184,20.707,6.793z"/>
</g>
<g>
</g>
<g>
</g>
<g>
</g>
<g>
</g>
<g>
</g>
<g>
</g>
<g>
</g>
<g>
</g>
<g>
</g>
<g>
</g>
<g>
</g>
<g>
</g>
<g>
</g>
<g>
</g>
<g>
</g>
</svg>
