<?xml version="1.0" encoding="utf-8"?>
<!-- Generator: Adobe Illustrator 18.0.0, SVG Export Plug-In . SVG Version: 6.00 Build 0)  -->
<!DOCTYPE svg PUBLIC "-//W3C//DTD SVG 1.1//EN" "http://www.w3.org/Graphics/SVG/1.1/DTD/svg11.dtd">
<svg version="1.1" id="Capa_1" xmlns="http://www.w3.org/2000/svg" xmlns:xlink="http://www.w3.org/1999/xlink" x="0px" y="0px"
	 viewBox="634.1 17.9 645.9 1262.1" enable-background="new 634.1 17.9 645.9 1262.1" xml:space="preserve">
<path d="M959.4,672.4c21,0,38,17,38,38s-17,38-38,38s-38-17-38-38S938.4,672.4,959.4,672.4z M1207.8,17.9h63.1
	c7.5,0,13.6,6.1,13.6,13.6v1235.7c0,7.5-6.1,13.6-13.6,13.6h-66.1v17.2h-115.9v-17.2h-259v17.2h-116v-17.2h-66.1
	c-7.5,0-13.6-6.1-13.6-13.6V31.5c0-7.5,6.1-13.6,13.6-13.6h63.2 M734.7,258H1184v-125H734.7V258z M734.7,421H1184V296H734.7V421z
	 M734.7,584H1184V459.1H734.7V584z M959.4,639.7c-38.9,0-70.7,31.7-70.7,70.7s31.7,70.7,70.7,70.7s70.7-31.7,70.7-70.7
	S998.3,639.7,959.4,639.7z M734.7,836v320.6H1184V836"/>
</svg>
