<?xml version="1.0" encoding="utf-8"?>
<!-- Generator: Adobe Illustrator 18.0.0, SVG Export Plug-In . SVG Version: 6.00 Build 0)  -->
<!DOCTYPE svg PUBLIC "-//W3C//DTD SVG 1.1//EN" "http://www.w3.org/Graphics/SVG/1.1/DTD/svg11.dtd">
<svg version="1.1" id="Capa_1" xmlns="http://www.w3.org/2000/svg" xmlns:xlink="http://www.w3.org/1999/xlink" x="0px" y="0px"
	 width="401px" height="612px" viewBox="105.5 90 401 612" enable-background="new 105.5 90 401 612" xml:space="preserve">
<path fill="#38454F" d="M481.1,702H130.9c-14,0-25.4-11.4-25.4-25.4V115.4c0-14,11.4-25.4,25.4-25.4h350.1c14,0,25.4,11.4,25.4,25.4
	v561.2C506.5,690.6,495.1,702,481.1,702z"/>
<rect x="158.3" y="142.8" fill="#38454F" stroke="#283238" stroke-width="2" stroke-linecap="round" stroke-miterlimit="10" width="295.4" height="84.4"/>
<rect x="158.3" y="227.2" fill="#38454F" stroke="#283238" stroke-width="2" stroke-linecap="round" stroke-miterlimit="10" width="295.4" height="84.4"/>
<rect x="158.3" y="311.6" fill="#38454F" stroke="#283238" stroke-width="2" stroke-linecap="round" stroke-miterlimit="10" width="295.4" height="84.4"/>
<g>
	<path fill="#546A79" d="M200.5,596.5h21.1c5.8,0,10.6-4.7,10.6-10.6c0-5.8-4.7-10.6-10.6-10.6h-21.1c-5.8,0-10.6,4.7-10.6,10.6
		C189.9,591.8,194.6,596.5,200.5,596.5z"/>
	<path fill="#546A79" d="M200.5,617.6c0-5.8-4.7-10.6-10.6-10.6h-21.1c-5.8,0-10.6,4.7-10.6,10.6c0,5.8,4.7,10.6,10.6,10.6h21.1
		C195.8,628.1,200.5,623.4,200.5,617.6z"/>
	<path fill="#546A79" d="M263.8,617.6c0-5.8-4.7-10.6-10.6-10.6h-21.1c-5.8,0-10.6,4.7-10.6,10.6c0,5.8,4.7,10.6,10.6,10.6h21.1
		C259.1,628.1,263.8,623.4,263.8,617.6z"/>
	<path fill="#546A79" d="M263.8,596.5h21.1c5.8,0,10.6-4.7,10.6-10.6c0-5.8-4.7-10.6-10.6-10.6h-21.1c-5.8,0-10.6,4.7-10.6,10.6
		C253.2,591.8,258,596.5,263.8,596.5z"/>
	<path fill="#546A79" d="M327.1,596.5h21.1c5.8,0,10.6-4.7,10.6-10.6c0-5.8-4.7-10.6-10.6-10.6h-21.1c-5.8,0-10.6,4.7-10.6,10.6
		C316.6,591.8,321.3,596.5,327.1,596.5z"/>
	<path fill="#546A79" d="M327.1,617.6c0-5.8-4.7-10.6-10.6-10.6h-21.1c-5.8,0-10.6,4.7-10.6,10.6c0,5.8,4.7,10.6,10.6,10.6h21.1
		C322.4,628.1,327.1,623.4,327.1,617.6z"/>
	<path fill="#546A79" d="M390.4,617.6c0-5.8-4.7-10.6-10.6-10.6h-21.1c-5.8,0-10.6,4.7-10.6,10.6c0,5.8,4.7,10.6,10.6,10.6h21.1
		C385.7,628.1,390.4,623.4,390.4,617.6z"/>
	<path fill="#546A79" d="M390.4,596.5h21.1c5.8,0,10.6-4.7,10.6-10.6c0-5.8-4.7-10.6-10.6-10.6h-21.1c-5.8,0-10.6,4.7-10.6,10.6
		C379.9,591.8,384.6,596.5,390.4,596.5z"/>
	<path fill="#546A79" d="M443.2,607h-21.1c-5.8,0-10.6,4.7-10.6,10.6c0,5.8,4.7,10.6,10.6,10.6h21.1c5.8,0,10.6-4.7,10.6-10.6
		C453.7,611.8,449,607,443.2,607z"/>
	<path fill="#546A79" d="M221.6,638.7h-21.1c-5.8,0-10.6,4.7-10.6,10.6s4.7,10.6,10.6,10.6h21.1c5.8,0,10.6-4.7,10.6-10.6
		S227.4,638.7,221.6,638.7z"/>
	<path fill="#546A79" d="M284.9,638.7h-21.1c-5.8,0-10.6,4.7-10.6,10.6s4.7,10.6,10.6,10.6h21.1c5.8,0,10.6-4.7,10.6-10.6
		S290.7,638.7,284.9,638.7z"/>
	<path fill="#546A79" d="M348.2,638.7h-21.1c-5.8,0-10.6,4.7-10.6,10.6s4.7,10.6,10.6,10.6h21.1c5.8,0,10.6-4.7,10.6-10.6
		S354,638.7,348.2,638.7z"/>
	<path fill="#546A79" d="M411.5,638.7h-21.1c-5.8,0-10.6,4.7-10.6,10.6s4.7,10.6,10.6,10.6h21.1c5.8,0,10.6-4.7,10.6-10.6
		S417.4,638.7,411.5,638.7z"/>
</g>
<circle fill="#283238" cx="422.1" cy="469.9" r="31.7"/>
<circle fill="#25AE88" cx="168.8" cy="469.9" r="21.1"/>
<circle fill="#21C6F7" cx="221.6" cy="469.9" r="21.1"/>
</svg>
