<?xml version="1.0" encoding="UTF-8" standalone="no"?><!DOCTYPE svg PUBLIC "-//W3C//DTD SVG 1.1//EN" "http://www.w3.org/Graphics/SVG/1.1/DTD/svg11.dtd"><svg width="100%" height="100%" viewBox="0 0 613 402" version="1.1" xmlns="http://www.w3.org/2000/svg" xmlns:xlink="http://www.w3.org/1999/xlink" xml:space="preserve" style="fill-rule:evenodd;clip-rule:evenodd;stroke-linecap:round;stroke-miterlimit:10;"><rect id="Artboard1" x="0" y="0" width="612.917" height="401.59" style="fill:none;"/><path d="M612.461,25.813l0,350.2c0,14 -11.4,25.4 -25.4,25.4l-561.2,0c-14,0 -25.4,-11.4 -25.4,-25.4l0,-350.1c0,-14 11.4,-25.4 25.4,-25.4l561.2,0c14,-0.1 25.4,11.3 25.4,25.3Z" style="fill:#38454f;fill-rule:nonzero;"/><path d="M137.661,53.213l0,295.4l84.4,0l0,-295.4l-84.4,0Z" style="fill:#38454f;stroke:#283238;stroke-width:2px;"/><path d="M222.061,53.213l0,295.4l84.4,0l0,-295.4l-84.4,0Z" style="fill:#38454f;stroke:#283238;stroke-width:2px;"/><g><path d="M506.961,306.413l0,-21.1c0,-5.8 -4.7,-10.6 -10.6,-10.6c-5.8,0 -10.6,4.7 -10.6,10.6l0,21.1c0,5.8 4.7,10.6 10.6,10.6c5.9,0 10.6,-4.7 10.6,-10.6Z" style="fill:#546a79;fill-rule:nonzero;"/><path d="M528.061,306.413c-5.8,0 -10.6,4.7 -10.6,10.6l0,21.1c0,5.8 4.7,10.6 10.6,10.6c5.8,0 10.6,-4.7 10.6,-10.6l0,-21.1c-0.1,-5.9 -4.8,-10.6 -10.6,-10.6Z" style="fill:#546a79;fill-rule:nonzero;"/><path d="M528.061,243.113c-5.8,0 -10.6,4.7 -10.6,10.6l0,21.1c0,5.8 4.7,10.6 10.6,10.6c5.8,0 10.6,-4.7 10.6,-10.6l0,-21.1c-0.1,-5.9 -4.8,-10.6 -10.6,-10.6Z" style="fill:#546a79;fill-rule:nonzero;"/><path d="M506.961,243.113l0,-21.1c0,-5.8 -4.7,-10.6 -10.6,-10.6c-5.8,0 -10.6,4.7 -10.6,10.6l0,21.1c0,5.8 4.7,10.6 10.6,10.6c5.9,0 10.6,-4.8 10.6,-10.6Z" style="fill:#546a79;fill-rule:nonzero;"/><path d="M506.961,179.813l0,-21.1c0,-5.8 -4.7,-10.6 -10.6,-10.6c-5.8,0 -10.6,4.7 -10.6,10.6l0,21.1c0,5.8 4.7,10.6 10.6,10.6c5.9,-0.1 10.6,-4.8 10.6,-10.6Z" style="fill:#546a79;fill-rule:nonzero;"/><path d="M528.061,179.813c-5.8,0 -10.6,4.7 -10.6,10.6l0,21.1c0,5.8 4.7,10.6 10.6,10.6c5.8,0 10.6,-4.7 10.6,-10.6l0,-21.1c-0.1,-5.9 -4.8,-10.6 -10.6,-10.6Z" style="fill:#546a79;fill-rule:nonzero;"/><path d="M528.061,116.513c-5.8,0 -10.6,4.7 -10.6,10.6l0,21.1c0,5.8 4.7,10.6 10.6,10.6c5.8,0 10.6,-4.7 10.6,-10.6l0,-21.1c-0.1,-5.9 -4.8,-10.6 -10.6,-10.6Z" style="fill:#546a79;fill-rule:nonzero;"/><path d="M506.961,116.513l0,-21.1c0,-5.8 -4.7,-10.6 -10.6,-10.6c-5.8,0 -10.6,4.7 -10.6,10.6l0,21.1c0,5.8 4.7,10.6 10.6,10.6c5.9,-0.1 10.6,-4.8 10.6,-10.6Z" style="fill:#546a79;fill-rule:nonzero;"/><path d="M517.461,63.713l0,21.1c0,5.8 4.7,10.6 10.6,10.6c5.8,0 10.6,-4.7 10.6,-10.6l0,-21.1c0,-5.8 -4.7,-10.6 -10.6,-10.6c-5.8,0.1 -10.6,4.8 -10.6,10.6Z" style="fill:#546a79;fill-rule:nonzero;"/><path d="M549.161,285.313l0,21.1c0,5.8 4.7,10.6 10.6,10.6c5.9,0 10.6,-4.7 10.6,-10.6l0,-21.1c0,-5.8 -4.7,-10.6 -10.6,-10.6c-5.9,0 -10.6,4.8 -10.6,10.6Z" style="fill:#546a79;fill-rule:nonzero;"/><path d="M549.161,222.013l0,21.1c0,5.8 4.7,10.6 10.6,10.6c5.9,0 10.6,-4.7 10.6,-10.6l0,-21.1c0,-5.8 -4.7,-10.6 -10.6,-10.6c-5.9,0 -10.6,4.8 -10.6,10.6Z" style="fill:#546a79;fill-rule:nonzero;"/><path d="M549.161,158.713l0,21.1c0,5.8 4.7,10.6 10.6,10.6c5.9,0 10.6,-4.7 10.6,-10.6l0,-21.1c0,-5.8 -4.7,-10.6 -10.6,-10.6c-5.9,0 -10.6,4.8 -10.6,10.6Z" style="fill:#546a79;fill-rule:nonzero;"/><path d="M549.161,95.413l0,21.1c0,5.8 4.7,10.6 10.6,10.6c5.9,0 10.6,-4.7 10.6,-10.6l0,-21.1c0,-5.8 -4.7,-10.6 -10.6,-10.6c-5.9,0 -10.6,4.7 -10.6,10.6Z" style="fill:#546a79;fill-rule:nonzero;"/></g><path d="M348.661,84.813c0,-17.495 14.205,-31.7 31.7,-31.7c17.496,0 31.7,14.205 31.7,31.7c0,17.496 -14.204,31.7 -31.7,31.7c-17.495,0 -31.7,-14.204 -31.7,-31.7Z" style="fill:#283238;"/><path d="M359.261,338.113c0,-11.645 9.455,-21.1 21.1,-21.1c11.646,0 21.1,9.455 21.1,21.1c0,11.646 -9.454,21.1 -21.1,21.1c-11.645,0 -21.1,-9.454 -21.1,-21.1Z" style="fill:#25ae88;"/><path d="M359.261,285.313c0,-11.645 9.455,-21.1 21.1,-21.1c11.646,0 21.1,9.455 21.1,21.1c0,11.646 -9.454,21.1 -21.1,21.1c-11.645,0 -21.1,-9.454 -21.1,-21.1Z" style="fill:#21c6f7;"/></svg>