<?xml version="1.0" encoding="utf-8"?>
<!-- Generator: Adobe Illustrator 18.0.0, SVG Export Plug-In . SVG Version: 6.00 Build 0)  -->
<!DOCTYPE svg PUBLIC "-//W3C//DTD SVG 1.1//EN" "http://www.w3.org/Graphics/SVG/1.1/DTD/svg11.dtd">
<svg version="1.1" id="Capa_1" xmlns="http://www.w3.org/2000/svg" xmlns:xlink="http://www.w3.org/1999/xlink" x="0px" y="0px"
	 width="612px" height="456.4px" viewBox="0 167.8 612 456.4" enable-background="new 0 167.8 612 456.4" xml:space="preserve">
<rect x="41.5" y="219.7" fill="#38454F" width="570.5" height="331.9"/>
<circle fill="#546A79" cx="72.6" cy="250.8" r="10.4"/>
<circle fill="#546A79" cx="72.6" cy="520.5" r="10.4"/>
<circle fill="#546A79" cx="580.9" cy="250.8" r="10.4"/>
<circle fill="#546A79" cx="580.9" cy="520.5" r="10.4"/>
<rect y="375.3" fill="#839594" width="31.1" height="134.8"/>
<path fill="#F3CC6D" d="M31.1,364.9H10.4c-5.7,0-10.4-4.6-10.4-10.4s4.6-10.4,10.4-10.4h20.7c5.7,0,10.4,4.6,10.4,10.4
	S36.9,364.9,31.1,364.9z"/>
<path fill="#F3CC6D" d="M31.1,541.2H10.4c-5.7,0-10.4-4.6-10.4-10.4c0-5.7,4.6-10.4,10.4-10.4h20.7c5.7,0,10.4,4.6,10.4,10.4
	C41.5,536.6,36.9,541.2,31.1,541.2z"/>
<rect y="250.8" fill="#839594" width="31.1" height="41.5"/>
<g>
	<rect x="124.5" y="551.6" fill="#28812F" width="248.9" height="41.5"/>
</g>
<path fill="#6C797A" d="M253,491c-18.3-21.1-30.8-51.8-34.2-86.9c0-0.3-0.1-0.5-0.1-0.8c-0.5-5.8-0.9-11.7-0.9-17.7
	c0-6,0.4-11.9,0.9-17.7c0-0.3,0.1-0.5,0.1-0.8c3.3-35.1,15.9-65.8,34.2-86.9c8.1-10.9,17.3-20.8,27.7-29.5H176.3
	c-51.6,0-93.4,60.4-93.4,134.8s41.8,134.8,93.4,134.8h104.3C270.3,511.8,261.1,501.8,253,491z"/>
<path fill="#283238" d="M361.5,520.5c-55.1-21.8-91.8-75.4-91.8-134.8s36.7-113,91.8-134.8h106.9c55.1,21.8,91.7,75.4,91.7,134.8
	s-36.7,113-91.8,134.8H361.5z"/>
<circle fill="#CBD4D8" cx="414.9" cy="385.6" r="31.1"/>
<path fill="#546A79" d="M517.6,398.5c1.2-5.2-3.7-9.4-8.8-7.8c-17.2,5.5-42.4,4.6-63.2-9c0.2,1.3,0.4,2.6,0.4,3.9
	c0,13.5-8.7,24.9-20.7,29.2c0,0,39.7,29.1,72.6,33C507.2,437.1,514,413.5,517.6,398.5z"/>
<path fill="#546A79" d="M311.4,372.8c-1.2,5.2,3.7,9.4,8.8,7.8c17.2-5.5,42.4-4.6,63.2,9c-0.2-1.3-0.4-2.6-0.4-3.9
	c0-13.5,8.7-24.9,20.7-29.2c0,0-39.7-29.1-72.6-33C321.8,334.2,315,357.8,311.4,372.8z"/>
<path fill="#546A79" d="M356.2,471.7c4.1,3.5,10.1,1,11-4.3c2.9-17.9,15.1-39.9,36.7-52.2c-1.2-0.4-2.5-0.8-3.7-1.4
	c-12.1-6.1-18.3-19.1-16.6-31.8c0,0-44,22.1-62.4,49.7C326.6,444.9,344.5,461.7,356.2,471.7z"/>
<path fill="#546A79" d="M472.8,299.6c-4.1-3.5-10.1-1-11,4.3c-2.9,17.9-15.1,39.9-36.7,52.2c1.2,0.4,2.5,0.8,3.7,1.4
	c12.1,6.1,18.3,19.1,16.6,31.8c0,0,44-22.1,62.4-49.7C502.4,326.4,484.5,309.6,472.8,299.6z"/>
<path fill="#546A79" d="M458.3,479.9c5.1-1.7,6-8.2,2-11.6c-13.8-11.7-26.4-33.5-25.9-58.3c-1,0.8-2,1.7-3.1,2.4
	c-11.5,7.2-25.7,5.8-35.8-2.1c0,0-3.7,49.1,10.5,79.1C420,491.5,443.7,484.8,458.3,479.9z"/>
<path fill="#546A79" d="M370.8,291.4c-5.1,1.7-6,8.2-2,11.6c13.8,11.7,26.4,33.5,25.9,58.3c1-0.8,2-1.7,3.1-2.4
	c11.5-7.2,25.7-5.8,35.8,2.1c0,0,3.7-49.1-10.5-79.1C409,279.8,385.4,286.5,370.8,291.4z"/>
<g>
	<rect x="145.2" y="572.3" fill="#F3CC6D" width="20.7" height="20.7"/>
	<rect x="176.3" y="572.3" fill="#F3CC6D" width="20.7" height="20.7"/>
	<rect x="207.5" y="572.3" fill="#F3CC6D" width="20.7" height="20.7"/>
	<rect x="238.6" y="572.3" fill="#F3CC6D" width="20.7" height="20.7"/>
	<rect x="269.7" y="572.3" fill="#F3CC6D" width="20.7" height="20.7"/>
	<rect x="300.8" y="572.3" fill="#F3CC6D" width="20.7" height="20.7"/>
	<rect x="331.9" y="572.3" fill="#F3CC6D" width="20.7" height="20.7"/>
</g>
<path fill="#CBD4D8" d="M41.5,167.8H10.4c-5.7,0-10.4,4.6-10.4,10.4s4.6,10.4,10.4,10.4h20.7v425.3c0,5.7,4.6,10.4,10.4,10.4
	s10.4-4.6,10.4-10.4V178.2C51.9,172.4,47.2,167.8,41.5,167.8z"/>
</svg>
