<?xml version="1.0" encoding="utf-8"?>
<!-- Generator: Adobe Illustrator 18.0.0, SVG Export Plug-In . SVG Version: 6.00 Build 0)  -->
<!DOCTYPE svg PUBLIC "-//W3C//DTD SVG 1.1//EN" "http://www.w3.org/Graphics/SVG/1.1/DTD/svg11.dtd">
<svg version="1.1" id="Layer_1" xmlns="http://www.w3.org/2000/svg" xmlns:xlink="http://www.w3.org/1999/xlink" x="0px" y="0px"
	 width="433.6px" height="609.3px" viewBox="89.2 90 433.6 609.3" enable-background="new 89.2 90 433.6 609.3"
	 xml:space="preserve">
<path fill="#363F3E" d="M522.8,673.4c0,14.8-11.8,27.6-26.6,27.6H115.8c-14.8,0-26.6-12.8-26.6-27.6V117.6
	c0-14.8,11.8-27.6,26.6-27.6h380.4c14.8,0,26.6,12.8,26.6,27.6V673.4z"/>
<g>
	<path fill="#151918" d="M369.1,469.4c2,0,3-1,3.9-2c3.9-3.9,3.9-9.9,0-14.8l-15.8-15.8c-3.9-3.9-10.8-3.9-14.8,0c-1,1-2,3-2,3.9
		c-39.4,20.7-197.1,162.6-207,173.4l-14.8,14.8c-10.8,10.8-10.8,29.6,0,40.4l21.7,21.7c10.8,10.8,29.6,10.8,40.4,0l14.8-14.8
		C206.5,666.5,348.4,508.8,369.1,469.4z"/>
	<path fill="#151918" d="M89.2,116.6c0-14.8,11.8-26.6,26.6-26.6h380.4c14.8,0,26.6,12.8,26.6,27.6v556.8
		c0,14.8-11.8,27.6-26.6,27.6"/>
	<circle fill="#151918" cx="306" cy="393.5" r="166.6"/>
</g>
<circle fill="#1BCEB8" cx="306" cy="365" r="166.6"/>
<g>
	<path fill="#0DBFBA" d="M357.2,436.9c-3.9-3.9-10.8-3.9-14.8,0c-1,1-2,3-2,3.9c-17.7,8.9-59.1,42.4-99.5,77.9
		c19.7,8.9,42.4,12.8,65,12.8c5.9,0,11.8,0,17.7-1c21.7-26.6,39.4-49.3,45.3-62.1c2,0,3-1,3.9-2c3.9-3.9,3.9-9.9,0-14.8L357.2,436.9
		z"/>
	<path fill="#0DBFBA" d="M187.7,247.7c65-65,170.5-65,235.5,0s65,170.5,0,235.5"/>
</g>
<circle fill="#151918" cx="306" cy="365" r="30.6"/>
<path fill="#C5C9C9" d="M359.2,459.6c2,0,3-1,3.9-2c3.9-3.9,3.9-10.8,0-14.8L347.4,427c-3.9-3.9-10.8-3.9-14.8,0c-1,1-2,3-2,3.9
	c-39.4,20.7-197.1,162.6-207,173.4l-14.8,13.8c-10.8,10.8-10.8,29.6,0,40.4l21.7,21.7c10.8,10.8,29.6,10.8,40.4,0l14.8-14.8
	C195.6,655.7,338.5,499,359.2,459.6z"/>
<g>
	<path fill="#B6B7B7" d="M130.6,681.3c10.8,10.8,29.6,10.8,40.4,0l14.8-14.8c9.9-9.9,152.8-166.6,173.4-207c2,0,3-1,3.9-2
		c3.9-3.9,3.9-10.8,0-14.8L347.4,427c-3.9-3.9-10.8-3.9-14.8,0c-1,1-2,3-2,3.9"/>
	<path fill="#B6B7B7" d="M127.6,131.4c-4.9,5.9-3.9,14.8,2,20.7c5.9,5.9,14.8,5.9,20.7,2L127.6,131.4z"/>
	<path fill="#B6B7B7" d="M130.6,128.4l21.7,21.7c4.9-5.9,3.9-14.8-2-20.7C146.3,123.5,137.5,123.5,130.6,128.4z"/>
	<path fill="#B6B7B7" d="M456.8,139.3c1,9.9,7.9,13.8,15.8,13.8s14.8-3.9,15.8-13.8H456.8z"/>
	<path fill="#B6B7B7" d="M456.8,135.3h31.5c-1-9.9-7.9-13.8-15.8-13.8C463.7,121.5,457.8,125.5,456.8,135.3z"/>
	<path fill="#B6B7B7" d="M484.4,659.6c4.9-5.9,3.9-14.8-2-20.7c-5.9-5.9-14.8-5.9-20.7-2L484.4,659.6z"/>
	<path fill="#B6B7B7" d="M481.4,662.6l-21.7-21.7c-4.9,5.9-3.9,14.8,2,20.7C465.7,667.5,474.5,667.5,481.4,662.6z"/>
</g>
<g>
	<path fill="#151918" d="M155.2,648.8c-1-9.9-7.9-13.8-15.8-13.8s-14.8,3.9-15.8,13.8H155.2z"/>
	<path fill="#151918" d="M155.2,651.7h-31.5c1,9.9,7.9,13.8,15.8,13.8C148.3,665.5,154.2,661.6,155.2,651.7z"/>
</g>
</svg>
