<?xml version="1.0" encoding="utf-8"?>
<!-- Generator: Adobe Illustrator 18.0.0, SVG Export Plug-In . SVG Version: 6.00 Build 0)  -->
<!DOCTYPE svg PUBLIC "-//W3C//DTD SVG 1.1//EN" "http://www.w3.org/Graphics/SVG/1.1/DTD/svg11.dtd">
<svg version="1.1" id="Capa_1" xmlns="http://www.w3.org/2000/svg"  x="0px" y="0px"
	 viewBox="119.3 0 1044.5 1280" enable-background="new 119.3 0 1044.5 1280" xml:space="preserve">
<path d="M1081.6,1280c43.6,0,79.1-35.5,79.1-79.1V79.1c0-43.6-35.5-79.1-79.1-79.1H198.4c-43.6,0-79.1,35.5-79.1,79.1v1121.8
	c0,43.6,35.5,79.1,79.1,79.1h488.5v-55.5H960v55.5H1081.6z M1034.7,99.5c22.4,0,40.5,18.1,40.5,40.5s-18.2,40.5-40.5,40.5
	c-22.4,0-40.5-18.1-40.5-40.5S1012.3,99.5,1034.7,99.5z M1034.7,1099.5c22.4,0,40.5,18.1,40.5,40.5s-18.2,40.5-40.5,40.5
	c-22.4,0-40.5-18.1-40.5-40.5S1012.3,1099.5,1034.7,1099.5z M245.3,1180.5c-22.4,0-40.5-18.1-40.5-40.5s18.2-40.5,40.5-40.5
	c22.4,0,40.5,18.1,40.5,40.5S267.7,1180.5,245.3,1180.5z M245.3,180.5c-22.4,0-40.5-18.1-40.5-40.5s18.2-40.5,40.5-40.5
	c22.4,0,40.5,18.1,40.5,40.5S267.7,180.5,245.3,180.5z M640,929.6c-27.4,0-54-3.2-79.5-9.1c9.2,46.4,15.2,82.8,15.2,97.6
	c0,71-57.8,128.8-128.8,128.8s-128.8-57.8-128.8-128.8c0-27.1,20.2-126,42.5-226.4C315.1,732.3,288,658.2,288,577.6
	c0-194.4,157.6-352,352-352s352,157.6,352,352S834.4,929.6,640,929.6z M780.8,577.6c0,77.8-63,140.8-140.8,140.8
	s-140.8-63-140.8-140.8s63-140.8,140.8-140.8S780.8,499.8,780.8,577.6z M350.9,1018.1c0,53,43,96,96,96s96-43,96-96
	c0-53-96-454.2-96-454.2S350.9,965.1,350.9,1018.1z M484.4,1018.1c0,20.7-16.8,37.5-37.5,37.5c-20.7,0-37.5-16.8-37.5-37.5
	c0-20.7,16.8-37.5,37.5-37.5C467.6,980.6,484.4,997.4,484.4,1018.1z"/>
</svg>
