<?xml version="1.0" encoding="utf-8"?>
<!-- Generator: Adobe Illustrator 16.0.4, SVG Export Plug-In . SVG Version: 6.00 Build 0)  -->
<!DOCTYPE svg PUBLIC "-//W3C//DTD SVG 1.1//EN" "http://www.w3.org/Graphics/SVG/1.1/DTD/svg11.dtd">
<svg version="1.1" id="Layer_1" xmlns="http://www.w3.org/2000/svg" xmlns:xlink="http://www.w3.org/1999/xlink" x="0px" y="0px"
	 width="50px" height="50px" viewBox="0 0 50 50" enable-background="new 0 0 50 50" xml:space="preserve">
<g>
	<path d="M33.327,21.244c0-2.274-1.983-2.274-3.731-2.274c-1.959,0-3.16-0.082-3.16-1.699h-0.574c0,2.273,1.984,2.273,3.734,2.273
		c1.957,0,3.157,0.082,3.157,1.7H13.514v11.486h22.973V21.244H33.327z M24.234,22.392h1.529v1.53h-1.529V22.392z M24.234,24.688
		h1.529v1.53h-1.529V24.688z M24.234,26.985h1.529v1.53h-1.529V26.985z M21.938,22.392h1.53v1.53h-1.53V22.392z M21.938,24.688h1.53
		v1.53h-1.53V24.688z M21.938,26.985h1.53v1.53h-1.53V26.985z M19.641,22.392h1.53v1.53h-1.53V22.392z M19.641,24.688h1.53v1.53
		h-1.53V24.688z M19.641,26.985h1.53v1.53h-1.53V26.985z M17.343,22.392h1.53v1.53h-1.53V22.392z M17.343,24.688h1.53v1.53h-1.53
		V24.688z M17.343,26.985h1.53v1.53h-1.53V26.985z M16.576,30.812h-1.531v-1.529h1.531V30.812z M16.576,28.517h-1.531v-1.53h1.531
		V28.517z M16.576,26.219h-1.531v-1.53h1.531V26.219z M16.576,23.921h-1.531v-1.53h1.531V23.921z M28.062,30.812H17.342v-1.529
		h10.721V30.812z M28.062,28.517h-1.531v-1.53h1.531V28.517z M28.062,26.219h-1.531v-1.53h1.531V26.219z M28.062,23.921h-1.531
		v-1.53h1.531V23.921z M30.359,28.517h-1.531v-1.53h1.531V28.517z M30.359,26.219h-1.531v-1.53h1.531V26.219z M30.359,23.921h-1.531
		v-1.53h1.531V23.921z M32.656,26.219h-1.531v-1.53h1.531V26.219z M32.656,23.921h-1.531v-1.53h1.531V23.921z M34.954,28.517h-1.531
		v-1.53h1.531V28.517z M34.954,26.219h-1.531v-1.53h1.531V26.219z M34.954,23.921h-1.531v-1.53h1.531V23.921z"/>
</g>
</svg>
