<?xml version="1.0" encoding="utf-8"?>
<!-- Generator: Adobe Illustrator 18.0.0, SVG Export Plug-In . SVG Version: 6.00 Build 0)  -->
<!DOCTYPE svg PUBLIC "-//W3C//DTD SVG 1.1//EN" "http://www.w3.org/Graphics/SVG/1.1/DTD/svg11.dtd">
<svg version="1.1" id="Capa_1" xmlns="http://www.w3.org/2000/svg" xmlns:xlink="http://www.w3.org/1999/xlink" x="0px" y="0px"
	 width="612px" height="456.4px" viewBox="0 167.8 612 456.4" enable-background="new 0 167.8 612 456.4" xml:space="preserve">
<g>
	<path fill="#CCCCCC" d="M584.9,624.2H27.1c-15,0-27.1-12.1-27.1-27.1V384.6c0-15,12.1-27.1,27.1-27.1h557.8
		c15,0,27.1,12.1,27.1,27.1v212.5C612,612.1,599.9,624.2,584.9,624.2z"/>
	<g>
		<path fill="#4D4D4D" d="M562.2,465.8H532c-3.4,0-6.2,2.8-6.2,6.2v37.6c0,3.4,2.8,6.2,6.2,6.2h30.2c3.4,0,6.2-2.8,6.2-6.2v-37.6
			C568.5,468.6,565.7,465.8,562.2,465.8z"/>
		<path fill="#4D4D4D" d="M568.5,449.7v-42.5c0-3.4-2.8-6.2-6.2-6.2H532c-3.4,0-6.2,2.8-6.2,6.2v42.5c0,3.4,2.8,6.2,6.2,6.2h30.2
			C565.7,456,568.5,453.2,568.5,449.7z"/>
		<path fill="#4D4D4D" d="M480.8,515.9h28.9c3.4,0,6.2-2.8,6.2-6.2v-37.6c0-3.4-2.8-6.2-6.2-6.2h-28.9c-3.4,0-6.2,2.8-6.2,6.2v37.6
			C474.5,513.1,477.3,515.9,480.8,515.9z"/>
		<path fill="#4D4D4D" d="M480.8,580.7h28.9c3.4,0,6.2-2.8,6.2-6.2V532c0-3.4-2.8-6.2-6.2-6.2h-28.9c-3.4,0-6.2,2.8-6.2,6.2v42.5
			C474.5,577.9,477.3,580.7,480.8,580.7z"/>
		<path fill="#4D4D4D" d="M480.8,456h28.9c3.4,0,6.2-2.8,6.2-6.2v-42.5c0-3.4-2.8-6.2-6.2-6.2h-28.9c-3.4,0-6.2,2.8-6.2,6.2v42.5
			C474.5,453.2,477.3,456,480.8,456z"/>
		<path fill="#4D4D4D" d="M525.8,532v42.5c0,3.4,2.8,6.2,6.2,6.2h30.2c3.4,0,6.2-2.8,6.2-6.2V532c0-3.4-2.8-6.2-6.2-6.2H532
			C528.5,525.7,525.8,528.5,525.8,532z"/>
	</g>
	<g>
		<path fill="#4D4D4D" d="M166.4,574.7v-43c0-3.3-2.7-6-6-6H117c-3.3,0-6,2.7-6,6v43c0,3.3,2.7,6,6,6h43.4
			C163.7,580.7,166.4,578,166.4,574.7z"/>
		<path fill="#4D4D4D" d="M196.2,465.8h-43.4c-3.3,0-6,2.7-6,6v38.1c0,3.3,2.7,6,6,6h43.4c3.3,0,6-2.7,6-6v-38.1
			C202.2,468.5,199.5,465.8,196.2,465.8z"/>
		<path fill="#4D4D4D" d="M291,525.7H182.3c-3.3,0-6,2.7-6,6v43c0,3.3,2.7,6,6,6H291c3.3,0,6-2.7,6-6v-43
			C297,528.4,294.3,525.7,291,525.7z"/>
		<path fill="#4D4D4D" d="M85.7,471.8v38.1c0,3.3,2.7,6,6,6H131c3.3,0,6-2.7,6-6v-38.1c0-3.3-2.7-6-6-6H91.7
			C88.4,465.8,85.7,468.5,85.7,471.8z"/>
		<path fill="#4D4D4D" d="M212,471.8v38.1c0,3.3,2.7,6,6,6h43.4c3.3,0,6-2.7,6-6v-38.1c0-3.3-2.7-6-6-6H218
			C214.7,465.8,212,468.5,212,471.8z"/>
		<path fill="#4D4D4D" d="M424.6,450v-43c0-3.3-2.7-6-6-6h-40.5c-3.3,0-6,2.7-6,6v43c0,3.3,2.7,6,6,6h40.5
			C421.9,456,424.6,453.3,424.6,450z"/>
		<path fill="#4D4D4D" d="M312.8,580.7h43.4c3.3,0,6-2.7,6-6v-43c0-3.3-2.7-6-6-6h-43.4c-3.3,0-6,2.7-6,6v43
			C306.8,578,309.5,580.7,312.8,580.7z"/>
		<path fill="#4D4D4D" d="M166.4,450v-43c0-3.3-2.7-6-6-6H117c-3.3,0-6,2.7-6,6v43c0,3.3,2.7,6,6,6h43.4
			C163.7,456,166.4,453.3,166.4,450z"/>
		<path fill="#4D4D4D" d="M49.5,515.9h20.4c3.3,0,6-2.7,6-6v-38.1c0-3.3-2.7-6-6-6H49.5c-3.3,0-6,2.7-6,6v38.1
			C43.5,513.2,46.2,515.9,49.5,515.9z"/>
		<path fill="#4D4D4D" d="M49.5,580.7h45.7c3.3,0,6-2.7,6-6v-43c0-3.3-2.7-6-6-6H49.5c-3.3,0-6,2.7-6,6v43
			C43.5,578,46.2,580.7,49.5,580.7z"/>
		<path fill="#4D4D4D" d="M49.5,456h45.7c3.3,0,6-2.7,6-6v-43c0-3.3-2.7-6-6-6H49.5c-3.3,0-6,2.7-6,6v43
			C43.5,453.3,46.2,456,49.5,456z"/>
		<path fill="#4D4D4D" d="M231.7,450v-43c0-3.3-2.7-6-6-6h-43.4c-3.3,0-6,2.7-6,6v43c0,3.3,2.7,6,6,6h43.4
			C229,456,231.7,453.3,231.7,450z"/>
		<path fill="#4D4D4D" d="M372.1,531.7v43c0,3.3,2.7,6,6,6h40.5c3.3,0,6-2.7,6-6v-43c0-3.3-2.7-6-6-6h-40.5
			C374.7,525.7,372.1,528.4,372.1,531.7z"/>
		<path fill="#4D4D4D" d="M326.8,465.8h-43.4c-3.3,0-6,2.7-6,6v38.1c0,3.3,2.7,6,6,6h43.4c3.3,0,6-2.7,6-6v-38.1
			C332.8,468.5,330.1,465.8,326.8,465.8z"/>
		<path fill="#4D4D4D" d="M297,450v-43c0-3.3-2.7-6-6-6h-43.4c-3.3,0-6,2.7-6,6v43c0,3.3,2.7,6,6,6H291C294.3,456,297,453.3,297,450
			z"/>
		<path fill="#4D4D4D" d="M418.6,465.8h-70c-3.3,0-6,2.7-6,6v38.1c0,3.3,2.7,6,6,6h70c3.3,0,6-2.7,6-6v-38.1
			C424.6,468.5,421.9,465.8,418.6,465.8z"/>
		<path fill="#4D4D4D" d="M362.2,450v-43c0-3.3-2.7-6-6-6h-43.4c-3.3,0-6,2.7-6,6v43c0,3.3,2.7,6,6,6h43.4
			C359.5,456,362.2,453.3,362.2,450z"/>
	</g>
	<path fill="#66645D" d="M92.7,357.5H64.7v-33.9c0-25.2,20.5-45.6,45.6-45.6h381.1c9.7,0,17.5-7.9,17.5-17.5
		c0-9.7-7.9-17.5-17.5-17.5H104c-25.2,0-45.6-20.5-45.6-45.6v-29.5h28.1v29.5c0,9.7,7.9,17.5,17.5,17.5h387.4
		c25.2,0,45.6,20.5,45.6,45.6s-20.5,45.6-45.6,45.6H110.3c-9.7,0-17.5,7.9-17.5,17.5V357.5z"/>
</g>
</svg>
