<?xml version="1.0" encoding="iso-8859-1"?>
<!-- Generator: Adobe Illustrator 19.0.0, SVG Export Plug-In . SVG Version: 6.00 Build 0)  -->
<svg version="1.1" id="Layer_1" xmlns="http://www.w3.org/2000/svg" xmlns:xlink="http://www.w3.org/1999/xlink" x="0px" y="0px"
	 viewBox="0 0 496 496" style="enable-background:new 0 0 496 496;" xml:space="preserve">
<path style="fill:#E8A615;" d="M148.8,483.2c0,7.2-4.8,12.8-12,12.8l0,0c-7.2,0-12-5.6-12-12.8V316c0-7.2,4.8-12.8,12-12.8l0,0
	c7.2,0,12,5.6,12,12.8V483.2z"/>
<path style="fill:#D6930D;" d="M137.6,303.2L137.6,303.2c7.2,0,11.2,5.6,11.2,12.8v167.2c0,7.2-4.8,12.8-12,12.8l0,0"/>
<path style="fill:#6B6A69;" d="M204.8,483.2c0,7.2-4.8,12.8-12,12.8l0,0c-7.2,0-12-5.6-12-12.8V316c0-7.2,4.8-12.8,12-12.8l0,0
	c7.2,0,12,5.6,12,12.8V483.2z"/>
<path style="fill:#4C4B4B;" d="M192.8,303.2L192.8,303.2c7.2,0,12,5.6,12,12.8v167.2c0,7.2-4.8,12.8-12,12.8l0,0"/>
<path style="fill:#9FE517;" d="M260.8,483.2c0,7.2-4.8,12.8-12,12.8l0,0c-7.2,0-12-5.6-12-12.8V316c0-7.2,4.8-12.8,12-12.8l0,0
	c7.2,0,12,5.6,12,12.8V483.2z"/>
<path style="fill:#98D600;" d="M248.8,303.2L248.8,303.2c7.2,0,12,5.6,12,12.8v167.2c0,7.2-4.8,12.8-12,12.8l0,0"/>
<path style="fill:#1ACFE2;" d="M316.8,483.2c0,7.2-4.8,12.8-12,12.8l0,0c-7.2,0-12-5.6-12-12.8V316c0-7.2,4.8-12.8,12-12.8l0,0
	c7.2,0,12,5.6,12,12.8V483.2z"/>
<path style="fill:#05BBCE;" d="M304.8,303.2L304.8,303.2c7.2,0,12,5.6,12,12.8v167.2c0,7.2-4.8,12.8-12,12.8l0,0"/>
<path style="fill:#AB75E0;" d="M372.8,483.2c0,7.2-4.8,12.8-12,12.8l0,0c-7.2,0-12-5.6-12-12.8V316c0-7.2,4-12,12-12l0,0
	c8,0,12,4.8,12,12V483.2z"/>
<path style="fill:#915DCE;" d="M360.8,304L360.8,304c7.2,0,12,4.8,12,12v167.2c0,7.2-4.8,12.8-12,12.8l0,0"/>
<path style="fill:#D1DBD6;" d="M420.8,310.4c0,14.4-11.2,25.6-25.6,25.6H102.4c-14.4,0-25.6-11.2-25.6-25.6V25.6
	C76.8,11.2,88,0,102.4,0H396c13.6,0,24.8,11.2,24.8,25.6V310.4z"/>
<path style="fill:#C5D1CA;" d="M395.2,0c14.4,0,25.6,11.2,25.6,25.6v285.6c0,14.4-11.2,25.6-25.6,25.6H102.4
	c-14.4,0-25.6-11.2-25.6-25.6"/>
<rect x="84.8" y="168" style="fill:#D1DBD6;" width="328" height="16"/>
<path style="fill:#B4C1B9;" d="M420.8,310.4c0,14.4-11.2,25.6-25.6,25.6H102.4c-14.4,0-25.6-11.2-25.6-25.6"/>
<path style="fill:#B6C1BB;" d="M432,168c0,3.2-2.4,8-5.6,8H69.6c-3.2,0-5.6-4.8-5.6-8l0,0c0-3.2,2.4-8,5.6-8h356
	C429.6,160,432,164.8,432,168L432,168z"/>
<path style="fill:#E4EFE8;" d="M76.8,25.6C76.8,11.2,88,0,102.4,0H396c13.6,0,24.8,11.2,24.8,25.6"/>
<g>
</g>
<g>
</g>
<g>
</g>
<g>
</g>
<g>
</g>
<g>
</g>
<g>
</g>
<g>
</g>
<g>
</g>
<g>
</g>
<g>
</g>
<g>
</g>
<g>
</g>
<g>
</g>
<g>
</g>
</svg>
