<?xml version="1.0" encoding="utf-8"?>
<!-- Generator: Adobe Illustrator 18.0.0, SVG Export Plug-In . SVG Version: 6.00 Build 0)  -->
<!DOCTYPE svg PUBLIC "-//W3C//DTD SVG 1.1//EN" "http://www.w3.org/Graphics/SVG/1.1/DTD/svg11.dtd">
<svg version="1.1" id="Layer_1" xmlns="http://www.w3.org/2000/svg" xmlns:xlink="http://www.w3.org/1999/xlink" x="0px" y="0px"
	 viewBox="13.1 16.8 23.8 16.3" enable-background="new 13.1 16.8 23.8 16.3" xml:space="preserve">
<path d="M34.7,29.2v-0.9V23v-5.3c0-0.5-0.4-0.9-0.9-0.9H16.2c-0.5,0-0.9,0.4-0.9,0.9V23v5.3v0.9l-2.2,2.6c0,0.7,0.6,1.3,1.3,1.3
	h21.2c0.7,0,1.3-0.6,1.3-1.3L34.7,29.2z M26.8,32.7h-3.5c-0.1,0-0.2-0.1-0.2-0.2s0.1-0.2,0.2-0.2h3.5c0.1,0,0.2,0.1,0.2,0.2
	C27,32.6,26.9,32.7,26.8,32.7z M21.4,31.8L22,31H28l0.7,0.8H21.4z M33.5,27.6c0,0.4-0.3,0.8-0.8,0.8H17.3c-0.4,0-0.8-0.3-0.8-0.8
	v-9.2c0-0.4,0.3-0.8,0.8-0.8h15.4c0.4,0,0.8,0.3,0.8,0.8C33.5,18.4,33.5,27.6,33.5,27.6z"/>
</svg>
