<?xml version="1.0" encoding="utf-8"?>
<!-- Generator: Adobe Illustrator 18.0.0, SVG Export Plug-In . SVG Version: 6.00 Build 0)  -->
<!DOCTYPE svg PUBLIC "-//W3C//DTD SVG 1.1//EN" "http://www.w3.org/Graphics/SVG/1.1/DTD/svg11.dtd">
<svg version="1.1" id="Capa_1" xmlns="http://www.w3.org/2000/svg" xmlns:xlink="http://www.w3.org/1999/xlink" x="0px" y="0px"
	 width="612px" height="422.1px" viewBox="0 185 612 422.1" enable-background="new 0 185 612 422.1" xml:space="preserve">
<path fill="#38454F" d="M254.2,564.8c2.2,6.1,8,10.6,14.8,10.6h84.4c6.8,0,12.7-4.4,14.8-10.6h212V217.3c0-17.9-14.5-32.4-32.4-32.4
	H64c-17.9,0-32.4,14.5-32.4,32.4v347.5H254.2z"/>
<rect x="63.3" y="216.6" fill="#546A79" width="485.4" height="316.6"/>
<g>
	<path fill="#839CAA" d="M116.1,322.1c2.7,0,5.4-1,7.5-3.1l42.2-42.2c4.1-4.1,4.1-10.8,0-14.9s-10.8-4.1-14.9,0l-42.2,42.2
		c-4.1,4.1-4.1,10.8,0,14.9C110.7,321.1,113.4,322.1,116.1,322.1z"/>
	<path fill="#839CAA" d="M116.1,374.9c2.7,0,5.4-1,7.5-3.1l21.1-21.1c4.1-4.1,4.1-10.8,0-14.9c-4.1-4.1-10.8-4.1-14.9,0l-21.1,21.1
		c-4.1,4.1-4.1,10.8,0,14.9C110.7,373.9,113.4,374.9,116.1,374.9z"/>
	<path fill="#839CAA" d="M150.8,314.6c-1.9,2-3.1,4.7-3.1,7.5c0,2.7,1.2,5.5,3.1,7.5c2,1.9,4.7,3.1,7.5,3.1s5.5-1.2,7.5-3.1
		c1.9-2,3.1-4.7,3.1-7.5c0-2.7-1.2-5.5-3.1-7.5C161.9,310.7,154.6,310.8,150.8,314.6z"/>
	<path fill="#839CAA" d="M171.9,308.5c2.1,2.1,4.8,3.1,7.5,3.1s5.4-1,7.5-3.1l31.7-31.7c4.1-4.1,4.1-10.8,0-14.9s-10.8-4.1-14.9,0
		l-31.7,31.7C167.8,297.7,167.8,304.4,171.9,308.5z"/>
	<path fill="#839CAA" d="M203.6,314.7l-95,95c-4.1,4.1-4.1,10.8,0,14.9c2.1,2.1,4.8,3.1,7.5,3.1c2.7,0,5.4-1,7.5-3.1l95-95
		c4.1-4.1,4.1-10.8,0-14.9C214.4,310.6,207.7,310.6,203.6,314.7z"/>
	<path fill="#839CAA" d="M224.6,293.5c-1.9,2-3.1,4.7-3.1,7.5s1.2,5.5,3.1,7.5c2,1.9,4.7,3.1,7.5,3.1s5.5-1.2,7.5-3.1
		c1.9-2,3.1-4.7,3.1-7.5c0-2.8-1.2-5.5-3.1-7.5C235.7,289.6,228.7,289.6,224.6,293.5z"/>
	<path fill="#839CAA" d="M271.3,261.9c-4.1-4.1-10.8-4.1-14.9,0l-10.6,10.6c-4.1,4.1-4.1,10.8,0,14.9c2.1,2.1,4.8,3.1,7.5,3.1
		c2.7,0,5.4-1,7.5-3.1l10.6-10.6C275.4,272.7,275.4,266,271.3,261.9z"/>
</g>
<path fill="#AFB6BB" d="M368.3,564.8c-2.2,6.1-8,10.6-14.8,10.6h-84.4c-6.8,0-12.7-4.4-14.8-10.6H6.1c-3.4,0-6.1,2.7-6.1,6.1v30
	c0,3.4,2.7,6.1,6.1,6.1h599.8c3.4,0,6.1-2.7,6.1-6.1v-30c0-3.4-2.7-6.1-6.1-6.1H368.3z"/>
</svg>
