<?xml version="1.0" encoding="utf-8"?>
<!-- Generator: Adobe Illustrator 18.0.0, SVG Export Plug-In . SVG Version: 6.00 Build 0)  -->
<!DOCTYPE svg PUBLIC "-//W3C//DTD SVG 1.1//EN" "http://www.w3.org/Graphics/SVG/1.1/DTD/svg11.dtd">
<svg version="1.1" id="Capa_1" xmlns="http://www.w3.org/2000/svg"  x="0px" y="0px"
	 viewBox="476.5 -264.7 586.9 1280" enable-background="new 476.5 -264.7 586.9 1280" xml:space="preserve">
<path d="M990.9,166.6h56.5c6.7,0,12.2,4,12.2,9v815.1c0,4.9-5.5,9-12.2,9h-59.3v11.3H884.3v-11.3H651.9v11.3H548v-11.3h-59.3
	c-6.7,0-12.2-4-12.2-9V175.5c0-4.9,5.5-9,12.2-9h56.7 M566.6,325h402.9v-82.5H566.6V325z M566.6,432.5h402.9v-82.5H566.6V432.5z
	 M566.6,540.1h402.9v-82.5H566.6V540.1z M566.6,706.4v211.4h402.9V706.4"/>
</svg>
