<?xml version="1.0" encoding="iso-8859-1"?>
<!-- Generator: Adobe Illustrator 18.0.0, SVG Export Plug-In . SVG Version: 6.00 Build 0)  -->
<!DOCTYPE svg PUBLIC "-//W3C//DTD SVG 1.1//EN" "http://www.w3.org/Graphics/SVG/1.1/DTD/svg11.dtd">
<svg version="1.1" id="Capa_1" xmlns="http://www.w3.org/2000/svg" xmlns:xlink="http://www.w3.org/1999/xlink" x="0px" y="0px"
	 viewBox="0 0 179.175 179.175" style="enable-background:new 0 0 179.175 179.175;" xml:space="preserve">
<path d="M179.175,179.175h-83.3v-21.319l49.946-49.947V72.811c2.54-1.912,4.19-4.943,4.19-8.368c0-5.788-4.69-10.478-10.477-10.478
	c-5.788,0-10.479,4.69-10.479,10.478c0,3.425,1.65,6.456,4.191,8.368v29.889l-49.946,49.947v26.528H45.58V147.9
	c2.54-1.911,4.19-4.942,4.19-8.367c0-5.788-4.69-10.479-10.478-10.479s-10.478,4.69-10.478,10.479c0,3.425,1.65,6.456,4.191,8.367
	v31.274H0V90.287h36.688l13.896,13.895c-0.068,0.482-0.115,0.972-0.115,1.473c0,5.787,4.69,10.479,10.479,10.479
	c5.787,0,10.478-4.691,10.478-10.479c0-5.787-4.69-10.477-10.478-10.477c-0.501,0-0.989,0.047-1.472,0.115L41.898,77.713H0V48.725
	h66.438l13.956-12.112c0.712,0.152,1.45,0.237,2.208,0.237c5.788,0,10.479-4.691,10.479-10.479c0-5.787-4.69-10.477-10.479-10.477
	c-5.787,0-10.478,4.69-10.478,10.477c0,0.249,0.021,0.492,0.037,0.736L61.742,36.15H0V0h152.865
	c8.769,8.771,17.54,17.54,26.31,26.31v113.223h-26.036c-1.911-2.54-4.943-4.191-8.368-4.191c-5.787,0-10.478,4.691-10.478,10.478
	c0,5.788,4.69,10.479,10.478,10.479c3.426,0,6.457-1.65,8.369-4.191h26.035V179.175z"/>
<g>
</g>
<g>
</g>
<g>
</g>
<g>
</g>
<g>
</g>
<g>
</g>
<g>
</g>
<g>
</g>
<g>
</g>
<g>
</g>
<g>
</g>
<g>
</g>
<g>
</g>
<g>
</g>
<g>
</g>
</svg>
