<?xml version="1.0" encoding="utf-8"?>
<!-- Generator: Adobe Illustrator 18.0.0, SVG Export Plug-In . SVG Version: 6.00 Build 0)  -->
<!DOCTYPE svg PUBLIC "-//W3C//DTD SVG 1.1//EN" "http://www.w3.org/Graphics/SVG/1.1/DTD/svg11.dtd">
<svg version="1.1" id="Capa_1" xmlns="http://www.w3.org/2000/svg" xmlns:xlink="http://www.w3.org/1999/xlink" x="0px" y="0px"
	 width="612px" height="538.1px" viewBox="0 126.9 612 538.1" enable-background="new 0 126.9 612 538.1" xml:space="preserve">
<path fill="#5E5E60" d="M0,158.6v42.2h31.7c5.8,0,10.6,4.7,10.6,10.6s-4.7,10.6-10.6,10.6H0v10.6h31.7c5.8,0,10.6,4.7,10.6,10.6
	c0,5.8-4.7,10.6-10.6,10.6H0v10.6h31.7c5.8,0,10.6,4.7,10.6,10.6c0,5.8-4.7,10.6-10.6,10.6H0v211h31.7c5.8,0,10.6,4.7,10.6,10.6
	s-4.7,10.6-10.6,10.6H0v10.6h31.7c5.8,0,10.6,4.7,10.6,10.6c0,5.8-4.7,10.6-10.6,10.6H0v10.6h31.7c5.8,0,10.6,4.7,10.6,10.6
	c0,5.8-4.7,10.6-10.6,10.6H0v10.6h31.7c5.8,0,10.6,4.7,10.6,10.6c0,5.8-4.7,10.6-10.6,10.6H0v10.6h31.7c5.8,0,10.6,4.7,10.6,10.6
	c0,5.8-4.7,10.6-10.6,10.6H0v21.1h612V158.6H0z"/>
<path fill="#F3CC6D" d="M42.2,506.8c0-5.8-4.7-10.6-10.6-10.6H0v21.1h31.7C37.5,517.3,42.2,512.6,42.2,506.8z"/>
<path fill="#F3CC6D" d="M42.2,538.4c0-5.8-4.7-10.6-10.6-10.6H0V549h31.7C37.5,549,42.2,544.3,42.2,538.4z"/>
<path fill="#F3CC6D" d="M42.2,570.1c0-5.8-4.7-10.6-10.6-10.6H0v21.1h31.7C37.5,580.7,42.2,575.9,42.2,570.1z"/>
<path fill="#F3CC6D" d="M42.2,601.8c0-5.8-4.7-10.6-10.6-10.6H0v21.1h31.7C37.5,612.3,42.2,607.6,42.2,601.8z"/>
<path fill="#F3CC6D" d="M42.2,633.4c0-5.8-4.7-10.6-10.6-10.6H0V644h31.7C37.5,644,42.2,639.2,42.2,633.4z"/>
<path fill="#F3CC6D" d="M42.2,211.3c0-5.8-4.7-10.6-10.6-10.6H0v21.1h31.7C37.5,221.9,42.2,217.2,42.2,211.3z"/>
<path fill="#F3CC6D" d="M42.2,243c0-5.8-4.7-10.6-10.6-10.6H0v21.1h31.7C37.5,253.6,42.2,248.8,42.2,243z"/>
<path fill="#F3CC6D" d="M42.2,274.7c0-5.8-4.7-10.6-10.6-10.6H0v21.1h31.7C37.5,285.2,42.2,280.5,42.2,274.7z"/>
<circle fill="#E7ECED" cx="284.9" cy="348.5" r="10.6"/>
<circle fill="#F3CC6D" cx="284.9" cy="380.2" r="10.6"/>
<circle fill="#F3CC6D" cx="284.9" cy="411.8" r="10.6"/>
<circle fill="#F3CC6D" cx="284.9" cy="253.6" r="10.6"/>
<circle fill="#E7ECED" cx="253.2" cy="274.7" r="10.6"/>
<circle fill="#E7ECED" cx="253.2" cy="316.9" r="10.6"/>
<circle fill="#F3CC6D" cx="580.3" cy="274.7" r="10.6"/>
<circle fill="#F3CC6D" cx="580.3" cy="348.5" r="10.6"/>
<circle fill="#E7ECED" cx="189.9" cy="496.2" r="10.6"/>
<circle fill="#E7ECED" cx="158.3" cy="496.2" r="10.6"/>
<circle fill="#F3CC6D" cx="126.6" cy="496.2" r="10.6"/>
<circle fill="#F3CC6D" cx="31.7" cy="369.6" r="10.6"/>
<circle fill="#F3CC6D" cx="31.7" cy="401.3" r="10.6"/>
<circle fill="#F3CC6D" cx="31.7" cy="432.9" r="10.6"/>
<circle fill="#F3CC6D" cx="284.9" cy="285.2" r="10.6"/>
<circle fill="#E7ECED" cx="284.9" cy="316.9" r="10.6"/>
<path fill="#28812F" d="M530.7,411.8h-175c-10,0-18-8.1-18-18v-175c0-10,8.1-18,18-18h175c10,0,18,8.1,18,18v175
	C548.7,403.8,540.6,411.8,530.7,411.8z"/>
<rect x="337.7" y="126.9" fill="#546A79" width="42.2" height="31.7"/>
<rect x="379.9" y="126.9" fill="#38454F" width="42.2" height="31.7"/>
<rect x="422.1" y="126.9" fill="#546A79" width="42.2" height="31.7"/>
<rect x="464.3" y="126.9" fill="#38454F" width="42.2" height="31.7"/>
<rect x="506.5" y="126.9" fill="#546A79" width="42.2" height="31.7"/>
<path fill="#BFA380" d="M569.8,485.7h-21.1c-5.8,0-10.6-4.7-10.6-10.6s4.7-10.6,10.6-10.6h21.1c5.8,0,10.6,4.7,10.6,10.6
	S575.6,485.7,569.8,485.7z"/>
<path fill="#BFA380" d="M569.8,527.9h-21.1c-5.8,0-10.6-4.7-10.6-10.6c0-5.8,4.7-10.6,10.6-10.6h21.1c5.8,0,10.6,4.7,10.6,10.6
	C580.3,523.2,575.6,527.9,569.8,527.9z"/>
<g>
	<path fill="#8F8F99" d="M253.2,485.7h21.1c5.8,0,10.6-4.7,10.6-10.6s-4.7-10.6-10.6-10.6h-21.1c-5.8,0-10.6,4.7-10.6,10.6
		S247.4,485.7,253.2,485.7z"/>
	<path fill="#8F8F99" d="M274.3,506.8h-21.1c-5.8,0-10.6,4.7-10.6,10.6c0,5.8,4.7,10.6,10.6,10.6h21.1c5.8,0,10.6-4.7,10.6-10.6
		C284.9,511.5,280.2,506.8,274.3,506.8z"/>
	<path fill="#8F8F99" d="M274.3,549h-21.1c-5.8,0-10.6,4.7-10.6,10.6c0,5.8,4.7,10.6,10.6,10.6h21.1c5.8,0,10.6-4.7,10.6-10.6
		C284.9,553.7,280.2,549,274.3,549z"/>
	<path fill="#8F8F99" d="M274.3,591.2h-21.1c-5.8,0-10.6,4.7-10.6,10.6c0,5.8,4.7,10.6,10.6,10.6h21.1c5.8,0,10.6-4.7,10.6-10.6
		C284.9,595.9,280.2,591.2,274.3,591.2z"/>
</g>
<path fill="#BFA380" d="M569.8,570.1h-21.1c-5.8,0-10.6-4.7-10.6-10.6c0-5.8,4.7-10.6,10.6-10.6h21.1c5.8,0,10.6,4.7,10.6,10.6
	C580.3,565.4,575.6,570.1,569.8,570.1z"/>
<path fill="#BFA380" d="M569.8,612.3h-21.1c-5.8,0-10.6-4.7-10.6-10.6c0-5.8,4.7-10.6,10.6-10.6h21.1c5.8,0,10.6,4.7,10.6,10.6
	C580.3,607.6,575.6,612.3,569.8,612.3z"/>
<path fill="#F3CC6D" d="M211,570.1h-21.1c-5.8,0-10.6-4.7-10.6-10.6c0-5.8,4.7-10.6,10.6-10.6H211c5.8,0,10.6,4.7,10.6,10.6
	C221.6,565.4,216.9,570.1,211,570.1z"/>
<path fill="#F3CC6D" d="M211,601.8h-21.1c-5.8,0-10.6-4.7-10.6-10.6s4.7-10.6,10.6-10.6H211c5.8,0,10.6,4.7,10.6,10.6
	S216.9,601.8,211,601.8z"/>
<path fill="#F3CC6D" d="M126.6,570.1h-21.1c-5.8,0-10.6-4.7-10.6-10.6c0-5.8,4.7-10.6,10.6-10.6h21.1c5.8,0,10.6,4.7,10.6,10.6
	C137.2,565.4,132.4,570.1,126.6,570.1z"/>
<path fill="#F3CC6D" d="M126.6,601.8h-21.1c-5.8,0-10.6-4.7-10.6-10.6s4.7-10.6,10.6-10.6h21.1c5.8,0,10.6,4.7,10.6,10.6
	S132.4,601.8,126.6,601.8z"/>
<path fill="#38454F" d="M105.5,369.6c-5.8,0-10.6-4.7-10.6-10.6V338c0-5.8,4.7-10.6,10.6-10.6c5.8,0,10.6,4.7,10.6,10.6v21.1
	C116.1,364.9,111.3,369.6,105.5,369.6z"/>
<path fill="#38454F" d="M189.9,432.9c-5.8,0-10.6-4.7-10.6-10.6v-21.1c0-5.8,4.7-10.6,10.6-10.6c5.8,0,10.6,4.7,10.6,10.6v21.1
	C200.5,428.2,195.8,432.9,189.9,432.9z"/>
<rect x="73.9" y="401.3" fill="#333331" width="52.8" height="52.8"/>
<rect x="390.4" y="253.6" fill="#333331" width="105.5" height="105.5"/>
<g>
	<rect x="401" y="221.9" fill="#BFA380" width="21.1" height="31.7"/>
	<rect x="432.6" y="221.9" fill="#BFA380" width="21.1" height="31.7"/>
	<rect x="464.3" y="221.9" fill="#BFA380" width="21.1" height="31.7"/>
	<rect x="401" y="359.1" fill="#BFA380" width="21.1" height="31.7"/>
	<rect x="432.6" y="359.1" fill="#BFA380" width="21.1" height="31.7"/>
	<rect x="464.3" y="359.1" fill="#BFA380" width="21.1" height="31.7"/>
	<rect x="495.9" y="264.1" fill="#BFA380" width="31.7" height="21.1"/>
	<rect x="495.9" y="295.8" fill="#BFA380" width="31.7" height="21.1"/>
	<rect x="495.9" y="327.4" fill="#BFA380" width="31.7" height="21.1"/>
	<rect x="358.8" y="264.1" fill="#BFA380" width="31.7" height="21.1"/>
	<rect x="358.8" y="295.8" fill="#BFA380" width="31.7" height="21.1"/>
	<rect x="358.8" y="327.4" fill="#BFA380" width="31.7" height="21.1"/>
</g>
<rect x="168.8" y="158.6" fill="#353A37" width="42.2" height="242.7"/>
<rect x="84.4" y="158.6" fill="#353A37" width="42.2" height="179.4"/>
<rect x="126.6" y="538.4" fill="#333331" width="63.3" height="73.9"/>
<rect x="274.3" y="538.4" fill="#38454F" width="274.3" height="42.2"/>
<rect x="274.3" y="496.2" fill="#DD352E" width="274.3" height="42.2"/>
<rect x="274.3" y="580.7" fill="#DD352E" width="21.1" height="42.2"/>
<rect x="316.6" y="580.7" fill="#DD352E" width="189.9" height="42.2"/>
<rect x="527.6" y="580.7" fill="#DD352E" width="21.1" height="42.2"/>
<rect x="316.6" y="454" fill="#38454F" width="189.9" height="42.2"/>
<rect x="527.6" y="454" fill="#38454F" width="21.1" height="42.2"/>
<rect x="274.3" y="454" fill="#38454F" width="21.1" height="42.2"/>
<g>
	<polygon fill="#283238" points="295.4,496.2 295.4,580.7 295.4,622.9 316.6,622.9 316.6,580.7 316.6,496.2 316.6,454 295.4,454 	
		"/>
	<polygon fill="#283238" points="506.5,454 506.5,496.2 506.5,580.7 506.5,622.9 527.6,622.9 527.6,580.7 527.6,496.2 527.6,454 	
		"/>
</g>
<path fill="#CBD4D8" d="M284.9,137.5c0-5.8-4.7-10.6-10.6-10.6c-5.8,0-10.6,4.7-10.6,10.6v21.1h21.1V137.5z"/>
<path fill="#CBD4D8" d="M316.6,137.5c0-5.8-4.7-10.6-10.6-10.6s-10.6,4.7-10.6,10.6v21.1h21.1V137.5z"/>
<path fill="#CBD4D8" d="M590.9,137.5c0-5.8-4.7-10.6-10.6-10.6s-10.6,4.7-10.6,10.6v21.1h21.1V137.5z"/>
</svg>
