<?xml version="1.0" encoding="utf-8"?>
<!-- Generator: Adobe Illustrator 18.0.0, SVG Export Plug-In . SVG Version: 6.00 Build 0)  -->
<!DOCTYPE svg PUBLIC "-//W3C//DTD SVG 1.1//EN" "http://www.w3.org/Graphics/SVG/1.1/DTD/svg11.dtd">
<svg version="1.1" id="Layer_1" xmlns="http://www.w3.org/2000/svg" xmlns:xlink="http://www.w3.org/1999/xlink" x="0px" y="0px"
	 viewBox="19.8 16.5 10.4 17.1" enable-background="new 19.8 16.5 10.4 17.1" xml:space="preserve">
<g>
	<g>
		<path d="M26.6,19.7c0.1,0.2,0.1,0.4,0.1,0.7v3.3c0,1-0.7,1.9-1.5,1.9s-1.5-0.8-1.5-1.9v-3.3c0-0.2,0-0.5,0.1-0.7
			c-2.1,0.5-3.6,2.4-3.6,4.7v4.3c0,2.7,2.2,4.8,4.8,4.8h0.3c2.7,0,4.8-2.2,4.8-4.8v-4.3C30.2,22.1,28.6,20.3,26.6,19.7z"/>
		<ellipse cx="25.2" cy="22" rx="0.8" ry="1.5"/>
	</g>
	<g>
		<path d="M25.6,19.7h-0.8c0-1.1-0.6-1.2-2.1-1.2c-1.2,0-2.9,0-2.9-2h0.8c0,1.1,0.6,1.2,2.1,1.2C23.9,17.7,25.6,17.7,25.6,19.7z"/>
	</g>
</g>
</svg>
