<?xml version="1.0" encoding="iso-8859-1"?>
<!-- Generator: Adobe Illustrator 19.0.0, SVG Export Plug-In . SVG Version: 6.00 Build 0)  -->
<svg version="1.1" id="Capa_1" xmlns="http://www.w3.org/2000/svg" xmlns:xlink="http://www.w3.org/1999/xlink" x="0px" y="0px"
	 viewBox="0 0 59 59" style="enable-background:new 0 0 59 59;" xml:space="preserve">
<line style="fill:none;stroke:#283238;stroke-width:2;stroke-linecap:round;stroke-miterlimit:10;" x1="9" y1="23" x2="1" y2="20"/>
<line style="fill:none;stroke:#283238;stroke-width:2;stroke-linecap:round;stroke-miterlimit:10;" x1="9" y1="35" x2="1" y2="32"/>
<rect x="19" y="12" style="fill:#CBD4D8;" width="30" height="14"/>
<rect x="9" y="12" style="fill:#546A79;" width="10" height="47"/>
<rect x="19" y="48" style="fill:#E7ECED;" width="30" height="11"/>
<rect x="19" y="37" style="fill:#FFFFFF;" width="30" height="11"/>
<rect x="19" y="26" style="fill:#E7ECED;" width="30" height="11"/>
<line style="fill:none;stroke:#38454F;stroke-width:2;stroke-linecap:round;stroke-miterlimit:10;" x1="24" y1="4" x2="24" y2="1"/>
<line style="fill:none;stroke:#38454F;stroke-width:2;stroke-linecap:round;stroke-miterlimit:10;" x1="35" y1="4" x2="35" y2="1"/>
<rect x="49" y="24" style="fill:#AFB6BB;" width="10" height="35"/>
<rect x="49" y="15" style="fill:#546A79;" width="10" height="4"/>
<path style="fill:#AFB6BB;" d="M38,41h-8c-0.553,0-1-0.447-1-1s0.447-1,1-1h8c0.553,0,1,0.447,1,1S38.553,41,38,41z"/>
<path style="fill:#AFB6BB;" d="M38,52h-8c-0.553,0-1-0.447-1-1s0.447-1,1-1h8c0.553,0,1,0.447,1,1S38.553,52,38,52z"/>
<line style="fill:none;stroke:#38454F;stroke-width:2;stroke-linecap:round;stroke-miterlimit:10;" x1="24" y1="1" x2="35" y2="1"/>
<rect x="21" y="15" style="fill:#1A9172;" width="9" height="6"/>
<path style="fill:#E7ECED;" d="M35,17h-1c-0.553,0-1-0.447-1-1s0.447-1,1-1h1c0.553,0,1,0.447,1,1S35.553,17,35,17z"/>
<path style="fill:#E7ECED;" d="M35,21h-1c-0.553,0-1-0.447-1-1s0.447-1,1-1h1c0.553,0,1,0.447,1,1S35.553,21,35,21z"/>
<path style="fill:#E7ECED;" d="M39,17h-1c-0.553,0-1-0.447-1-1s0.447-1,1-1h1c0.553,0,1,0.447,1,1S39.553,17,39,17z"/>
<path style="fill:#E7ECED;" d="M39,21h-1c-0.553,0-1-0.447-1-1s0.447-1,1-1h1c0.553,0,1,0.447,1,1S39.553,21,39,21z"/>
<path style="fill:#E7ECED;" d="M43,17h-1c-0.553,0-1-0.447-1-1s0.447-1,1-1h1c0.553,0,1,0.447,1,1S43.553,17,43,17z"/>
<path style="fill:#E7ECED;" d="M43,21h-1c-0.553,0-1-0.447-1-1s0.447-1,1-1h1c0.553,0,1,0.447,1,1S43.553,21,43,21z"/>
<path style="fill:#AFB6BB;" d="M36.678,30h-5.356C30.592,30,30,29.408,30,28.678V26h8v2.678C38,29.408,37.408,30,36.678,30z"/>
<rect x="19" y="4" style="fill:#546A79;" width="30" height="3"/>
<rect x="19" y="9" style="fill:#546A79;" width="30" height="3"/>
<polygon style="fill:#38454F;" points="19,7 19,8 19,9 49,9 49,8 49,7 "/>
<g>
</g>
<g>
</g>
<g>
</g>
<g>
</g>
<g>
</g>
<g>
</g>
<g>
</g>
<g>
</g>
<g>
</g>
<g>
</g>
<g>
</g>
<g>
</g>
<g>
</g>
<g>
</g>
<g>
</g>
</svg>
