<?xml version="1.0" encoding="utf-8"?>
<!-- Generator: Adobe Illustrator 18.0.0, SVG Export Plug-In . SVG Version: 6.00 Build 0)  -->
<!DOCTYPE svg PUBLIC "-//W3C//DTD SVG 1.1//EN" "http://www.w3.org/Graphics/SVG/1.1/DTD/svg11.dtd">
<svg version="1.1" id="Capa_1" xmlns="http://www.w3.org/2000/svg" xmlns:xlink="http://www.w3.org/1999/xlink" x="0px" y="0px"
	 width="612px" height="443.2px" viewBox="0 174.4 612 443.2" enable-background="new 0 174.4 612 443.2" xml:space="preserve">
<path fill="#E7ECED" d="M580.3,585.9V206.8c0-17.9-14.5-32.4-32.4-32.4H64c-17.9,0-32.4,14.5-32.4,32.4v379.2H580.3z"/>
<rect y="585.9" fill="#AFB6BB" width="612" height="31.7"/>
<rect x="63.3" y="206.1" fill="#546A79" width="485.4" height="306"/>
<g>
	<path fill="#839CAA" d="M116.1,311.6c2.7,0,5.4-1,7.5-3.1l42.2-42.2c4.1-4.1,4.1-10.8,0-14.9c-4.1-4.1-10.8-4.1-14.9,0l-42.2,42.2
		c-4.1,4.1-4.1,10.8,0,14.9C110.7,310.6,113.4,311.6,116.1,311.6z"/>
	<path fill="#839CAA" d="M116.1,364.3c2.7,0,5.4-1,7.5-3.1l21.1-21.1c4.1-4.1,4.1-10.8,0-14.9c-4.1-4.1-10.8-4.1-14.9,0l-21.1,21.1
		c-4.1,4.1-4.1,10.8,0,14.9C110.7,363.3,113.4,364.3,116.1,364.3z"/>
	<path fill="#839CAA" d="M150.8,304.1c-1.9,2-3.1,4.6-3.1,7.5s1.2,5.5,3.1,7.5c2,1.9,4.7,3.1,7.5,3.1s5.5-1.2,7.5-3.1
		c1.9-2,3.1-4.7,3.1-7.5c0-2.7-1.2-5.5-3.1-7.5C161.9,300.2,154.7,300.2,150.8,304.1z"/>
	<path fill="#839CAA" d="M171.9,297.9c2.1,2.1,4.8,3.1,7.5,3.1s5.4-1,7.5-3.1l31.7-31.7c4.1-4.1,4.1-10.8,0-14.9
		c-4.1-4.1-10.8-4.1-14.9,0L171.9,283C167.8,287.1,167.8,293.8,171.9,297.9z"/>
	<path fill="#839CAA" d="M203.6,304.1l-95,95c-4.1,4.1-4.1,10.8,0,14.9c2.1,2.1,4.8,3.1,7.5,3.1c2.7,0,5.4-1,7.5-3.1l95-95
		c4.1-4.1,4.1-10.8,0-14.9C214.4,300,207.7,300,203.6,304.1z"/>
	<path fill="#839CAA" d="M224.6,283c-1.9,2-3.1,4.7-3.1,7.5s1.2,5.5,3.1,7.5c2,1.9,4.7,3.1,7.5,3.1s5.5-1.2,7.5-3.1
		c1.9-2,3.1-4.7,3.1-7.5s-1.2-5.5-3.1-7.5C235.7,279.1,228.6,279.1,224.6,283z"/>
	<path fill="#839CAA" d="M271.3,251.4c-4.1-4.1-10.8-4.1-14.9,0l-10.6,10.6c-4.1,4.1-4.1,10.8,0,14.9c2.1,2.1,4.8,3.1,7.5,3.1
		c2.7,0,5.4-1,7.5-3.1l10.6-10.6C275.4,262.2,275.4,255.5,271.3,251.4z"/>
</g>
<path fill="#6C797A" d="M327.1,554.3h-42.2c-5.8,0-10.6-4.7-10.6-10.6s4.7-10.6,10.6-10.6h42.2c5.8,0,10.6,4.7,10.6,10.6
	S332.9,554.3,327.1,554.3z"/>
</svg>
