<?xml version="1.0" encoding="utf-8"?>
<!-- Generator: Adobe Illustrator 18.0.0, SVG Export Plug-In . SVG Version: 6.00 Build 0)  -->
<!DOCTYPE svg PUBLIC "-//W3C//DTD SVG 1.1//EN" "http://www.w3.org/Graphics/SVG/1.1/DTD/svg11.dtd">
<svg version="1.1" id="Capa_1" xmlns="http://www.w3.org/2000/svg" xmlns:xlink="http://www.w3.org/1999/xlink" x="0px" y="0px"
	 width="612px" height="456.4px" viewBox="0 167.8 612 456.4" enable-background="new 0 167.8 612 456.4" xml:space="preserve">
<circle fill="#1081E0" cx="72.6" cy="520.5" r="10.4"/>
<path fill="#28812F" d="M41.5,219.7v331.9h83v41.5h248.9v-41.5H612V219.7H41.5z M580.9,530.8c-5.7,0-10.4-4.6-10.4-10.4
	s4.6-10.4,10.4-10.4c5.7,0,10.4,4.6,10.4,10.4S586.6,530.8,580.9,530.8z M580.9,261.2c-5.7,0-10.4-4.6-10.4-10.4
	c0-5.7,4.6-10.4,10.4-10.4c5.7,0,10.4,4.6,10.4,10.4C591.3,256.5,586.6,261.2,580.9,261.2z"/>
<path fill="#CBD4D8" d="M41.5,167.8H10.4c-5.7,0-10.4,4.6-10.4,10.4s4.6,10.4,10.4,10.4h20.7v425.3c0,5.7,4.6,10.4,10.4,10.4
	s10.4-4.6,10.4-10.4V178.2C51.9,172.4,47.2,167.8,41.5,167.8z"/>
<rect y="250.8" fill="#EBBA16" width="31.1" height="41.5"/>
<rect x="51.9" y="250.8" fill="#38454F" width="41.5" height="41.5"/>
<rect y="323.4" fill="#DC691D" width="31.1" height="41.5"/>
<rect x="51.9" y="323.4" fill="#38454F" width="41.5" height="41.5"/>
<rect y="396" fill="#43B05C" width="31.1" height="41.5"/>
<rect x="51.9" y="396" fill="#38454F" width="41.5" height="41.5"/>
<g>
	<rect x="145.2" y="572.3" fill="#F3CC6D" width="20.7" height="20.7"/>
	<rect x="176.3" y="572.3" fill="#F3CC6D" width="20.7" height="20.7"/>
	<rect x="207.5" y="572.3" fill="#F3CC6D" width="20.7" height="20.7"/>
	<rect x="238.6" y="572.3" fill="#F3CC6D" width="20.7" height="20.7"/>
	<rect x="269.7" y="572.3" fill="#F3CC6D" width="20.7" height="20.7"/>
	<rect x="300.8" y="572.3" fill="#F3CC6D" width="20.7" height="20.7"/>
	<rect x="331.9" y="572.3" fill="#F3CC6D" width="20.7" height="20.7"/>
</g>
<g>
	<rect x="529" y="250.8" fill="#153A17" width="20.7" height="217.8"/>
	<rect x="497.9" y="250.8" fill="#153A17" width="20.7" height="217.8"/>
	<rect x="466.8" y="250.8" fill="#153A17" width="20.7" height="217.8"/>
	<rect x="435.7" y="250.8" fill="#153A17" width="20.7" height="217.8"/>
</g>
<rect x="300.8" y="250.8" fill="#F3CC6D" width="20.7" height="31.1"/>
<rect x="331.9" y="250.8" fill="#F3CC6D" width="20.7" height="31.1"/>
<rect x="363.1" y="250.8" fill="#F3CC6D" width="20.7" height="31.1"/>
<rect x="300.8" y="344.1" fill="#F3CC6D" width="20.7" height="31.1"/>
<rect x="331.9" y="344.1" fill="#F3CC6D" width="20.7" height="31.1"/>
<rect x="363.1" y="344.1" fill="#F3CC6D" width="20.7" height="31.1"/>
<rect x="145.2" y="250.8" fill="#F3CC6D" width="20.7" height="31.1"/>
<rect x="176.3" y="250.8" fill="#F3CC6D" width="20.7" height="31.1"/>
<rect x="207.5" y="250.8" fill="#F3CC6D" width="20.7" height="31.1"/>
<rect x="145.2" y="344.1" fill="#F3CC6D" width="20.7" height="31.1"/>
<rect x="176.3" y="344.1" fill="#F3CC6D" width="20.7" height="31.1"/>
<rect x="207.5" y="344.1" fill="#F3CC6D" width="20.7" height="31.1"/>
<circle fill="#F3CC6D" cx="217.8" cy="396" r="10.4"/>
<circle fill="#F3CC6D" cx="72.6" cy="489.4" r="10.4"/>
<circle fill="#F3CC6D" cx="186.7" cy="396" r="10.4"/>
<circle fill="#F3CC6D" cx="155.6" cy="396" r="10.4"/>
<path fill="#F3CC6D" d="M238.6,458.2h-20.7c-5.7,0-10.4-4.6-10.4-10.4c0-5.7,4.6-10.4,10.4-10.4h20.7c5.7,0,10.4,4.6,10.4,10.4
	C248.9,453.6,244.3,458.2,238.6,458.2z"/>
<path fill="#F3CC6D" d="M238.6,489.4h-20.7c-5.7,0-10.4-4.6-10.4-10.4c0-5.7,4.6-10.4,10.4-10.4h20.7c5.7,0,10.4,4.6,10.4,10.4
	C248.9,484.7,244.3,489.4,238.6,489.4z"/>
<path fill="#F3CC6D" d="M155.6,458.2h-20.7c-5.7,0-10.4-4.6-10.4-10.4c0-5.7,4.6-10.4,10.4-10.4h20.7c5.7,0,10.4,4.6,10.4,10.4
	C166,453.6,161.3,458.2,155.6,458.2z"/>
<path fill="#F3CC6D" d="M155.6,489.4h-20.7c-5.7,0-10.4-4.6-10.4-10.4c0-5.7,4.6-10.4,10.4-10.4h20.7c5.7,0,10.4,4.6,10.4,10.4
	C166,484.7,161.3,489.4,155.6,489.4z"/>
<circle fill="#F3CC6D" cx="373.4" cy="396" r="10.4"/>
<circle fill="#F3CC6D" cx="342.3" cy="396" r="10.4"/>
<circle fill="#F3CC6D" cx="446" cy="499.7" r="10.4"/>
<circle fill="#F3CC6D" cx="477.2" cy="499.7" r="10.4"/>
<circle fill="#F3CC6D" cx="508.3" cy="499.7" r="10.4"/>
<circle fill="#F3CC6D" cx="539.4" cy="499.7" r="10.4"/>
<circle fill="#F3CC6D" cx="311.2" cy="396" r="10.4"/>
<path fill="#F3CC6D" d="M394.2,458.2h-20.7c-5.7,0-10.4-4.6-10.4-10.4c0-5.7,4.6-10.4,10.4-10.4h20.7c5.7,0,10.4,4.6,10.4,10.4
	C404.5,453.6,399.9,458.2,394.2,458.2z"/>
<path fill="#F3CC6D" d="M394.2,489.4h-20.7c-5.7,0-10.4-4.6-10.4-10.4c0-5.7,4.6-10.4,10.4-10.4h20.7c5.7,0,10.4,4.6,10.4,10.4
	C404.5,484.7,399.9,489.4,394.2,489.4z"/>
<path fill="#F3CC6D" d="M311.2,458.2h-20.7c-5.7,0-10.4-4.6-10.4-10.4c0-5.7,4.6-10.4,10.4-10.4h20.7c5.7,0,10.4,4.6,10.4,10.4
	C321.6,453.6,316.9,458.2,311.2,458.2z"/>
<path fill="#F3CC6D" d="M311.2,489.4h-20.7c-5.7,0-10.4-4.6-10.4-10.4c0-5.7,4.6-10.4,10.4-10.4h20.7c5.7,0,10.4,4.6,10.4,10.4
	C321.6,484.7,316.9,489.4,311.2,489.4z"/>
<rect x="290.4" y="281.9" fill="#38454F" width="103.7" height="62.2"/>
<rect x="134.8" y="281.9" fill="#38454F" width="103.7" height="62.2"/>
<rect x="155.6" y="427.1" fill="#38454F" width="62.2" height="72.6"/>
<rect x="311.2" y="427.1" fill="#38454F" width="62.2" height="72.6"/>
</svg>
