<?xml version="1.0" encoding="iso-8859-1"?>
<!-- Generator: Adobe Illustrator 19.0.0, SVG Export Plug-In . SVG Version: 6.00 Build 0)  -->
<svg version="1.1" id="Layer_1" xmlns="http://www.w3.org/2000/svg" xmlns:xlink="http://www.w3.org/1999/xlink" x="0px" y="0px"
	 viewBox="0 0 496.8 496.8" style="enable-background:new 0 0 496.8 496.8;" xml:space="preserve">
<polygon style="fill:#A5BCC4;" points="300.8,440.4 195.2,440.4 213.6,344.4 282.4,344.4 "/>
<polyline style="fill:#8DAAB2;" points="216,344.4 282.4,344.4 302.4,442.8 "/>
<path style="fill:#AFC5CE;" d="M496,337.2c0,16.8-4.8,23.2-23.2,23.2H23.2C4.8,360.4,0,354,0,337.2v-264c0-16.8,12.8-32.8,31.2-32.8
	h434.4c17.6,0,31.2,16,31.2,32.8v264H496z"/>
<path style="fill:#E7EEF2;" d="M496,328.4c0,16.8-4.8,24-23.2,24H23.2c-18.4,0-23.2-8-23.2-24v-264c0-16.8,12.8-32,31.2-32h434.4
	c17.6,0,30.4,15.2,30.4,32V328.4z"/>
<path style="fill:#C9DAE2;" d="M0,64.4c0-16.8,13.6-32,31.2-32h434.4c17.6,0,30.4,15.2,30.4,32v264c0,16.8-4.8,24-23.2,24H216"/>
<g>
	<path style="fill:#00233F;" d="M464.8,32.4H31.2C12.8,32.4,0,47.6,0,64.4v240h496v-240C496,47.6,483.2,32.4,464.8,32.4z"/>
	<polygon style="fill:#00233F;" points="248,325.2 257.6,334.8 263.2,329.2 248,314 232.8,329.2 238.4,334.8 	"/>
</g>
<path style="fill:#97ED69;" d="M480,304.4V75.6c0-13.6-3.2-27.2-16.8-27.2H32.8C19.2,48.4,16,62,16,75.6v228.8H480z"/>
<path style="fill:#87DD50;" d="M480,304.4V75.6c0-13.6-3.2-27.2-16.8-27.2H32.8c-13.6,0-16,13.6-16,26.4"/>
<rect x="16" y="280.4" style="fill:#80D350;" width="464" height="24"/>
<path style="fill:#E7EEF2;" d="M356,452.4c0,5.6,0,12-8.8,12H149.6c-9.6,0-8.8-6.4-8.8-12l0,0c0-5.6,8-12,16.8-12h181.6
	C348,440.4,356,446.8,356,452.4L356,452.4z"/>
<path style="fill:#C9DAE2;" d="M356,453.2L356,453.2c0,5.6,0,11.2-8.8,11.2H149.6c-9.6,0-8.8-5.6-8.8-11.2l0,0"/>
<g>
	<circle style="fill:#E7EEF2;" cx="223.2" cy="392.4" r="3.2"/>
	<circle style="fill:#E7EEF2;" cx="240" cy="392.4" r="3.2"/>
	<circle style="fill:#E7EEF2;" cx="256" cy="392.4" r="3.2"/>
	<circle style="fill:#E7EEF2;" cx="272.8" cy="392.4" r="3.2"/>
	<circle style="fill:#E7EEF2;" cx="223.2" cy="408.4" r="3.2"/>
	<circle style="fill:#E7EEF2;" cx="240" cy="408.4" r="3.2"/>
	<circle style="fill:#E7EEF2;" cx="256" cy="408.4" r="3.2"/>
	<circle style="fill:#E7EEF2;" cx="272.8" cy="408.4" r="3.2"/>
	<circle style="fill:#E7EEF2;" cx="223.2" cy="424.4" r="3.2"/>
	<circle style="fill:#E7EEF2;" cx="240" cy="424.4" r="3.2"/>
	<circle style="fill:#E7EEF2;" cx="256" cy="424.4" r="3.2"/>
	<circle style="fill:#E7EEF2;" cx="272.8" cy="424.4" r="3.2"/>
</g>
<g>
</g>
<g>
</g>
<g>
</g>
<g>
</g>
<g>
</g>
<g>
</g>
<g>
</g>
<g>
</g>
<g>
</g>
<g>
</g>
<g>
</g>
<g>
</g>
<g>
</g>
<g>
</g>
<g>
</g>
</svg>
