<?xml version="1.0" encoding="utf-8"?>
<!-- Generator: Adobe Illustrator 18.0.0, SVG Export Plug-In . SVG Version: 6.00 Build 0)  -->
<!DOCTYPE svg PUBLIC "-//W3C//DTD SVG 1.1//EN" "http://www.w3.org/Graphics/SVG/1.1/DTD/svg11.dtd">
<svg version="1.1" id="Capa_1" xmlns="http://www.w3.org/2000/svg" xmlns:xlink="http://www.w3.org/1999/xlink" x="0px" y="0px"
	 width="612px" height="611.6px" viewBox="0 90.4 612 611.6" enable-background="new 0 90.4 612 611.6" xml:space="preserve">
<g>
	<path fill="#BAB388" d="M372.8,350.6c13,19.1,17.7,43.7,10.9,67.7c-11.8,41.3-53.7,65.9-95.1,56.7c-1.6-0.3-3.2-0.8-4.8-1.2
		c-17.6-5-32.1-15.5-42.3-29.1c-14.7-19.5-20.4-45.5-13.1-70.8c12.2-42.5,56.3-67.3,98.9-55.7c0.3,0.1,0.7,0.2,1,0.3
		C347.1,323.7,362.5,335.5,372.8,350.6z M337.1,404.9c4.9-17.1-5-35-22.2-39.9c-17.2-4.9-35,5-39.9,22.2c-4.9,17.1,5,35,22.2,39.9
		C314.3,432,332.1,422,337.1,404.9z"/>
	<path fill="#EAE8DC" d="M290.1,90.4l0,0.8L16.6,495.1C-3.1,437.9-6,374.4,11.9,311.8C48.8,182.8,163.2,97,290.1,90.4z"/>
	<path fill="#EAE8DC" d="M501.5,160.6c90.4,75.2,133.1,199.3,98.6,319.6c-46.5,162.4-215.8,256.4-378.3,210
		c-21.9-6.3-42.5-14.7-61.7-25.2l1.2-2.3l127.2-187.8c41.4,9.2,83.3-15.4,95.1-56.7c6.9-24,2.1-48.5-10.9-67.7L501.5,160.6z"/>
	<path fill="#E2E0D0" d="M327.2,318.1c0.3,0.1,0.7,0.2,1,0.3c18.9,5.4,34.3,17.1,44.6,32.2l128.7-190
		c-14.2-11.8-29.6-22.5-46.1-31.7c-20.2-11.3-42-20.4-65.2-27c-33.4-9.6-67.2-13.2-100.1-11.5l0,0.8L16.6,495.1
		c18.4,53.6,51.5,101.5,95.8,137.8c0,0,30.7,22.8,47.8,32l1.2-2.3l127.2-187.8c-1.6-0.3-3.2-0.8-4.8-1.2
		c-17.6-5-32.1-15.5-42.3-29.1c-14.7-19.5-20.4-45.5-13.1-70.8C240.5,331.2,284.6,306.5,327.2,318.1z"/>
	<path fill="none" stroke="#000000" stroke-width="20" stroke-linejoin="round" stroke-miterlimit="10" d="M112.3,632.9"/>
</g>
</svg>
