<?xml version="1.0" encoding="utf-8"?>
<!-- Generator: Adobe Illustrator 18.0.0, SVG Export Plug-In . SVG Version: 6.00 Build 0)  -->
<!DOCTYPE svg PUBLIC "-//W3C//DTD SVG 1.1//EN" "http://www.w3.org/Graphics/SVG/1.1/DTD/svg11.dtd">
<svg version="1.1" id="Layer_1" xmlns="http://www.w3.org/2000/svg" xmlns:xlink="http://www.w3.org/1999/xlink" x="0px" y="0px"
	 viewBox="10.6 15.5 28.8 19.1" enable-background="new 10.6 15.5 28.8 19.1" xml:space="preserve">
<g>
	<path d="M31.7,17.3c-1.3,0-2.5,0.3-3.6,0.9c1,1.2,1.8,2.6,2.2,4.1c0.4-0.2,0.9-0.4,1.4-0.4c1.7,0,3.1,1.4,3.1,3.1s-1.4,3.1-3.1,3.1
		c-0.5,0-1-0.1-1.4-0.4c-0.4,1.5-1.2,2.9-2.2,4.1c1.1,0.6,2.3,0.9,3.6,0.9c4.3,0,7.7-3.5,7.7-7.7C39.4,20.7,35.9,17.3,31.7,17.3z"/>
	<path d="M31.7,26.5c-0.4,0-0.8-0.2-1.1-0.5c0,0.4-0.1,0.9-0.2,1.3c0.4,0.2,0.9,0.4,1.3,0.4c1.5,0,2.7-1.2,2.7-2.7
		c0-1.5-1.2-2.7-2.7-2.7c-0.5,0-0.9,0.1-1.3,0.4c0.1,0.4,0.2,0.8,0.2,1.3c0.3-0.3,0.7-0.5,1.1-0.5c0.9,0,1.6,0.7,1.6,1.5
		C33.2,25.9,32.5,26.5,31.7,26.5z"/>
	<path d="M20.1,21.7c-1.8,0-3.3,1.5-3.3,3.3s1.5,3.3,3.3,3.3s3.3-1.5,3.3-3.3S22,21.7,20.1,21.7z M20.1,26.9c-1.1,0-1.9-0.9-1.9-1.9
		s0.9-1.9,1.9-1.9S22,23.9,22,25C22,26.1,21.2,26.9,20.1,26.9z"/>
	<path d="M20.1,15.5c-5.3,0-9.5,4.3-9.5,9.5c0,5.3,4.3,9.5,9.5,9.5s9.5-4.3,9.5-9.5C29.6,19.7,25.4,15.5,20.1,15.5z M20.1,28.8
		c-2.1,0-3.8-1.7-3.8-3.8s1.7-3.8,3.8-3.8s3.8,1.7,3.8,3.8C23.9,27.1,22.2,28.8,20.1,28.8z"/>
</g>
</svg>
