<?xml version="1.0" encoding="iso-8859-1"?>
<!-- Generator: Adobe Illustrator 19.0.0, SVG Export Plug-In . SVG Version: 6.00 Build 0)  -->
<svg version="1.1" id="Capa_1" xmlns="http://www.w3.org/2000/svg" xmlns:xlink="http://www.w3.org/1999/xlink" x="0px" y="0px"
	 viewBox="0 0 58 58" style="enable-background:new 0 0 58 58;" xml:space="preserve">
<path style="fill:#546A79;" d="M54.502,43.75H3.498C1.566,43.75,0,42.184,0,40.252V10.248C0,8.316,1.566,6.75,3.498,6.75h51.003
	C56.434,6.75,58,8.316,58,10.248v30.003C58,42.184,56.434,43.75,54.502,43.75z"/>
<path style="fill:#38454F;" d="M58,38.75H0V10.599C0,10.13,0.38,9.75,0.849,9.75h56.302C57.62,9.75,58,10.13,58,10.599V38.75z"/>
<g>
	<path style="fill:#546A79;" d="M3,17.75c0.256,0,0.512-0.098,0.707-0.293l4-4c0.391-0.391,0.391-1.023,0-1.414
		s-1.023-0.391-1.414,0l-4,4c-0.391,0.391-0.391,1.023,0,1.414C2.488,17.652,2.744,17.75,3,17.75z"/>
	<path style="fill:#546A79;" d="M3,22.75c0.256,0,0.512-0.098,0.707-0.293l2-2c0.391-0.391,0.391-1.023,0-1.414
		s-1.023-0.391-1.414,0l-2,2c-0.391,0.391-0.391,1.023,0,1.414C2.488,22.652,2.744,22.75,3,22.75z"/>
	<path style="fill:#546A79;" d="M6.29,17.04C6.109,17.23,6,17.49,6,17.75c0,0.27,0.109,0.52,0.29,0.71
		c0.189,0.18,0.45,0.29,0.71,0.29s0.52-0.11,0.71-0.29C7.89,18.27,8,18.01,8,17.75c0-0.26-0.11-0.52-0.29-0.71
		C7.33,16.67,6.66,16.67,6.29,17.04z"/>
	<path style="fill:#546A79;" d="M8.293,16.457C8.488,16.652,8.744,16.75,9,16.75s0.512-0.098,0.707-0.293l3-3
		c0.391-0.391,0.391-1.023,0-1.414s-1.023-0.391-1.414,0l-3,3C7.902,15.434,7.902,16.066,8.293,16.457z"/>
	<path style="fill:#546A79;" d="M11.293,17.043l-9,9c-0.391,0.391-0.391,1.023,0,1.414C2.488,27.652,2.744,27.75,3,27.75
		s0.512-0.098,0.707-0.293l9-9c0.391-0.391,0.391-1.023,0-1.414S11.684,16.652,11.293,17.043z"/>
	<path style="fill:#546A79;" d="M13.29,15.04C13.109,15.23,13,15.49,13,15.75c0,0.26,0.109,0.52,0.29,0.71
		c0.189,0.18,0.45,0.29,0.71,0.29s0.52-0.11,0.71-0.29c0.18-0.19,0.29-0.45,0.29-0.71c0-0.26-0.11-0.52-0.29-0.71
		C14.34,14.67,13.649,14.67,13.29,15.04z"/>
	<path style="fill:#546A79;" d="M17.707,12.043c-0.391-0.391-1.023-0.391-1.414,0l-1,1c-0.391,0.391-0.391,1.023,0,1.414
		c0.195,0.195,0.451,0.293,0.707,0.293s0.512-0.098,0.707-0.293l1-1C18.098,13.066,18.098,12.434,17.707,12.043z"/>
</g>
<path style="fill:#AFB6BB;" d="M38.5,46.75H35v-3h-2v3h-8v-3h-2v3h-3.5c-1.93,0-3.5,1.57-3.5,3.5c0,0.552,0.447,1,1,1s1-0.448,1-1
	c0-0.827,0.673-1.5,1.5-1.5H23h12h3.5c0.827,0,1.5,0.673,1.5,1.5c0,0.552,0.447,1,1,1s1-0.448,1-1C42,48.32,40.43,46.75,38.5,46.75z
	"/>
<rect x="28" y="38.75" style="fill:#66808E;" width="2" height="5"/>
<g>
</g>
<g>
</g>
<g>
</g>
<g>
</g>
<g>
</g>
<g>
</g>
<g>
</g>
<g>
</g>
<g>
</g>
<g>
</g>
<g>
</g>
<g>
</g>
<g>
</g>
<g>
</g>
<g>
</g>
</svg>
