<?xml version="1.0" encoding="utf-8"?>
<!-- Generator: Adobe Illustrator 16.0.4, SVG Export Plug-In . SVG Version: 6.00 Build 0)  -->
<!DOCTYPE svg PUBLIC "-//W3C//DTD SVG 1.1//EN" "http://www.w3.org/Graphics/SVG/1.1/DTD/svg11.dtd">
<svg version="1.1" id="Layer_1" xmlns="http://www.w3.org/2000/svg" xmlns:xlink="http://www.w3.org/1999/xlink" x="0px" y="0px"
	 width="50px" height="50px" viewBox="0 0 50 50" enable-background="new 0 0 50 50" xml:space="preserve">
<g>
	<path d="M34.291,24.477h-18.58c-1.095,0-1.991,0.896-1.991,1.99v5.309c0,1.096,0.896,1.992,1.991,1.992h3.34
		c-0.006-0.039-0.022-0.072-0.022-0.111v-2.654c0-0.396,0.323-0.719,0.72-0.719h10.505c0.396,0,0.719,0.324,0.719,0.719v2.654
		c0,0.039-0.016,0.072-0.021,0.111h3.34c1.095,0,1.99-0.896,1.99-1.992v-5.309C36.28,25.373,35.386,24.477,34.291,24.477z
		 M32.963,28.624c-0.458,0-0.829-0.371-0.829-0.83c0-0.458,0.371-0.829,0.829-0.829c0.459,0,0.83,0.371,0.83,0.829
		C33.793,28.253,33.422,28.624,32.963,28.624z"/>
	<rect x="19.691" y="30.947" width="10.617" height="1.41"/>
	<path d="M30.973,20.233l-4-4h-7.943v7.599h11.943V20.233z M27.223,19.983v-3.146l3.146,3.146H27.223z"/>
</g>
</svg>
