<?xml version="1.0" encoding="utf-8"?>
<!-- Generator: Adobe Illustrator 18.0.0, SVG Export Plug-In . SVG Version: 6.00 Build 0)  -->
<!DOCTYPE svg PUBLIC "-//W3C//DTD SVG 1.1//EN" "http://www.w3.org/Graphics/SVG/1.1/DTD/svg11.dtd">
<svg version="1.1" id="Layer_1" xmlns="http://www.w3.org/2000/svg"  x="0px" y="0px"
	 viewBox="13.7 16.2 22.6 17.5" enable-background="new 13.7 16.2 22.6 17.5" xml:space="preserve">
<g>
	<path d="M34.3,24.5H15.7c-1.1,0-2,0.9-2,2v5.3c0,1.1,0.9,2,2,2h3.3c0,0,0-0.1,0-0.1V31c0-0.4,0.3-0.7,0.7-0.7h10.5
		c0.4,0,0.7,0.3,0.7,0.7v2.7c0,0,0,0.1,0,0.1h3.3c1.1,0,2-0.9,2-2v-5.3C36.3,25.4,35.4,24.5,34.3,24.5z M33,28.6
		c-0.5,0-0.8-0.4-0.8-0.8c0-0.5,0.4-0.8,0.8-0.8c0.5,0,0.8,0.4,0.8,0.8C33.8,28.3,33.4,28.6,33,28.6z"/>
	<rect x="19.7" y="30.9" width="10.6" height="1.4"/>
	<path d="M31,20.2l-4-4H19v7.6H31V20.2z M27.2,20v-3.1l3.1,3.1H27.2z"/>
</g>
</svg>
