<?xml version="1.0" encoding="utf-8"?>
<!-- Generator: Adobe Illustrator 18.0.0, SVG Export Plug-In . SVG Version: 6.00 Build 0)  -->
<!DOCTYPE svg PUBLIC "-//W3C//DTD SVG 1.1//EN" "http://www.w3.org/Graphics/SVG/1.1/DTD/svg11.dtd">
<svg version="1.1" id="Capa_1" xmlns="http://www.w3.org/2000/svg" xmlns:xlink="http://www.w3.org/1999/xlink" x="0px" y="0px"
	 width="612px" height="612px" viewBox="0 90 612 612" enable-background="new 0 90 612 612" xml:space="preserve">
<path fill="#38454F" d="M606.8,702H5.2V255.2c0-28.2,22.9-51.1,51.1-51.1h499.4c28.2,0,51.1,22.9,51.1,51.1V702z"/>
<g>
	<path fill="#546A79" d="M492.7,511.1c0-14.9-12.1-27-27-27H146.3c-14.9,0-27,12.1-27,27v76.8h373.4V511.1z"/>
	<rect x="119.3" y="608.6" fill="#546A79" width="373.4" height="93.4"/>
</g>
<path fill="#283238" d="M57,214.5c-4.8,0-9.2-3.4-10.2-8.3c-1.1-5.6,2.5-11.1,8.1-12.2L573.7,90.2c5.7-1.2,11.1,2.5,12.2,8.1
	c1.1,5.6-2.5,11.1-8.1,12.2L59.1,214.3C58.4,214.4,57.7,214.5,57,214.5z"/>
<line fill="none" stroke="#283238" stroke-width="2" stroke-linecap="round" stroke-miterlimit="10" x1="223" y1="421.9" x2="378.6" y2="421.9"/>
<path fill="#546A79" d="M555.7,204.1H56.3c-28.2,0-51.1,22.9-51.1,51.1v114.9h601.6V255.2C606.8,227,583.9,204.1,555.7,204.1z"/>
<rect x="57.1" y="245.6" fill="#21C6F7" width="207.5" height="83"/>
<circle fill="#61B872" cx="523.8" cy="287.1" r="31.1"/>
<path fill="#CBD4D8" d="M326.7,276.7h-10.4c-5.7,0-10.4-4.6-10.4-10.4c0-5.7,4.6-10.4,10.4-10.4h10.4c5.7,0,10.4,4.6,10.4,10.4
	C337.1,272.1,332.5,276.7,326.7,276.7z"/>
<path fill="#CBD4D8" d="M326.7,318.2h-10.4c-5.7,0-10.4-4.6-10.4-10.4c0-5.7,4.6-10.4,10.4-10.4h10.4c5.7,0,10.4,4.6,10.4,10.4
	C337.1,313.6,332.5,318.2,326.7,318.2z"/>
<path fill="#CBD4D8" d="M378.6,276.7h-10.4c-5.7,0-10.4-4.6-10.4-10.4c0-5.7,4.6-10.4,10.4-10.4h10.4c5.7,0,10.4,4.6,10.4,10.4
	C389,272.1,384.3,276.7,378.6,276.7z"/>
<path fill="#CBD4D8" d="M378.6,318.2h-10.4c-5.7,0-10.4-4.6-10.4-10.4c0-5.7,4.6-10.4,10.4-10.4h10.4c5.7,0,10.4,4.6,10.4,10.4
	C389,313.6,384.3,318.2,378.6,318.2z"/>
<path fill="#283238" d="M346.8,525.7h-81.5c-6.1,0-11.1-5-11.1-11.1v-30.4h103.7v30.4C357.9,520.7,352.9,525.7,346.8,525.7z"/>
<path fill="#283238" d="M346.8,650.1h-81.5c-6.1,0-11.1-5-11.1-11.1v-30.4h103.7V639C357.9,645.2,352.9,650.1,346.8,650.1z"/>
</svg>
