<?xml version="1.0" encoding="utf-8"?>
<!-- Generator: Adobe Illustrator 18.0.0, SVG Export Plug-In . SVG Version: 6.00 Build 0)  -->
<!DOCTYPE svg PUBLIC "-//W3C//DTD SVG 1.1//EN" "http://www.w3.org/Graphics/SVG/1.1/DTD/svg11.dtd">
<svg version="1.1" id="Capa_1" xmlns="http://www.w3.org/2000/svg" xmlns:xlink="http://www.w3.org/1999/xlink" x="0px" y="0px"
	 width="612px" height="612px" viewBox="0 90 612 612" enable-background="new 0 90 612 612" xml:space="preserve">
<g>
	<path fill="#ECD361" d="M580.3,258.8c-5.8,0-10.6,4.7-10.6,10.6c0,5.8,4.7,10.6,10.6,10.6H612v-21.1H580.3z"/>
	<path fill="#ECD361" d="M569.8,301c0,5.8,4.7,10.6,10.6,10.6H612v-21.1h-31.7C574.5,290.5,569.8,295.2,569.8,301z"/>
	<path fill="#ECD361" d="M569.8,332.7c0,5.8,4.7,10.6,10.6,10.6H612v-21.1h-31.7C574.5,322.1,569.8,326.9,569.8,332.7z"/>
	<path fill="#ECD361" d="M569.8,364.3c0,5.8,4.7,10.6,10.6,10.6H612v-21.1h-31.7C574.5,353.8,569.8,358.5,569.8,364.3z"/>
	<path fill="#ECD361" d="M569.8,396c0,5.8,4.7,10.6,10.6,10.6H612v-21.1h-31.7C574.5,385.4,569.8,390.2,569.8,396z"/>
	<path fill="#ECD361" d="M569.8,427.7c0,5.8,4.7,10.6,10.6,10.6H612v-21.1h-31.7C574.5,417.1,569.8,421.8,569.8,427.7z"/>
	<path fill="#ECD361" d="M569.8,459.3c0,5.8,4.7,10.6,10.6,10.6H612v-21.1h-31.7C574.5,448.8,569.8,453.5,569.8,459.3z"/>
	<path fill="#ECD361" d="M569.8,491c0,5.8,4.7,10.6,10.6,10.6H612v-21.1h-31.7C574.5,480.4,569.8,485.1,569.8,491z"/>
	<path fill="#ECD361" d="M569.8,522.6c0,5.8,4.7,10.6,10.6,10.6H612v-21.1h-31.7C574.5,512.1,569.8,516.8,569.8,522.6z"/>
</g>
<path fill="#5E5E60" d="M580.3,258.8H612V137.5c0-26.2-21.3-47.5-47.5-47.5h-79.1c0,23.3-18.9,42.2-42.2,42.2S401,113.3,401,90H47.5
	C21.3,90,0,111.3,0,137.5v58h42.2v42.2H0v416.8C0,680.7,21.3,702,47.5,702H401c0-23.3,18.9-42.2,42.2-42.2s42.2,18.9,42.2,42.2h79.1
	c26.2,0,47.5-21.3,47.5-47.5V533.2h-31.7c-5.8,0-10.6-4.7-10.6-10.6c0-5.8,4.7-10.6,10.6-10.6H612v-10.6h-31.7
	c-5.8,0-10.6-4.7-10.6-10.6c0-5.8,4.7-10.6,10.6-10.6H612v-10.6h-31.7c-5.8,0-10.6-4.7-10.6-10.6s4.7-10.6,10.6-10.6H612v-10.6
	h-31.7c-5.8,0-10.6-4.7-10.6-10.6s4.7-10.6,10.6-10.6H612v-10.6h-31.7c-5.8,0-10.6-4.7-10.6-10.6c0-5.8,4.7-10.6,10.6-10.6H612
	v-10.6h-31.7c-5.8,0-10.6-4.7-10.6-10.6c0-5.8,4.7-10.6,10.6-10.6H612v-10.6h-31.7c-5.8,0-10.6-4.7-10.6-10.6
	c0-5.8,4.7-10.6,10.6-10.6H612v-10.6h-31.7c-5.8,0-10.6-4.7-10.6-10.6c0-5.8,4.7-10.6,10.6-10.6H612v-10.6h-31.7
	c-5.8,0-10.6-4.7-10.6-10.6C569.8,263.5,574.5,258.8,580.3,258.8z M42.2,670.3c-5.8,0-10.6-4.7-10.6-10.6c0-5.8,4.7-10.6,10.6-10.6
	s10.6,4.7,10.6,10.6C52.8,665.6,48,670.3,42.2,670.3z M42.2,142.8c-5.8,0-10.6-4.7-10.6-10.6c0-5.8,4.7-10.6,10.6-10.6
	s10.6,4.7,10.6,10.6C52.8,138,48,142.8,42.2,142.8z M580.3,659.8c0,5.8-4.7,10.6-10.6,10.6c-5.8,0-10.6-4.7-10.6-10.6
	c0-5.8,4.7-10.6,10.6-10.6C575.6,649.2,580.3,654,580.3,659.8z M559.2,132.2c0-5.8,4.7-10.6,10.6-10.6c5.8,0,10.6,4.7,10.6,10.6
	c0,5.8-4.7,10.6-10.6,10.6C564,142.8,559.2,138,559.2,132.2z"/>
<path fill="#38454F" d="M158.3,508.3V283.7c0-19.6,15.9-35.4,35.4-35.4h224.6c19.6,0,35.4,15.9,35.4,35.4v224.6
	c0,19.6-15.9,35.4-35.4,35.4H193.7C174.1,543.7,158.3,527.9,158.3,508.3z"/>
<g>
	<path fill="#ECD361" d="M116.1,322.1H84.4c-5.8,0-10.6,4.7-10.6,10.6c0,5.8,4.7,10.6,10.6,10.6h31.7c5.8,0,10.6-4.7,10.6-10.6
		C126.6,326.9,121.9,322.1,116.1,322.1z"/>
	<path fill="#ECD361" d="M116.1,448.8H84.4c-5.8,0-10.6,4.7-10.6,10.6s4.7,10.6,10.6,10.6h31.7c5.8,0,10.6-4.7,10.6-10.6
		S121.9,448.8,116.1,448.8z"/>
	<path fill="#ECD361" d="M116.1,406.6H84.4c-5.8,0-10.6,4.7-10.6,10.6c0,5.8,4.7,10.6,10.6,10.6h31.7c5.8,0,10.6-4.7,10.6-10.6
		C126.6,411.3,121.9,406.6,116.1,406.6z"/>
	<path fill="#ECD361" d="M116.1,364.3H84.4c-5.8,0-10.6,4.7-10.6,10.6c0,5.8,4.7,10.6,10.6,10.6h31.7c5.8,0,10.6-4.7,10.6-10.6
		C126.6,369.1,121.9,364.3,116.1,364.3z"/>
	<path fill="#ECD361" d="M495.9,343.2h31.7c5.8,0,10.6-4.7,10.6-10.6c0-5.8-4.7-10.6-10.6-10.6h-31.7c-5.8,0-10.6,4.7-10.6,10.6
		C485.4,338.5,490.1,343.2,495.9,343.2z"/>
	<path fill="#ECD361" d="M527.6,448.8h-31.7c-5.8,0-10.6,4.7-10.6,10.6s4.7,10.6,10.6,10.6h31.7c5.8,0,10.6-4.7,10.6-10.6
		S533.4,448.8,527.6,448.8z"/>
	<path fill="#ECD361" d="M527.6,406.6h-31.7c-5.8,0-10.6,4.7-10.6,10.6c0,5.8,4.7,10.6,10.6,10.6h31.7c5.8,0,10.6-4.7,10.6-10.6
		C538.1,411.3,533.4,406.6,527.6,406.6z"/>
	<path fill="#ECD361" d="M527.6,364.3h-31.7c-5.8,0-10.6,4.7-10.6,10.6c0,5.8,4.7,10.6,10.6,10.6h31.7c5.8,0,10.6-4.7,10.6-10.6
		C538.1,369.1,533.4,364.3,527.6,364.3z"/>
	<path fill="#ECD361" d="M369.3,163.9c-5.8,0-10.6,4.7-10.6,10.6v31.7c0,5.8,4.7,10.6,10.6,10.6c5.8,0,10.6-4.7,10.6-10.6v-31.7
		C379.9,168.6,375.1,163.9,369.3,163.9z"/>
	<path fill="#ECD361" d="M242.7,163.9c-5.8,0-10.6,4.7-10.6,10.6v31.7c0,5.8,4.7,10.6,10.6,10.6s10.6-4.7,10.6-10.6v-31.7
		C253.2,168.6,248.5,163.9,242.7,163.9z"/>
	<path fill="#ECD361" d="M284.9,163.9c-5.8,0-10.6,4.7-10.6,10.6v31.7c0,5.8,4.7,10.6,10.6,10.6c5.8,0,10.6-4.7,10.6-10.6v-31.7
		C295.4,168.6,290.7,163.9,284.9,163.9z"/>
	<path fill="#ECD361" d="M327.1,163.9c-5.8,0-10.6,4.7-10.6,10.6v31.7c0,5.8,4.7,10.6,10.6,10.6s10.6-4.7,10.6-10.6v-31.7
		C337.7,168.6,332.9,163.9,327.1,163.9z"/>
	<path fill="#ECD361" d="M369.3,575.4c-5.8,0-10.6,4.7-10.6,10.6v31.7c0,5.8,4.7,10.6,10.6,10.6c5.8,0,10.6-4.7,10.6-10.6v-31.7
		C379.9,580.1,375.1,575.4,369.3,575.4z"/>
	<path fill="#ECD361" d="M242.7,575.4c-5.8,0-10.6,4.7-10.6,10.6v31.7c0,5.8,4.7,10.6,10.6,10.6s10.6-4.7,10.6-10.6v-31.7
		C253.2,580.1,248.5,575.4,242.7,575.4z"/>
	<path fill="#ECD361" d="M284.9,575.4c-5.8,0-10.6,4.7-10.6,10.6v31.7c0,5.8,4.7,10.6,10.6,10.6c5.8,0,10.6-4.7,10.6-10.6v-31.7
		C295.4,580.1,290.7,575.4,284.9,575.4z"/>
	<path fill="#ECD361" d="M327.1,575.4c-5.8,0-10.6,4.7-10.6,10.6v31.7c0,5.8,4.7,10.6,10.6,10.6s10.6-4.7,10.6-10.6v-31.7
		C337.7,580.1,332.9,575.4,327.1,575.4z"/>
</g>
<circle fill="#ECD361" cx="31.7" cy="469.9" r="10.6"/>
<circle fill="#ECD361" cx="31.7" cy="512.1" r="10.6"/>
<circle fill="#ECD361" cx="31.7" cy="554.3" r="10.6"/>
<circle fill="#ECD361" cx="31.7" cy="596.5" r="10.6"/>
<g>
	<circle fill="#546A79" cx="390.4" cy="491" r="10.6"/>
	<circle fill="#546A79" cx="348.2" cy="491" r="10.6"/>
	<circle fill="#546A79" cx="369.3" cy="459.3" r="10.6"/>
	<circle fill="#546A79" cx="306" cy="491" r="10.6"/>
	<circle fill="#546A79" cx="263.8" cy="491" r="10.6"/>
	<circle fill="#546A79" cx="327.1" cy="459.3" r="10.6"/>
	<circle fill="#546A79" cx="284.9" cy="459.3" r="10.6"/>
	<circle fill="#546A79" cx="221.6" cy="491" r="10.6"/>
	<circle fill="#546A79" cx="242.7" cy="459.3" r="10.6"/>
	<circle fill="#546A79" cx="390.4" cy="427.7" r="10.6"/>
	<circle fill="#546A79" cx="348.2" cy="427.7" r="10.6"/>
	<circle fill="#546A79" cx="369.3" cy="396" r="10.6"/>
	<circle fill="#546A79" cx="306" cy="427.7" r="10.6"/>
	<circle fill="#546A79" cx="263.8" cy="427.7" r="10.6"/>
	<circle fill="#546A79" cx="327.1" cy="396" r="10.6"/>
	<circle fill="#546A79" cx="284.9" cy="396" r="10.6"/>
	<circle fill="#546A79" cx="221.6" cy="427.7" r="10.6"/>
	<circle fill="#546A79" cx="242.7" cy="396" r="10.6"/>
	<circle fill="#546A79" cx="390.4" cy="364.3" r="10.6"/>
	<circle fill="#546A79" cx="348.2" cy="364.3" r="10.6"/>
	<circle fill="#546A79" cx="369.3" cy="332.7" r="10.6"/>
	<circle fill="#546A79" cx="306" cy="364.3" r="10.6"/>
	<circle fill="#546A79" cx="263.8" cy="364.3" r="10.6"/>
	<circle fill="#546A79" cx="327.1" cy="332.7" r="10.6"/>
	<circle fill="#546A79" cx="284.9" cy="332.7" r="10.6"/>
	<circle fill="#546A79" cx="221.6" cy="364.3" r="10.6"/>
	<circle fill="#546A79" cx="242.7" cy="332.7" r="10.6"/>
	<circle fill="#546A79" cx="390.4" cy="301" r="10.6"/>
	<circle fill="#546A79" cx="348.2" cy="301" r="10.6"/>
	<circle fill="#546A79" cx="306" cy="301" r="10.6"/>
	<circle fill="#546A79" cx="263.8" cy="301" r="10.6"/>
	<circle fill="#546A79" cx="221.6" cy="301" r="10.6"/>
</g>
<circle fill="#ECD361" cx="105.5" cy="670.3" r="10.6"/>
<circle fill="#ECD361" cx="147.7" cy="670.3" r="10.6"/>
<circle fill="#ECD361" cx="189.9" cy="670.3" r="10.6"/>
<circle fill="#ECD361" cx="232.1" cy="670.3" r="10.6"/>
<rect x="221.6" y="206.1" fill="#CBD4D8" width="168.8" height="42.2"/>
<rect x="221.6" y="543.7" fill="#CBD4D8" width="168.8" height="42.2"/>
<rect x="453.7" y="311.6" fill="#CBD4D8" width="42.2" height="168.8"/>
<rect x="116.1" y="311.6" fill="#CBD4D8" width="42.2" height="168.8"/>
</svg>
