<?xml version="1.0" encoding="utf-8"?>
<!-- Generator: Adobe Illustrator 18.0.0, SVG Export Plug-In . SVG Version: 6.00 Build 0)  -->
<!DOCTYPE svg PUBLIC "-//W3C//DTD SVG 1.1//EN" "http://www.w3.org/Graphics/SVG/1.1/DTD/svg11.dtd">
<svg version="1.1" id="Capa_1" xmlns="http://www.w3.org/2000/svg" xmlns:xlink="http://www.w3.org/1999/xlink" x="0px" y="0px"
	 width="327.1px" height="612px" viewBox="142.4 90 327.1 612" enable-background="new 142.4 90 327.1 612" xml:space="preserve">
<path fill="#28812F" d="M290.2,90c0,17.5-14.2,31.7-31.7,31.7s-31.7-14.2-31.7-31.7h-31.7v612h31.7c0-17.5,14.2-31.7,31.7-31.7
	s31.7,14.2,31.7,31.7h157.3c12.2,0,22.1-9.9,22.1-22.1V112.1c0-12.2-9.9-22.1-22.1-22.1H290.2z M418.1,669.6
	c-19.6,4.7-36.9-12.5-32.2-32.2c2.2-9.2,9.8-16.8,19-19c19.6-4.7,36.9,12.5,32.1,32.2C434.9,659.8,427.3,667.3,418.1,669.6z
	 M418.1,173.6c-19.6,4.7-36.9-12.5-32.2-32.2c2.2-9.2,9.8-16.8,19-19c19.6-4.7,36.9,12.5,32.1,32.2
	C434.9,163.8,427.3,171.4,418.1,173.6z"/>
<g>
	<rect x="406.2" y="195.5" fill="#ECD361" width="63.3" height="21.1"/>
	<rect x="406.2" y="227.2" fill="#ECD361" width="63.3" height="21.1"/>
	<rect x="406.2" y="258.8" fill="#ECD361" width="63.3" height="21.1"/>
	<rect x="406.2" y="290.5" fill="#ECD361" width="63.3" height="21.1"/>
	<rect x="406.2" y="322.1" fill="#ECD361" width="63.3" height="21.1"/>
	<rect x="406.2" y="353.8" fill="#ECD361" width="63.3" height="21.1"/>
	<rect x="406.2" y="385.4" fill="#ECD361" width="63.3" height="21.1"/>
	<rect x="406.2" y="417.1" fill="#ECD361" width="63.3" height="21.1"/>
	<rect x="406.2" y="448.8" fill="#ECD361" width="63.3" height="21.1"/>
	<rect x="406.2" y="480.4" fill="#ECD361" width="63.3" height="21.1"/>
	<rect x="406.2" y="512.1" fill="#ECD361" width="63.3" height="21.1"/>
	<rect x="406.2" y="543.7" fill="#ECD361" width="63.3" height="21.1"/>
	<rect x="406.2" y="575.4" fill="#ECD361" width="63.3" height="21.1"/>
</g>
<rect x="237.4" y="174.4" fill="#38454F" width="105.5" height="63.3"/>
<rect x="237.4" y="554.3" fill="#38454F" width="105.5" height="63.3"/>
<rect x="237.4" y="364.3" fill="#38454F" width="105.5" height="63.3"/>
<g>
	<rect x="248" y="142.8" fill="#ECD361" width="21.1" height="31.7"/>
	<rect x="279.6" y="142.8" fill="#ECD361" width="21.1" height="31.7"/>
	<rect x="311.3" y="142.8" fill="#ECD361" width="21.1" height="31.7"/>
	<rect x="248" y="237.7" fill="#ECD361" width="21.1" height="31.7"/>
	<rect x="279.6" y="237.7" fill="#ECD361" width="21.1" height="31.7"/>
	<rect x="311.3" y="237.7" fill="#ECD361" width="21.1" height="31.7"/>
	<rect x="248" y="522.6" fill="#ECD361" width="21.1" height="31.7"/>
	<rect x="279.6" y="522.6" fill="#ECD361" width="21.1" height="31.7"/>
	<rect x="311.3" y="522.6" fill="#ECD361" width="21.1" height="31.7"/>
	<rect x="248" y="617.6" fill="#ECD361" width="21.1" height="31.7"/>
	<rect x="279.6" y="617.6" fill="#ECD361" width="21.1" height="31.7"/>
	<rect x="311.3" y="617.6" fill="#ECD361" width="21.1" height="31.7"/>
	<rect x="248" y="332.7" fill="#ECD361" width="21.1" height="31.7"/>
	<rect x="279.6" y="332.7" fill="#ECD361" width="21.1" height="31.7"/>
	<rect x="311.3" y="332.7" fill="#ECD361" width="21.1" height="31.7"/>
	<rect x="248" y="427.7" fill="#ECD361" width="21.1" height="31.7"/>
	<rect x="279.6" y="427.7" fill="#ECD361" width="21.1" height="31.7"/>
	<rect x="311.3" y="427.7" fill="#ECD361" width="21.1" height="31.7"/>
</g>
<polygon fill="#283238" points="163.6,121.7 163.6,670.3 142.4,670.3 142.4,702 195.2,702 195.2,90 142.4,90 142.4,121.7 "/>
</svg>
