<?xml version="1.0" encoding="iso-8859-1"?>
<!-- Generator: Adobe Illustrator 18.0.0, SVG Export Plug-In . SVG Version: 6.00 Build 0)  -->
<!DOCTYPE svg PUBLIC "-//W3C//DTD SVG 1.1//EN" "http://www.w3.org/Graphics/SVG/1.1/DTD/svg11.dtd">
<svg version="1.1" id="Capa_1" xmlns="http://www.w3.org/2000/svg" xmlns:xlink="http://www.w3.org/1999/xlink" x="0px" y="0px"
	 viewBox="0 0 262.309 262.309" style="enable-background:new 0 0 262.309 262.309;" xml:space="preserve">
<path d="M259.809,84.362H2.5c-1.381,0-2.5,1.119-2.5,2.5v24.5c0,1.381,1.119,2.5,2.5,2.5h10.761c3.033,0,5.5,2.468,5.5,5.5
	c0,3.032-2.467,5.5-5.5,5.5H2.5c-1.381,0-2.5,1.119-2.5,2.5v9.502c0,1.381,1.119,2.5,2.5,2.5h10.761c3.033,0,5.5,2.468,5.5,5.5
	c0,3.032-2.467,5.5-5.5,5.5H2.5c-1.381,0-2.5,1.119-2.5,2.5v11.998c0,1.381,1.119,2.5,2.5,2.5v10.584h122.827v-10.584h11.654v10.584
	h122.827v-10.584c1.381,0,2.5-1.119,2.5-2.5v-11.998c0-1.381-1.119-2.5-2.5-2.5h-10.761c-3.033,0-5.5-2.468-5.5-5.5
	c0-3.032,2.467-5.5,5.5-5.5h10.761c1.381,0,2.5-1.119,2.5-2.5v-9.502c0-1.381-1.119-2.5-2.5-2.5h-10.761c-3.033,0-5.5-2.468-5.5-5.5
	c0-3.032,2.467-5.5,5.5-5.5h10.761c1.381,0,2.5-1.119,2.5-2.5v-24.5C262.309,85.481,261.189,84.362,259.809,84.362z M17.979,173.862
	h-6.123v-9h6.123V173.862z M244.33,164.862h6.125v9h-6.125V164.862z M30.229,173.862h-6.125v-9h6.125V173.862z M42.478,173.862
	h-6.124v-9h6.124V173.862z M54.727,173.862h-6.125v-9h6.125V173.862z M66.976,173.862h-6.125v-9h6.125V173.862z M79.224,173.862
	H73.1v-9h6.124V173.862z M91.473,173.862h-6.124v-9h6.124V173.862z M103.722,173.862h-6.124v-9h6.124V173.862z M115.971,173.862
	h-6.124v-9h6.124V173.862z M36.945,145.529v-42.917h188.418v42.917H36.945z M152.464,173.862h-6.125v-9h6.125V173.862z
	 M164.713,173.862h-6.125v-9h6.125V173.862z M176.962,173.862h-6.125v-9h6.125V173.862z M189.211,173.862h-6.125v-9h6.125V173.862z
	 M201.46,173.862h-6.125v-9h6.125V173.862z M213.709,173.862h-6.125v-9h6.125V173.862z M225.957,173.862h-6.125v-9h6.125V173.862z
	 M238.205,173.862h-6.123v-9h6.123V173.862z M177.773,124.296h10.592v15.043h-4.698v-3.297c-2.336,2.335-5.056,3.503-8.161,3.503
	c-1.923,0-3.729-0.385-5.419-1.154c-1.69-0.768-3.16-1.826-4.41-3.173c-1.251-1.347-2.239-2.933-2.968-4.761
	c-0.729-1.827-1.092-3.798-1.092-5.914c0-2.006,0.363-3.895,1.092-5.667c0.729-1.773,1.731-3.324,3.01-4.657
	c1.277-1.332,2.781-2.391,4.512-3.174c1.731-0.783,3.613-1.175,5.646-1.175c2.748,0,5.104,0.577,7.068,1.731
	c1.965,1.154,3.441,2.707,4.431,4.657l-4.245,3.132c-0.742-1.455-1.779-2.568-3.111-3.338c-1.333-0.769-2.782-1.154-4.348-1.154
	c-1.236,0-2.371,0.262-3.4,0.783c-1.031,0.522-1.91,1.236-2.639,2.144c-0.727,0.906-1.291,1.951-1.689,3.132
	c-0.398,1.182-0.598,2.432-0.598,3.751c0,1.374,0.22,2.658,0.66,3.853c0.439,1.195,1.043,2.232,1.813,3.111
	c0.77,0.88,1.684,1.573,2.741,2.081c1.058,0.509,2.205,0.763,3.441,0.763c2.829,0,5.385-1.332,7.666-3.998v-2.061h-5.894V124.296z
	 M211.362,124.337c1.374-0.604,2.417-1.531,3.132-2.782c0.715-1.25,1.072-2.589,1.072-4.019c0-0.906-0.158-1.806-0.475-2.699
	c-0.315-0.893-0.762-1.689-1.339-2.391c-0.577-0.7-1.278-1.271-2.103-1.71c-0.824-0.439-1.744-0.66-2.761-0.66h-15.661v29.263
	h14.137c1.291,0,2.506-0.165,3.646-0.494c1.141-0.33,2.144-0.811,3.01-1.443c0.865-0.631,1.545-1.414,2.039-2.349
	c0.495-0.934,0.742-2.02,0.742-3.256c0-1.923-0.488-3.524-1.463-4.802C214.363,125.718,213.038,124.831,211.362,124.337z
	 M198.916,114.939h7.83c0.907,0,1.67,0.33,2.287,0.989c0.619,0.66,0.928,1.553,0.928,2.68c0,1.153-0.336,2.061-1.01,2.72
	c-0.674,0.659-1.49,0.989-2.452,0.989h-7.583V114.939z M210.785,132.209c-0.192,0.468-0.453,0.872-0.783,1.216
	c-0.329,0.344-0.721,0.611-1.174,0.804c-0.453,0.192-0.941,0.288-1.463,0.288h-8.449v-7.707h8.737c0.495,0,0.948,0.104,1.36,0.31
	c0.412,0.206,0.769,0.487,1.071,0.845c0.302,0.357,0.542,0.776,0.722,1.257c0.178,0.481,0.268,0.982,0.268,1.504
	C211.074,131.247,210.977,131.742,210.785,132.209z"/>
<g>
</g>
<g>
</g>
<g>
</g>
<g>
</g>
<g>
</g>
<g>
</g>
<g>
</g>
<g>
</g>
<g>
</g>
<g>
</g>
<g>
</g>
<g>
</g>
<g>
</g>
<g>
</g>
<g>
</g>
</svg>
