<?xml version="1.0" encoding="iso-8859-1"?>
<!-- Generator: Adobe Illustrator 19.0.0, SVG Export Plug-In . SVG Version: 6.00 Build 0)  -->
<svg version="1.1" id="Layer_1" xmlns="http://www.w3.org/2000/svg" xmlns:xlink="http://www.w3.org/1999/xlink" x="0px" y="0px"
	 viewBox="0 0 496.8 496.8" style="enable-background:new 0 0 496.8 496.8;" xml:space="preserve">
<g>
	<path style="fill:#5C605F;" d="M180,362.8c3.2,8,2.4,16-2.4,17.6l-23.2,8.8c-4,1.6-10.4-3.2-13.6-11.2l-88-252.8
		c-3.2-8-2.4-16,2.4-17.6l8-3.2c4-1.6,10.4,3.2,13.6,11.2L180,362.8z"/>
	<path style="fill:#5C605F;" d="M292.8,362.8c-3.2,8-2.4,16,2.4,17.6l23.2,8.8c4,1.6,10.4-3.2,13.6-11.2l88.8-252
		c3.2-8,2.4-16-2.4-17.6l-8-3.2c-4-1.6-10.4,3.2-13.6,11.2L292.8,362.8z"/>
	<path style="fill:#5C605F;" d="M256.8,322c0,8.8-4,14.4-8,14.4H224c-4.8,0-8-6.4-8-14.4l8-266.4c0-8.8,4-15.2,8-15.2h8
		c4.8,0,8,6.4,8,14.4L256.8,322z"/>
</g>
<path style="fill:#AFBCB8;" d="M496,440.4c0,8.8-7.2,16-16.8,16H16.8c-9.6,0-16.8-6.4-16.8-16V338.8c0-9.6,7.2-18.4,16.8-18.4H480
	c8.8,0,16.8,8.8,16.8,18.4v101.6H496z"/>
<path style="fill:#98A39F;" d="M16,320.4h463.2c8.8,0,16.8,8.8,16.8,18.4v101.6c0,8.8-8,16-16.8,16"/>
<rect y="352.4" style="fill:#363F3E;" width="496" height="72"/>
<polyline style="fill:#112827;" points="496,424.4 496,352.4 0,352.4 "/>
<circle style="fill:#FF48A4;" cx="69.6" cy="390" r="11.2"/>
<path style="fill:#EF187A;" d="M76.8,397.2c-4,4-11.2,4-15.2,0s-4-11.2,0-15.2"/>
<circle style="fill:#4AFFA8;" cx="120.8" cy="390" r="11.2"/>
<path style="fill:#36E88F;" d="M128,397.2c-4,4-11.2,4-15.2,0s-4-11.2,0-15.2"/>
<circle style="fill:#E8C018;" cx="171.2" cy="390" r="11.2"/>
<path style="fill:#D6AF07;" d="M179.2,397.2c-4,4-11.2,4-15.2,0s-4-11.2,0-15.2"/>
<circle style="fill:#E8C018;" cx="222.4" cy="390" r="11.2"/>
<path style="fill:#D6AF07;" d="M230.4,397.2c-4,4-11.2,4-15.2,0s-4-11.2,0-15.2"/>
<circle style="fill:#E8C018;" cx="273.6" cy="390" r="11.2"/>
<path style="fill:#D6AF07;" d="M281.6,397.2c-4,4-11.2,4-15.2,0s-4-11.2,0-15.2"/>
<circle style="fill:#E8C018;" cx="324.8" cy="390" r="11.2"/>
<path style="fill:#D6AF07;" d="M332,397.2c-4,4-11.2,4-15.2,0s-4-11.2,0-15.2"/>
<circle style="fill:#E8C018;" cx="375.2" cy="390" r="11.2"/>
<path style="fill:#D6AF07;" d="M383.2,397.2c-4,4-11.2,4-15.2,0s-4-11.2,0-15.2"/>
<circle style="fill:#E8C018;" cx="426.4" cy="390" r="11.2"/>
<path style="fill:#D6AF07;" d="M434.4,397.2c-4,4-11.2,4-15.2,0s-4-11.2,0-15.2"/>
<g>
</g>
<g>
</g>
<g>
</g>
<g>
</g>
<g>
</g>
<g>
</g>
<g>
</g>
<g>
</g>
<g>
</g>
<g>
</g>
<g>
</g>
<g>
</g>
<g>
</g>
<g>
</g>
<g>
</g>
</svg>
