<?xml version="1.0" encoding="iso-8859-1"?>
<!-- Generator: Adobe Illustrator 18.0.0, SVG Export Plug-In . SVG Version: 6.00 Build 0)  -->
<!DOCTYPE svg PUBLIC "-//W3C//DTD SVG 1.1//EN" "http://www.w3.org/Graphics/SVG/1.1/DTD/svg11.dtd">
<svg version="1.1" id="Capa_1" xmlns="http://www.w3.org/2000/svg" xmlns:xlink="http://www.w3.org/1999/xlink" x="0px" y="0px"
	 viewBox="0 0 222 222" style="enable-background:new 0 0 222 222;" xml:space="preserve">
<path d="M52,222h118c2.761,0,5-2.239,5-5V5c0-2.761-2.239-5-5-5H52c-2.761,0-5,2.239-5,5v212C47,219.761,49.239,222,52,222z
	 M111,210.234c-4.142,0-7.5-3.358-7.5-7.5s3.358-7.5,7.5-7.5c4.142,0,7.5,3.358,7.5,7.5S115.142,210.234,111,210.234z M98.5,16h25
	v6.25h-25V16z M61.344,35.875h99.313v150.25H61.344V35.875z"/>
<g>
</g>
<g>
</g>
<g>
</g>
<g>
</g>
<g>
</g>
<g>
</g>
<g>
</g>
<g>
</g>
<g>
</g>
<g>
</g>
<g>
</g>
<g>
</g>
<g>
</g>
<g>
</g>
<g>
</g>
</svg>
