<?xml version="1.0" encoding="utf-8"?>
<!-- Generator: Adobe Illustrator 18.0.0, SVG Export Plug-In . SVG Version: 6.00 Build 0)  -->
<!DOCTYPE svg PUBLIC "-//W3C//DTD SVG 1.1//EN" "http://www.w3.org/Graphics/SVG/1.1/DTD/svg11.dtd">
<svg version="1.1" id="Capa_1" xmlns="http://www.w3.org/2000/svg" xmlns:xlink="http://www.w3.org/1999/xlink" x="0px" y="0px"
	 width="358.8px" height="612px" viewBox="126.6 90 358.8 612" enable-background="new 126.6 90 358.8 612" xml:space="preserve">
<rect x="126.6" y="90" fill="#CBD4D8" width="358.8" height="612"/>
<rect x="126.6" y="90" fill="#7383BF" width="358.8" height="506.5"/>
<circle fill="#546A79" cx="232.1" cy="649.2" r="10.6"/>
<path fill="#AFB6BB" d="M337.7,659.8h-63.3c-5.8,0-10.6-4.7-10.6-10.6s4.7-10.6,10.6-10.6h63.3c5.8,0,10.6,4.7,10.6,10.6
	S343.5,659.8,337.7,659.8z"/>
<path fill="#546A79" d="M390.4,659.8h-10.6c-5.8,0-10.6-4.7-10.6-10.6s4.7-10.6,10.6-10.6h10.6c5.8,0,10.6,4.7,10.6,10.6
	S396.2,659.8,390.4,659.8z"/>
<g>
	<path fill="#869BDB" d="M158.3,174.4c2.7,0,5.4-1,7.5-3.1l42.2-42.2c4.1-4.1,4.1-10.8,0-14.9s-10.8-4.1-14.9,0l-42.2,42.2
		c-4.1,4.1-4.1,10.8,0,14.9C152.9,173.4,155.6,174.4,158.3,174.4z"/>
	<path fill="#869BDB" d="M158.3,227.2c2.7,0,5.4-1,7.5-3.1l21.1-21.1c4.1-4.1,4.1-10.8,0-14.9s-10.8-4.1-14.9,0l-21.1,21.1
		c-4.1,4.1-4.1,10.8,0,14.9C152.9,226.1,155.6,227.2,158.3,227.2z"/>
	<path fill="#869BDB" d="M193,166.9c-1.9,2-3.1,4.7-3.1,7.5c0,2.7,1.2,5.5,3.1,7.5c2,1.9,4.6,3.1,7.5,3.1c2.7,0,5.5-1.2,7.5-3.1
		c1.9-2,3.1-4.7,3.1-7.5c0-2.7-1.2-5.5-3.1-7.5C204.1,163,196.9,163,193,166.9z"/>
	<path fill="#869BDB" d="M214.1,160.8c2.1,2.1,4.8,3.1,7.5,3.1s5.4-1,7.5-3.1l31.7-31.7c4.1-4.1,4.1-10.8,0-14.9s-10.8-4.1-14.9,0
		l-31.7,31.7C210,150,210,156.6,214.1,160.8z"/>
	<path fill="#869BDB" d="M245.8,167l-95,95c-4.1,4.1-4.1,10.8,0,14.9c2.1,2.1,4.8,3.1,7.5,3.1c2.7,0,5.4-1,7.5-3.1l95-95
		c4.1-4.1,4.1-10.8,0-14.9S249.9,162.8,245.8,167z"/>
	<path fill="#869BDB" d="M266.9,145.8c-1.9,2-3.1,4.6-3.1,7.5c0,2.8,1.2,5.5,3.1,7.5c2,1.9,4.7,3.1,7.5,3.1c2.7,0,5.5-1.2,7.5-3.1
		c1.9-2,3.1-4.7,3.1-7.5s-1.2-5.5-3.1-7.5C277.9,141.9,270.8,141.9,266.9,145.8z"/>
	<path fill="#869BDB" d="M313.5,114.2c-4.1-4.1-10.8-4.1-14.9,0L288,124.7c-4.1,4.1-4.1,10.8,0,14.9c2.1,2.1,4.8,3.1,7.5,3.1
		c2.7,0,5.4-1,7.5-3.1l10.6-10.6C317.6,125,317.6,118.3,313.5,114.2z"/>
</g>
</svg>
