<?xml version="1.0" encoding="utf-8"?>
<!-- Generator: Adobe Illustrator 18.0.0, SVG Export Plug-In . SVG Version: 6.00 Build 0)  -->
<!DOCTYPE svg PUBLIC "-//W3C//DTD SVG 1.1//EN" "http://www.w3.org/Graphics/SVG/1.1/DTD/svg11.dtd">
<svg version="1.1" id="Capa_1" xmlns="http://www.w3.org/2000/svg"  x="0px" y="0px"
	 viewBox="271 0 738 1280" enable-background="new 271 0 738 1280" xml:space="preserve">
<path d="M299.8,1280h680.4c15.9,0,28.8-12.9,28.8-28.8V28.8C1009,12.9,996.1,0,980.2,0H299.8C283.9,0,271,12.9,271,28.8v1222.3
	C271,1267.1,283.9,1280,299.8,1280z M640,1212.2c-23.9,0-43.2-19.4-43.2-43.2c0-23.9,19.4-43.2,43.2-43.2s43.2,19.4,43.2,43.2
	C683.2,1192.8,663.9,1212.2,640,1212.2z M567.9,92.3h144.1v36H567.9V92.3z M353.7,206.8h572.6v866.3H353.7V206.8z"/>
</svg>
