<?xml version="1.0" encoding="utf-8"?>
<!-- Generator: Adobe Illustrator 18.0.0, SVG Export Plug-In . SVG Version: 6.00 Build 0)  -->
<!DOCTYPE svg PUBLIC "-//W3C//DTD SVG 1.1//EN" "http://www.w3.org/Graphics/SVG/1.1/DTD/svg11.dtd">
<svg version="1.1" id="Layer_1" xmlns="http://www.w3.org/2000/svg" xmlns:xlink="http://www.w3.org/1999/xlink" x="0px" y="0px"
	 width="612px" height="632.5px" viewBox="0 0 612 632.5" enable-background="new 0 0 612 632.5" xml:space="preserve">
<path fill="#EAC113" d="M177.4,617.7c0,7.9-6.9,14.8-14.8,14.8l0,0c-7.9,0-14.8-6.9-14.8-14.8V174.3c0-7.9,6.9-14.8,14.8-14.8l0,0
	c7.9,0,14.8,6.9,14.8,14.8V617.7z"/>
<path fill="#E8A615" d="M162.6,159.5L162.6,159.5c7.9,0,14.8,5.9,14.8,13.8v445.4c0,7.9-6.9,13.8-14.8,13.8l0,0"/>
<path fill="#EAC113" d="M78.8,617.7c0,7.9-6.9,14.8-14.8,14.8l0,0c-7.9,0-14.8-6.9-14.8-14.8V174.3c0-7.9,6.9-14.8,14.8-14.8l0,0
	c7.9,0,14.8,6.9,14.8,14.8V617.7z"/>
<path fill="#E8A615" d="M64.1,159.5L64.1,159.5c7.9,0,14.8,5.9,14.8,13.8v445.4c0,7.9-6.9,13.8-14.8,13.8l0,0"/>
<path fill="#EAC113" d="M275.9,617.7c0,7.9-6.9,14.8-14.8,14.8l0,0c-7.9,0-14.8-6.9-14.8-14.8V174.3c0-7.9,6.9-14.8,14.8-14.8l0,0
	c7.9,0,14.8,6.9,14.8,14.8V617.7z"/>
<path fill="#E8A615" d="M261.2,159.5L261.2,159.5c7.9,0,14.8,5.9,14.8,13.8v445.4c0,7.9-6.9,13.8-14.8,13.8l0,0"/>
<path fill="#EAC113" d="M374.5,617.7c0,7.9-6.9,14.8-14.8,14.8l0,0c-7.9,0-14.8-6.9-14.8-14.8V174.3c0-7.9,6.9-14.8,14.8-14.8l0,0
	c7.9,0,14.8,6.9,14.8,14.8V617.7z"/>
<path fill="#E8A615" d="M359.7,159.5L359.7,159.5c7.9,0,14.8,5.9,14.8,13.8v445.4c0,7.9-6.9,13.8-14.8,13.8l0,0"/>
<path fill="#EAC113" d="M473,617.7c0,7.9-6.9,14.8-14.8,14.8l0,0c-7.9,0-14.8-6.9-14.8-14.8V174.3c0-7.9,6.9-14.8,14.8-14.8l0,0
	c7.9,0,14.8,6.9,14.8,14.8V617.7z"/>
<path fill="#E8A615" d="M458.3,159.5L458.3,159.5c7.9,0,14.8,5.9,14.8,13.8v445.4c0,7.9-6.9,13.8-14.8,13.8l0,0"/>
<path fill="#EAC113" d="M571.6,617.7c0,7.9-6.9,14.8-14.8,14.8l0,0c-7.9,0-14.8-6.9-14.8-14.8V174.3c0-7.9,6.9-14.8,14.8-14.8l0,0
	c7.9,0,14.8,6.9,14.8,14.8V617.7z"/>
<path fill="#E8A615" d="M556.8,159.5L556.8,159.5c7.9,0,14.8,5.9,14.8,13.8v445.4c0,7.9-6.9,13.8-14.8,13.8l0,0"/>
<path fill="#62C106" d="M611,541.9c0,16.8-13.8,31.5-31.5,31.5H31.5C13.8,573.4,0,559.6,0,541.9V250.1c0-17.7,13.8-31.5,31.5-31.5
	h548.9c16.8,0,31.5,13.8,31.5,31.5v291.7H611z"/>
<path fill="#56B502" d="M0,251.1c0-16.8,13.8-32.5,31.5-32.5h548.9c16.8,0,31.5,16.8,31.5,34.5v289.7c0,16.8-13.8,31.5-31.5,31.5"/>
<path fill="#51A500" d="M571.6,503.4c0,12.8-12.8,20.7-25.6,20.7H65c-12.8,0-25.6-6.9-25.6-20.7V288.6c0-13.8,12.8-20.7,25.6-20.7
	H546c12.8,0,25.6,6.9,25.6,20.7L571.6,503.4L571.6,503.4z"/>
<path fill="#4C9300" d="M39.4,288.6c0-13.8,12.8-20.7,25.6-20.7H546c12.8,0,25.6,6.9,25.6,20.7v215.8c0,12.8-12.8,20.7-25.6,20.7"/>
<g>
	<polygon fill="#62C106" points="207,484.7 128.1,484.7 128.1,307.3 88.7,307.3 88.7,297.4 138,297.4 138,474.8 197.1,474.8 
		197.1,405.9 285.8,405.9 285.8,415.7 207,415.7 	"/>
	<circle fill="#62C106" cx="82.8" cy="305.3" r="13.8"/>
	<path fill="#62C106" d="M301.6,415.7c0,7.9-5.9,13.8-13.8,13.8c-7.9,0-13.8-5.9-13.8-13.8c0-7.9,5.9-13.8,13.8-13.8
		C295.7,401.9,301.6,407.8,301.6,415.7z"/>
</g>
<polygon fill="#56B502" points="463.2,287.6 532.2,287.6 532.2,465 581.4,465 581.4,474.8 522.3,474.8 522.3,297.4 473,297.4 
	473,366.4 384.3,366.4 384.3,356.6 463.2,356.6 "/>
<g>
	<circle fill="#62C106" cx="378.4" cy="365.4" r="13.8"/>
	<polygon fill="#62C106" points="275.9,287.6 344.9,287.6 344.9,465 384.3,465 384.3,474.8 335.1,474.8 335.1,297.4 285.8,297.4 
		285.8,366.4 187.2,366.4 187.2,356.6 275.9,356.6 	"/>
	<circle fill="#62C106" cx="395.2" cy="474.8" r="13.8"/>
	<circle fill="#62C106" cx="190.2" cy="365.4" r="13.8"/>
</g>
<g>
	<path d="M609.2,2c-1.8-1.6-4.1-2.3-6.5-2l-255.2,33c-4.1,0.5-7.2,4-7.2,8.2v49.5v34.7v208.9c-15-18.1-38.9-29.8-65.8-29.8
		c-45.4,0-82.3,33.2-82.3,74.1s36.9,74.1,82.3,74.1s82.3-33.2,82.3-74.1c0-1.9-0.2-3.8-0.3-5.7c0.1-0.5,0.3-1,0.3-1.6V132.7
		l238.7-30.9V252c-15-18.1-38.9-29.8-65.8-29.8c-45.4,0-82.3,33.2-82.3,74.1c0,40.9,36.9,74.1,82.3,74.1c45,0,81.6-32.6,82.3-73
		c0-0.1,0.1-0.2,0.1-0.3V92.4V57.7V8.2C612,5.9,611,3.6,609.2,2z"/>
	<g>
	</g>
	<g>
	</g>
	<g>
	</g>
	<g>
	</g>
	<g>
	</g>
	<g>
	</g>
	<g>
	</g>
	<g>
	</g>
	<g>
	</g>
	<g>
	</g>
	<g>
	</g>
	<g>
	</g>
	<g>
	</g>
	<g>
	</g>
	<g>
	</g>
</g>
</svg>
