<?xml version="1.0" encoding="utf-8"?>
<!-- Generator: Adobe Illustrator 18.0.0, SVG Export Plug-In . SVG Version: 6.00 Build 0)  -->
<!DOCTYPE svg PUBLIC "-//W3C//DTD SVG 1.1//EN" "http://www.w3.org/Graphics/SVG/1.1/DTD/svg11.dtd">
<svg version="1.1" id="Capa_1" xmlns="http://www.w3.org/2000/svg" xmlns:xlink="http://www.w3.org/1999/xlink" x="0px" y="0px"
	 width="612px" height="422.1px" viewBox="0 185 612 422.1" enable-background="new 0 185 612 422.1" xml:space="preserve">
<path fill="#38454F" d="M578.5,607H33.5C15,607,0,592,0,573.5v-355C0,200,15,185,33.5,185h544.9c18.5,0,33.5,15,33.5,33.5v355
	C612,592,597,607,578.5,607z"/>
<rect x="42.2" y="227.2" fill="#546A79" width="527.6" height="316.6"/>
<path fill="#FFFFFF" d="M327.1,585.9h-42.2c-5.8,0-10.6-4.7-10.6-10.6s4.7-10.6,10.6-10.6h42.2c5.8,0,10.6,4.7,10.6,10.6
	S332.9,585.9,327.1,585.9z"/>
<g>
	<path fill="#839CAA" d="M84.4,322.1c2.7,0,5.4-1,7.5-3.1l42.2-42.2c4.1-4.1,4.1-10.8,0-14.9c-4.1-4.1-10.8-4.1-14.9,0L77,304.1
		c-4.1,4.1-4.1,10.8,0,14.9C79,321.1,81.7,322.1,84.4,322.1z"/>
	<path fill="#839CAA" d="M84.4,374.9c2.7,0,5.4-1,7.5-3.1l21.1-21.1c4.1-4.1,4.1-10.8,0-14.9c-4.1-4.1-10.8-4.1-14.9,0L77,356.9
		c-4.1,4.1-4.1,10.8,0,14.9C79,373.9,81.7,374.9,84.4,374.9z"/>
	<path fill="#839CAA" d="M119.1,314.6c-1.9,2-3.1,4.6-3.1,7.5s1.2,5.5,3.1,7.5c2,1.9,4.7,3.1,7.5,3.1s5.5-1.2,7.5-3.1
		c1.9-2,3.1-4.6,3.1-7.5c0-2.7-1.2-5.5-3.1-7.5C130.1,310.7,123,310.7,119.1,314.6z"/>
	<path fill="#839CAA" d="M140.3,308.5c2.1,2.1,4.8,3.1,7.5,3.1c2.7,0,5.4-1,7.5-3.1l31.7-31.7c4.1-4.1,4.1-10.8,0-14.9
		s-10.8-4.1-14.9,0l-31.7,31.7C136.1,297.7,136.1,304.4,140.3,308.5z"/>
	<path fill="#839CAA" d="M171.9,314.7l-95,95c-4.1,4.1-4.1,10.8,0,14.9c2.1,2.1,4.8,3.1,7.5,3.1c2.7,0,5.4-1,7.5-3.1l95-95
		c4.1-4.1,4.1-10.8,0-14.9C182.7,310.6,176,310.6,171.9,314.7z"/>
	<path fill="#839CAA" d="M193,293.5c-1.9,2-3.1,4.7-3.1,7.5s1.2,5.5,3.1,7.5c2,1.9,4.7,3.1,7.5,3.1c2.7,0,5.5-1.2,7.5-3.1
		c1.9-2,3.1-4.7,3.1-7.5s-1.2-5.5-3.1-7.5C204.1,289.6,197,289.6,193,293.5z"/>
	<path fill="#839CAA" d="M239.6,261.9c-4.1-4.1-10.8-4.1-14.9,0l-10.6,10.6c-4.1,4.1-4.1,10.8,0,14.9c2.1,2.1,4.8,3.1,7.5,3.1
		s5.4-1,7.5-3.1l10.6-10.6C243.7,272.7,243.7,266,239.6,261.9z"/>
</g>
</svg>
