<?xml version="1.0" encoding="iso-8859-1"?>
<!-- Generator: Adobe Illustrator 19.0.0, SVG Export Plug-In . SVG Version: 6.00 Build 0)  -->
<svg version="1.1" id="Capa_1" xmlns="http://www.w3.org/2000/svg" xmlns:xlink="http://www.w3.org/1999/xlink" x="0px" y="0px"
	 viewBox="0 0 58 58" style="enable-background:new 0 0 58 58;" xml:space="preserve">
<rect y="1" style="fill:#AFB6BB;" width="58" height="40"/>
<path style="fill:#38454F;" d="M32,49.073v3.06C32,52.611,31.611,53,31.132,53h-4.264C26.389,53,26,52.611,26,52.132v-3.06
	C18.599,49.424,13,51.047,13,53c0,2.209,7.163,4,16,4s16-1.791,16-4C45,51.047,39.401,49.424,32,49.073z"/>
<path style="fill:#546A79;" d="M31.132,53h-4.264C26.389,53,26,52.611,26,52.132V41h6v11.132C32,52.611,31.611,53,31.132,53z"/>
<rect y="5" style="fill:#546A79;" width="58" height="32"/>
<g>
	<path style="fill:#839CAA;" d="M4,14c0.256,0,0.512-0.098,0.707-0.293l4-4c0.391-0.391,0.391-1.023,0-1.414s-1.023-0.391-1.414,0
		l-4,4c-0.391,0.391-0.391,1.023,0,1.414C3.488,13.902,3.744,14,4,14z"/>
	<path style="fill:#839CAA;" d="M4,19c0.256,0,0.512-0.098,0.707-0.293l2-2c0.391-0.391,0.391-1.023,0-1.414s-1.023-0.391-1.414,0
		l-2,2c-0.391,0.391-0.391,1.023,0,1.414C3.488,18.902,3.744,19,4,19z"/>
	<path style="fill:#839CAA;" d="M7.29,13.29C7.11,13.48,7,13.74,7,14c0,0.27,0.11,0.52,0.29,0.71C7.48,14.89,7.73,15,8,15
		c0.26,0,0.52-0.11,0.71-0.29C8.89,14.52,9,14.26,9,14c0-0.26-0.11-0.52-0.29-0.71C8.33,12.92,7.66,12.92,7.29,13.29z"/>
	<path style="fill:#839CAA;" d="M9.293,12.707C9.488,12.902,9.744,13,10,13s0.512-0.098,0.707-0.293l3-3
		c0.391-0.391,0.391-1.023,0-1.414s-1.023-0.391-1.414,0l-3,3C8.902,11.684,8.902,12.316,9.293,12.707z"/>
	<path style="fill:#839CAA;" d="M12.293,13.293l-9,9c-0.391,0.391-0.391,1.023,0,1.414C3.488,23.902,3.744,24,4,24
		s0.512-0.098,0.707-0.293l9-9c0.391-0.391,0.391-1.023,0-1.414S12.684,12.902,12.293,13.293z"/>
	<path style="fill:#839CAA;" d="M14.29,11.29C14.11,11.48,14,11.74,14,12c0,0.26,0.11,0.52,0.29,0.71C14.48,12.89,14.74,13,15,13
		c0.26,0,0.52-0.11,0.71-0.29C15.89,12.52,16,12.26,16,12c0-0.27-0.11-0.52-0.29-0.71C15.34,10.92,14.66,10.92,14.29,11.29z"/>
	<path style="fill:#839CAA;" d="M18.707,8.293c-0.391-0.391-1.023-0.391-1.414,0l-1,1c-0.391,0.391-0.391,1.023,0,1.414
		C16.488,10.902,16.744,11,17,11s0.512-0.098,0.707-0.293l1-1C19.098,9.316,19.098,8.684,18.707,8.293z"/>
</g>
<g>
</g>
<g>
</g>
<g>
</g>
<g>
</g>
<g>
</g>
<g>
</g>
<g>
</g>
<g>
</g>
<g>
</g>
<g>
</g>
<g>
</g>
<g>
</g>
<g>
</g>
<g>
</g>
<g>
</g>
</svg>
