<?xml version="1.0" encoding="iso-8859-1"?>
<!-- Generator: Adobe Illustrator 19.0.0, SVG Export Plug-In . SVG Version: 6.00 Build 0)  -->
<svg version="1.1" id="Layer_1" xmlns="http://www.w3.org/2000/svg" xmlns:xlink="http://www.w3.org/1999/xlink" x="0px" y="0px"
	 viewBox="0 0 493.2 493.2" style="enable-background:new 0 0 493.2 493.2;" xml:space="preserve">
<path style="fill:#D1DBD6;" d="M270.4,434c0,12.8-11.2,24-24,24l0,0c-12.8,0-24-10.4-24-24V334c0-12.8,11.2-24,24-24l0,0
	c12.8,0,24,10.4,24,24V434z"/>
<path style="fill:#BDC6C1;" d="M246.4,310L246.4,310c12.8,0,24,10.4,24,24v100.8c0,12.8-10.4,24-24,24l0,0"/>
<circle style="fill:#00A6F9;" cx="246.4" cy="168.4" r="168"/>
<path style="fill:#ACB7B1;" d="M246.4,310c-12.8,0-24,10.4-24,24v42.4c8,0.8,16,1.6,24,1.6s16-0.8,24-1.6V334
	C270.4,320.4,259.2,310,246.4,310z"/>
<path style="fill:#008CF4;" d="M364.8,286.8c-65.6,65.6-172,65.6-237.6,0"/>
<path style="fill:#0099F7;" d="M128,49.2c65.6-65.6,172-65.6,237.6,0s65.6,172,0,237.6"/>
<circle style="fill:#008CF4;" cx="246.4" cy="184.4" r="96.8"/>
<circle style="fill:#363F3E;" cx="246.4" cy="168.4" r="96.8"/>
<path style="fill:#151918;" d="M177.6,99.6c37.6-37.6,99.2-37.6,137.6,0c37.6,37.6,37.6,99.2,0,137.6"/>
<circle style="fill:#1BCEB8;" cx="246.4" cy="168.4" r="67.2"/>
<path style="fill:#07ADAD;" d="M179.2,168.4c0-37.6,30.4-67.2,67.2-67.2c37.6,0,67.2,30.4,67.2,68"/>
<circle style="fill:#1BCEB8;" cx="246.4" cy="168.4" r="45.6"/>
<path style="fill:#07ADAD;" d="M246.4,122c25.6,0,45.6,20.8,45.6,45.6s-20.8,45.6-45.6,45.6"/>
<circle style="fill:#FF48A4;" cx="246.4" cy="40.4" r="11.2"/>
<path style="fill:#EF187A;" d="M254.4,47.6c-4,4-11.2,4-15.2,0s-4-11.2,0-15.2"/>
<g>
	<circle style="fill:#7DEADA;" cx="225.6" cy="146" r="10.4"/>
	<circle style="fill:#7DEADA;" cx="228.8" cy="171.6" r="1.6"/>
	<circle style="fill:#7DEADA;" cx="240" cy="162.8" r="2.4"/>
	<circle style="fill:#7DEADA;" cx="282.4" cy="192.4" r="10.4"/>
</g>
<path style="fill:#00A6F9;" d="M383.2,493.2c-22.4-40-75.2-67.2-136.8-67.2S132,453.2,109.6,493.2H383.2z"/>
<path style="fill:#008CF4;" d="M383.2,493.2c-22.4-40-75.2-67.2-136.8-67.2s-75.2,27.2-96.8,67.2H383.2z"/>
<g>
</g>
<g>
</g>
<g>
</g>
<g>
</g>
<g>
</g>
<g>
</g>
<g>
</g>
<g>
</g>
<g>
</g>
<g>
</g>
<g>
</g>
<g>
</g>
<g>
</g>
<g>
</g>
<g>
</g>
</svg>
