<?xml version="1.0" encoding="UTF-8" standalone="no"?>
<!DOCTYPE svg PUBLIC "-//W3C//DTD SVG 1.1//EN"
 "http://www.w3.org/Graphics/SVG/1.1/DTD/svg11.dtd">
<!-- Generated by graphviz version 2.38.0 (20140413.2041)
 -->
<!-- Title: %3 Pages: 1 -->
<svg width="814pt" height="1023pt"
 viewBox="0.00 0.00 813.71 1023.00" xmlns="http://www.w3.org/2000/svg" xmlns:xlink="http://www.w3.org/1999/xlink">
<g id="graph0" class="graph" transform="scale(1 1) rotate(0) translate(409.714 497.5)">
<title>%3</title>
<polygon fill="white" stroke="none" points="-409.714,525.5 -409.714,-497.5 404,-497.5 404,525.5 -409.714,525.5"/>
<!-- devices:EventWithDevices -->
<g id="node1" class="node"><title>devices:EventWithDevices</title>
<polygon fill="none" stroke="black" points="-233.527,-73 -233.527,-117 -66.4731,-117 -66.4731,-73 -233.527,-73"/>
<text text-anchor="middle" x="-150" y="-101.8" font-family="Times,serif" font-size="14.00">devices:EventWithDevices</text>
<polyline fill="none" stroke="black" points="-233.527,-95 -66.4731,-95 "/>
<text text-anchor="middle" x="-150" y="-79.8" font-family="Times,serif" font-size="14.00">+ devices: list</text>
</g>
<!-- devices:ToRepair -->
<g id="node3" class="node"><title>devices:ToRepair</title>
<polygon fill="none" stroke="black" points="-261.88,269 -261.88,225 -148.12,225 -148.12,269 -261.88,269"/>
<text text-anchor="middle" x="-205" y="240.2" font-family="Times,serif" font-size="14.00">devices:ToRepair</text>
<polyline fill="none" stroke="black" points="-261.88,247 -148.12,247 "/>
<text text-anchor="middle" x="-205" y="262.2" font-family="Times,serif" font-size="14.00"> </text>
</g>
<!-- devices:EventWithDevices&#45;&gt;devices:ToRepair -->
<g id="edge2" class="edge"><title>devices:EventWithDevices&#45;&gt;devices:ToRepair</title>
<path fill="none" stroke="black" d="M-147.332,-62.8559C-146.19,-47.5299 -144.99,-28.9303 -144.427,-12.2 -143.675,10.1874 -141.276,16.0228 -144.427,38.2 -154.359,108.08 -182.102,187.282 -196.335,224.901"/>
<polygon fill="none" stroke="black" points="-150.826,-62.6403 -148.106,-72.8799 -143.847,-63.1789 -150.826,-62.6403"/>
</g>
<!-- devices:Deallocate -->
<g id="node4" class="node"><title>devices:Deallocate</title>
<polygon fill="none" stroke="black" points="-333.508,-389 -333.508,-447 -66.4922,-447 -66.4922,-389 -333.508,-389"/>
<text text-anchor="middle" x="-200" y="-431.8" font-family="Times,serif" font-size="14.00">devices:Deallocate</text>
<polyline fill="none" stroke="black" points="-333.508,-425 -66.4922,-425 "/>
<text text-anchor="start" x="-325.508" y="-409.8" font-family="Times,serif" font-size="14.00">+ fromOrganization: string [0..1] (read&#45;only)</text>
<text text-anchor="middle" x="-200" y="-395.8" font-family="Times,serif" font-size="14.00">+ components: list [0..1] (read&#45;only)</text>
</g>
<!-- devices:EventWithDevices&#45;&gt;devices:Deallocate -->
<g id="edge4" class="edge"><title>devices:EventWithDevices&#45;&gt;devices:Deallocate</title>
<path fill="none" stroke="black" d="M-168.166,-126.19C-176.006,-141.267 -184.38,-159.933 -188.798,-177.8 -207.135,-251.963 -204.98,-342.839 -202.26,-388.636"/>
<polygon fill="none" stroke="black" points="-165.042,-127.771 -163.393,-117.306 -171.209,-124.459 -165.042,-127.771"/>
</g>
<!-- devices:Ready -->
<g id="node6" class="node"><title>devices:Ready</title>
<polygon fill="none" stroke="black" points="-163.817,-281 -163.817,-325 -66.1826,-325 -66.1826,-281 -163.817,-281"/>
<text text-anchor="middle" x="-115" y="-309.8" font-family="Times,serif" font-size="14.00">devices:Ready</text>
<polyline fill="none" stroke="black" points="-163.817,-303 -66.1826,-303 "/>
<text text-anchor="middle" x="-115" y="-287.8" font-family="Times,serif" font-size="14.00"> </text>
</g>
<!-- devices:EventWithDevices&#45;&gt;devices:Ready -->
<g id="edge5" class="edge"><title>devices:EventWithDevices&#45;&gt;devices:Ready</title>
<path fill="none" stroke="black" d="M-170.662,-125.922C-186.253,-153.329 -202.761,-194.165 -188.798,-228.2 -180.142,-249.297 -162.345,-267.625 -146.397,-280.858"/>
<polygon fill="none" stroke="black" points="-167.561,-127.555 -165.455,-117.171 -173.577,-123.975 -167.561,-127.555"/>
</g>
<!-- devices:Locate -->
<g id="node7" class="node"><title>devices:Locate</title>
<polygon fill="none" stroke="black" points="118.076,475 118.076,417 337.924,417 337.924,475 118.076,475"/>
<text text-anchor="middle" x="228" y="432.2" font-family="Times,serif" font-size="14.00">devices:Locate</text>
<polyline fill="none" stroke="black" points="118.076,439 337.924,439 "/>
<text text-anchor="start" x="126.076" y="454.2" font-family="Times,serif" font-size="14.00">+ components: list [0..1] (read&#45;only)</text>
<text text-anchor="middle" x="228" y="468.2" font-family="Times,serif" font-size="14.00">+ geo: point [0..1]</text>
</g>
<!-- devices:EventWithDevices&#45;&gt;devices:Locate -->
<g id="edge7" class="edge"><title>devices:EventWithDevices&#45;&gt;devices:Locate</title>
<path fill="none" stroke="black" d="M-56.5335,-76.9391C11.8886,-58.7361 101.407,-23.614 152.727,41.8 242.609,156.365 237.04,345.013 231.07,416.924"/>
<polygon fill="none" stroke="black" points="-57.6606,-73.6153 -66.4684,-79.5037 -55.911,-80.3931 -57.6606,-73.6153"/>
</g>
<!-- devices:Repair -->
<g id="node9" class="node"><title>devices:Repair</title>
<polygon fill="none" stroke="black" points="-341.593,-19 -341.593,-63 -242.407,-63 -242.407,-19 -341.593,-19"/>
<text text-anchor="middle" x="-292" y="-47.8" font-family="Times,serif" font-size="14.00">devices:Repair</text>
<polyline fill="none" stroke="black" points="-341.593,-41 -242.407,-41 "/>
<text text-anchor="middle" x="-292" y="-25.8" font-family="Times,serif" font-size="14.00"> </text>
</g>
<!-- devices:EventWithDevices&#45;&gt;devices:Repair -->
<g id="edge8" class="edge"><title>devices:EventWithDevices&#45;&gt;devices:Repair</title>
<path fill="none" stroke="black" d="M-217.542,-69.3151C-225.892,-66.1398 -234.305,-62.9402 -242.32,-59.8925"/>
<polygon fill="none" stroke="black" points="-218.758,-72.5972 -208.167,-72.8803 -216.269,-66.0543 -218.758,-72.5972"/>
</g>
<!-- devices:Free -->
<g id="node10" class="node"><title>devices:Free</title>
<polygon fill="none" stroke="black" points="-234.373,35 -234.373,-9 -147.627,-9 -147.627,35 -234.373,35"/>
<text text-anchor="middle" x="-191" y="6.2" font-family="Times,serif" font-size="14.00">devices:Free</text>
<polyline fill="none" stroke="black" points="-234.373,13 -147.627,13 "/>
<text text-anchor="middle" x="-191" y="28.2" font-family="Times,serif" font-size="14.00"> </text>
</g>
<!-- devices:EventWithDevices&#45;&gt;devices:Free -->
<g id="edge9" class="edge"><title>devices:EventWithDevices&#45;&gt;devices:Free</title>
<path fill="none" stroke="black" d="M-162.094,-63.1433C-168.695,-45.7538 -176.704,-24.659 -182.615,-9.08645"/>
<polygon fill="none" stroke="black" points="-165.217,-64.7772 -158.396,-72.884 -158.673,-62.2928 -165.217,-64.7772"/>
</g>
<!-- devices:Allocate -->
<g id="node11" class="node"><title>devices:Allocate</title>
<polygon fill="none" stroke="black" points="-140.346,407 -140.346,279 110.346,279 110.346,407 -140.346,407"/>
<text text-anchor="middle" x="-15" y="294.2" font-family="Times,serif" font-size="14.00">devices:Allocate</text>
<polyline fill="none" stroke="black" points="-140.346,301 110.346,301 "/>
<text text-anchor="start" x="-132.346" y="316.2" font-family="Times,serif" font-size="14.00">+ *to.email: email</text>
<text text-anchor="start" x="-132.346" y="330.2" font-family="Times,serif" font-size="14.00">+ to.name: string [0..1]</text>
<text text-anchor="start" x="-132.346" y="344.2" font-family="Times,serif" font-size="14.00">+ to: [&#39;objectid&#39;, &#39;dict&#39;, &#39;string&#39;]</text>
<text text-anchor="start" x="-132.346" y="358.2" font-family="Times,serif" font-size="14.00">+ to.isOrganization: boolean [0..1]</text>
<text text-anchor="start" x="-132.346" y="372.2" font-family="Times,serif" font-size="14.00">+ to.organization: string [0..1]</text>
<text text-anchor="start" x="-132.346" y="386.2" font-family="Times,serif" font-size="14.00">+ components: list [0..1] (read&#45;only)</text>
<text text-anchor="middle" x="-15" y="400.2" font-family="Times,serif" font-size="14.00">+ toOrganization: string [0..1] (read&#45;only)</text>
</g>
<!-- devices:EventWithDevices&#45;&gt;devices:Allocate -->
<g id="edge10" class="edge"><title>devices:EventWithDevices&#45;&gt;devices:Allocate</title>
<path fill="none" stroke="black" d="M-147.388,-62.8539C-146.257,-47.5275 -145.052,-28.9281 -144.427,-12.2 -144.189,-5.80428 -145.233,212.311 -142.727,218.2 -133.14,240.738 -117.307,261.25 -99.9951,278.841"/>
<polygon fill="none" stroke="black" points="-150.881,-62.6416 -148.15,-72.8783 -143.902,-63.1727 -150.881,-62.6416"/>
</g>
<!-- devices:ToPrepare -->
<g id="node12" class="node"><title>devices:ToPrepare</title>
<polygon fill="none" stroke="black" points="-185.598,-181 -185.598,-225 -66.4023,-225 -66.4023,-181 -185.598,-181"/>
<text text-anchor="middle" x="-126" y="-209.8" font-family="Times,serif" font-size="14.00">devices:ToPrepare</text>
<polyline fill="none" stroke="black" points="-185.598,-203 -66.4023,-203 "/>
<text text-anchor="middle" x="-126" y="-187.8" font-family="Times,serif" font-size="14.00"> </text>
</g>
<!-- devices:EventWithDevices&#45;&gt;devices:ToPrepare -->
<g id="edge11" class="edge"><title>devices:EventWithDevices&#45;&gt;devices:ToPrepare</title>
<path fill="none" stroke="black" d="M-142.812,-127.345C-138.969,-144.64 -134.336,-165.487 -130.908,-180.914"/>
<polygon fill="none" stroke="black" points="-139.499,-126.119 -145.085,-117.116 -146.333,-127.637 -139.499,-126.119"/>
</g>
<!-- devices:ToDispose -->
<g id="node13" class="node"><title>devices:ToDispose</title>
<polygon fill="none" stroke="black" points="-57.7769,-127 -57.7769,-171 63.7769,-171 63.7769,-127 -57.7769,-127"/>
<text text-anchor="middle" x="3" y="-155.8" font-family="Times,serif" font-size="14.00">devices:ToDispose</text>
<polyline fill="none" stroke="black" points="-57.7769,-149 63.7769,-149 "/>
<text text-anchor="middle" x="3" y="-133.8" font-family="Times,serif" font-size="14.00"> </text>
</g>
<!-- devices:EventWithDevices&#45;&gt;devices:ToDispose -->
<g id="edge12" class="edge"><title>devices:EventWithDevices&#45;&gt;devices:ToDispose</title>
<path fill="none" stroke="black" d="M-77.6652,-120.53C-71.0338,-122.87 -64.3606,-125.226 -57.8457,-127.525"/>
<polygon fill="none" stroke="black" points="-76.7328,-117.147 -87.3276,-117.12 -79.0626,-123.748 -76.7328,-117.147"/>
</g>
<!-- devices:Dispose -->
<g id="node14" class="node"><title>devices:Dispose</title>
<polygon fill="none" stroke="black" points="-58.4897,-335 -58.4897,-379 48.4897,-379 48.4897,-335 -58.4897,-335"/>
<text text-anchor="middle" x="-5" y="-363.8" font-family="Times,serif" font-size="14.00">devices:Dispose</text>
<polyline fill="none" stroke="black" points="-58.4897,-357 48.4897,-357 "/>
<text text-anchor="middle" x="-5" y="-341.8" font-family="Times,serif" font-size="14.00"> </text>
</g>
<!-- devices:EventWithDevices&#45;&gt;devices:Dispose -->
<g id="edge13" class="edge"><title>devices:EventWithDevices&#45;&gt;devices:Dispose</title>
<path fill="none" stroke="black" d="M-107.685,-123.638C-90.5662,-137.741 -72.6432,-156.339 -63.2023,-177.8 -45.9466,-217.025 -74.2926,-233.37 -61.283,-274.2 -54.0537,-296.889 -38.443,-319.007 -25.4921,-334.667"/>
<polygon fill="none" stroke="black" points="-105.967,-120.535 -115.984,-117.083 -110.306,-126.028 -105.967,-120.535"/>
</g>
<!-- devices:Receive -->
<g id="node17" class="node"><title>devices:Receive</title>
<polygon fill="none" stroke="black" points="-139.527,215 -139.527,45 149.527,45 149.527,215 -139.527,215"/>
<text text-anchor="middle" x="5" y="60.2" font-family="Times,serif" font-size="14.00">devices:Receive</text>
<polyline fill="none" stroke="black" points="-139.527,67 149.527,67 "/>
<text text-anchor="start" x="-131.527" y="82.2" font-family="Times,serif" font-size="14.00">+ *receiver.email: email</text>
<text text-anchor="start" x="-131.527" y="96.2" font-family="Times,serif" font-size="14.00">+ receiver.name: string [0..1]</text>
<text text-anchor="start" x="-131.527" y="110.2" font-family="Times,serif" font-size="14.00">+ receiver: [&#39;objectid&#39;, &#39;dict&#39;, &#39;string&#39;]</text>
<text text-anchor="start" x="-131.527" y="124.2" font-family="Times,serif" font-size="14.00">+ receiver.isOrganization: boolean [0..1]</text>
<text text-anchor="start" x="-131.527" y="138.2" font-family="Times,serif" font-size="14.00">+ receiver.organization: string [0..1]</text>
<text text-anchor="start" x="-131.527" y="152.2" font-family="Times,serif" font-size="14.00">+ automaticallyAllocate: boolean [0..1]</text>
<text text-anchor="start" x="-131.527" y="166.2" font-family="Times,serif" font-size="14.00">+ components: list [0..1] (read&#45;only)</text>
<text text-anchor="start" x="-131.527" y="180.2" font-family="Times,serif" font-size="14.00">+ acceptedConditions: acceptedConditionsEnum</text>
<text text-anchor="start" x="-131.527" y="194.2" font-family="Times,serif" font-size="14.00">+ receiverOrganization: string [0..1] (read&#45;only)</text>
<text text-anchor="middle" x="5" y="208.2" font-family="Times,serif" font-size="14.00">+ type: typeEnum</text>
</g>
<!-- devices:EventWithDevices&#45;&gt;devices:Receive -->
<g id="edge15" class="edge"><title>devices:EventWithDevices&#45;&gt;devices:Receive</title>
<path fill="none" stroke="black" d="M-128.665,-64.0305C-109.334,-35.9685 -79.9309,6.71319 -53.6196,44.9071"/>
<polygon fill="none" stroke="black" points="-131.781,-62.3829 -134.571,-72.6036 -126.016,-66.354 -131.781,-62.3829"/>
</g>
<!-- devices:DeviceEvent -->
<g id="node2" class="node"><title>devices:DeviceEvent</title>
<polygon fill="none" stroke="black" points="-58.083,-235 -58.083,-271 76.083,-271 76.083,-235 -58.083,-235"/>
<text text-anchor="middle" x="9" y="-248.8" font-family="Times,serif" font-size="14.00">devices:DeviceEvent</text>
</g>
<!-- devices:DeviceEvent&#45;&gt;devices:EventWithDevices -->
<g id="edge1" class="edge"><title>devices:DeviceEvent&#45;&gt;devices:EventWithDevices</title>
<path fill="none" stroke="black" d="M-14.8821,-227.575C-28.8188,-212.877 -46.8285,-194.121 -63.2023,-177.8 -84.1472,-156.923 -108.562,-133.73 -126.153,-117.215"/>
<polygon fill="none" stroke="black" points="-17.4098,-229.996 -7.9957,-234.856 -12.324,-225.186 -17.4098,-229.996"/>
</g>
<!-- Account -->
<g id="node5" class="node"><title>Account</title>
<polygon fill="none" stroke="black" points="-405.714,-457 -405.714,-493 -342.286,-493 -342.286,-457 -405.714,-457"/>
<text text-anchor="middle" x="-374" y="-470.8" font-family="Times,serif" font-size="14.00">Account</text>
</g>
<!-- devices:Deallocate&#45;&gt;Account -->
<g id="edge3" class="edge"><title>devices:Deallocate&#45;&gt;Account</title>
<path fill="none" stroke="black" d="M-288.529,-447.001C-303.783,-451.998 -318.973,-456.974 -332.225,-461.315"/>
<polygon fill="black" stroke="black" points="-333.536,-458.061 -341.95,-464.501 -331.357,-464.714 -333.536,-458.061"/>
<text text-anchor="middle" x="-301.633" y="-458.551" font-family="Times,serif" font-size="14.00">from</text>
<text text-anchor="middle" x="-331.45" y="-467.301" font-family="Times,serif" font-size="14.00">0..1</text>
<text text-anchor="middle" x="-285.029" y="-449.801" font-family="Times,serif" font-size="14.00">*</text>
</g>
<!-- Place -->
<g id="node8" class="node"><title>Place</title>
<polygon fill="none" stroke="black" points="346,521 346,485 400,485 400,521 346,521"/>
<text text-anchor="middle" x="372.659" y="507.2" font-family="Times,serif" font-size="14.00">Place</text>
</g>
<!-- devices:Locate&#45;&gt;Place -->
<g id="edge6" class="edge"><title>devices:Locate&#45;&gt;Place</title>
<path fill="none" stroke="black" d="M301.774,475.001C313.88,479.76 325.938,484.5 336.598,488.69"/>
<polygon fill="black" stroke="black" points="337.93,485.453 345.956,492.369 335.369,491.968 337.93,485.453"/>
<text text-anchor="middle" x="308.781" y="494.76" font-family="Times,serif" font-size="14.00">place</text>
<text text-anchor="middle" x="335.456" y="489.569" font-family="Times,serif" font-size="14.00">0..1</text>
<text text-anchor="middle" x="298.274" y="486.201" font-family="Times,serif" font-size="14.00">*</text>
</g>
<!-- acceptedConditionsEnum -->
<g id="node15" class="node"><title>acceptedConditionsEnum</title>
<polygon fill="none" stroke="black" points="174.072,-117 174.072,-175 333.928,-175 333.928,-117 174.072,-117"/>
<text text-anchor="start" x="182.072" y="-159.8" font-family="Times,serif" font-size="14.00">acceptedConditionsEnum</text>
<text text-anchor="middle" x="254" y="-145.8" font-family="Times,serif" font-size="14.00">Enum</text>
<polyline fill="none" stroke="black" points="174.072,-139 333.928,-139 "/>
<text text-anchor="middle" x="254" y="-123.8" font-family="Times,serif" font-size="14.00">True</text>
</g>
<!-- typeEnum -->
<g id="node16" class="node"><title>typeEnum</title>
<polygon fill="none" stroke="black" points="290.055,-291 290.055,-377 393.945,-377 393.945,-291 290.055,-291"/>
<text text-anchor="start" x="298.055" y="-361.8" font-family="Times,serif" font-size="14.00">typeEnum</text>
<text text-anchor="middle" x="342" y="-347.8" font-family="Times,serif" font-size="14.00">Enum</text>
<polyline fill="none" stroke="black" points="290.055,-341 393.945,-341 "/>
<text text-anchor="start" x="298.055" y="-325.8" font-family="Times,serif" font-size="14.00">RecyclingPoint</text>
<text text-anchor="start" x="298.055" y="-311.8" font-family="Times,serif" font-size="14.00">CollectionPoint</text>
<text text-anchor="middle" x="342" y="-297.8" font-family="Times,serif" font-size="14.00">FinalUser</text>
</g>
<!-- devices:Receive&#45;&gt;Place -->
<g id="edge14" class="edge"><title>devices:Receive&#45;&gt;Place</title>
<path fill="none" stroke="black" d="M136.228,215.264C205.302,265.853 286.715,335.355 341.124,413.8 353.954,432.299 362.178,456.52 367.052,475.054"/>
<polygon fill="black" stroke="black" points="370.499,474.411 369.485,484.958 363.701,476.081 370.499,474.411"/>
<text text-anchor="middle" x="257.045" y="328.286" font-family="Times,serif" font-size="14.00">place</text>
<text text-anchor="middle" x="358.985" y="482.158" font-family="Times,serif" font-size="14.00">0..1</text>
<text text-anchor="middle" x="132.728" y="226.464" font-family="Times,serif" font-size="14.00">*</text>
</g>
</g>
</svg>
