<?xml version="1.0" encoding="UTF-8" standalone="no"?>
<!DOCTYPE svg PUBLIC "-//W3C//DTD SVG 1.1//EN"
 "http://www.w3.org/Graphics/SVG/1.1/DTD/svg11.dtd">
<!-- Generated by graphviz version 2.38.0 (20140413.2041)
 -->
<!-- Title: %3 Pages: 1 -->
<svg width="736pt" height="896pt"
 viewBox="0.00 0.00 736.43 896.00" xmlns="http://www.w3.org/2000/svg" xmlns:xlink="http://www.w3.org/1999/xlink">
<g id="graph0" class="graph" transform="scale(1 1) rotate(0) translate(4 892)">
<title>%3</title>
<polygon fill="white" stroke="none" points="-4,4 -4,-892 732.434,-892 732.434,4 -4,4"/>
<!-- Product -->
<g id="node1" class="node"><title>Product</title>
<polygon fill="none" stroke="black" points="231.44,-441.5 231.44,-555.5 406.56,-555.5 406.56,-441.5 231.44,-441.5"/>
<text text-anchor="middle" x="319" y="-540.3" font-family="Times,serif" font-size="14.00">Product</text>
<polyline fill="none" stroke="black" points="231.44,-533.5 406.56,-533.5 "/>
<text text-anchor="start" x="239.44" y="-518.3" font-family="Times,serif" font-size="14.00">+ model: string [0..1]</text>
<text text-anchor="start" x="239.44" y="-504.3" font-family="Times,serif" font-size="14.00">+ manufacturer: string [0..1]</text>
<text text-anchor="start" x="239.44" y="-490.3" font-family="Times,serif" font-size="14.00">+ productId: string [0..1]</text>
<text text-anchor="start" x="239.44" y="-476.3" font-family="Times,serif" font-size="14.00">+ height: float [0..1]</text>
<text text-anchor="start" x="239.44" y="-462.3" font-family="Times,serif" font-size="14.00">+ width: float [0..1]</text>
<text text-anchor="middle" x="319" y="-448.3" font-family="Times,serif" font-size="14.00">+ weight: float [0..1]</text>
</g>
<!-- IndividualProduct -->
<g id="node3" class="node"><title>IndividualProduct</title>
<polygon fill="none" stroke="black" points="230.654,-359.5 230.654,-403.5 407.346,-403.5 407.346,-359.5 230.654,-359.5"/>
<text text-anchor="middle" x="319" y="-388.3" font-family="Times,serif" font-size="14.00">IndividualProduct</text>
<polyline fill="none" stroke="black" points="230.654,-381.5 407.346,-381.5 "/>
<text text-anchor="middle" x="319" y="-366.3" font-family="Times,serif" font-size="14.00">+ serialNumber: string [0..1]</text>
</g>
<!-- Product&#45;&gt;IndividualProduct -->
<g id="edge2" class="edge"><title>Product&#45;&gt;IndividualProduct</title>
<path fill="none" stroke="black" d="M319,-431.283C319,-421.293 319,-411.662 319,-403.635"/>
<polygon fill="none" stroke="black" points="315.5,-431.348 319,-441.348 322.5,-431.348 315.5,-431.348"/>
</g>
<!-- Thing -->
<g id="node2" class="node"><title>Thing</title>
<polygon fill="none" stroke="black" points="218.024,-593.5 218.024,-665.5 419.976,-665.5 419.976,-593.5 218.024,-593.5"/>
<text text-anchor="middle" x="319" y="-650.3" font-family="Times,serif" font-size="14.00">Thing</text>
<polyline fill="none" stroke="black" points="218.024,-643.5 419.976,-643.5 "/>
<text text-anchor="start" x="226.024" y="-628.3" font-family="Times,serif" font-size="14.00">+ url: url [0..1]</text>
<text text-anchor="start" x="226.024" y="-614.3" font-family="Times,serif" font-size="14.00">+ *sameAs: url [0..1] (read&#45;only)</text>
<text text-anchor="middle" x="319" y="-600.3" font-family="Times,serif" font-size="14.00">+ description: string [0..1]</text>
</g>
<!-- Thing&#45;&gt;Product -->
<g id="edge1" class="edge"><title>Thing&#45;&gt;Product</title>
<path fill="none" stroke="black" d="M319,-583.095C319,-574.196 319,-564.764 319,-555.565"/>
<polygon fill="none" stroke="black" points="315.5,-583.25 319,-593.25 322.5,-583.25 315.5,-583.25"/>
</g>
<!-- Device -->
<g id="node4" class="node"><title>Device</title>
<polygon fill="none" stroke="black" points="196.812,-165.5 196.812,-321.5 441.188,-321.5 441.188,-165.5 196.812,-165.5"/>
<text text-anchor="middle" x="319" y="-306.3" font-family="Times,serif" font-size="14.00">Device</text>
<polyline fill="none" stroke="black" points="196.812,-299.5 441.188,-299.5 "/>
<text text-anchor="start" x="204.812" y="-284.3" font-family="Times,serif" font-size="14.00">+ labelId: string [0..1]</text>
<text text-anchor="start" x="204.812" y="-270.3" font-family="Times,serif" font-size="14.00">+ hid: hid [0..1]</text>
<text text-anchor="start" x="204.812" y="-256.3" font-family="Times,serif" font-size="14.00">+ *pid: string [0..1]</text>
<text text-anchor="start" x="204.812" y="-242.3" font-family="Times,serif" font-size="14.00">+ *_id: string [0..1]</text>
<text text-anchor="start" x="204.812" y="-228.3" font-family="Times,serif" font-size="14.00">+ owners: list [0..1]</text>
<text text-anchor="start" x="204.812" y="-214.3" font-family="Times,serif" font-size="14.00">+ components: list_of_Component [0..1]</text>
<text text-anchor="start" x="204.812" y="-200.3" font-family="Times,serif" font-size="14.00">+ public: boolean [0..1]</text>
<text text-anchor="start" x="204.812" y="-186.3" font-family="Times,serif" font-size="14.00">+ events: list [0..1]</text>
<text text-anchor="middle" x="319" y="-172.3" font-family="Times,serif" font-size="14.00">+ isUidSecured: boolean [0..1]</text>
</g>
<!-- IndividualProduct&#45;&gt;Device -->
<g id="edge4" class="edge"><title>IndividualProduct&#45;&gt;Device</title>
<path fill="none" stroke="black" d="M319,-349.24C319,-340.838 319,-331.366 319,-321.639"/>
<polygon fill="none" stroke="black" points="315.5,-349.25 319,-359.25 322.5,-349.25 315.5,-349.25"/>
</g>
<!-- Place -->
<g id="node5" class="node"><title>Place</title>
<polygon fill="none" stroke="black" points="0,-39.5 0,-75.5 54,-75.5 54,-39.5 0,-39.5"/>
<text text-anchor="middle" x="26.6587" y="-53.3" font-family="Times,serif" font-size="14.00">Place</text>
</g>
<!-- Device&#45;&gt;Place -->
<g id="edge3" class="edge"><title>Device&#45;&gt;Place</title>
<path fill="none" stroke="black" d="M196.547,-199.128C150.416,-178.628 99.7816,-150.699 61,-115 51.8427,-106.571 44.3312,-95.1108 38.7192,-84.7148"/>
<polygon fill="black" stroke="black" points="41.7397,-82.9315 34.1066,-75.5839 35.4916,-86.0878 41.7397,-82.9315"/>
<text text-anchor="middle" x="112.766" y="-135.8" font-family="Times,serif" font-size="14.00">place</text>
<text text-anchor="middle" x="44.6066" y="-78.3839" font-family="Times,serif" font-size="14.00">0..1</text>
<text text-anchor="middle" x="193.047" y="-201.928" font-family="Times,serif" font-size="14.00">*</text>
</g>
<!-- Mobile -->
<g id="node7" class="node"><title>Mobile</title>
<polygon fill="none" stroke="black" points="67.5659,-0.5 67.5659,-114.5 210.434,-114.5 210.434,-0.5 67.5659,-0.5"/>
<text text-anchor="middle" x="139" y="-99.3" font-family="Times,serif" font-size="14.00">Mobile</text>
<polyline fill="none" stroke="black" points="67.5659,-92.5 210.434,-92.5 "/>
<text text-anchor="start" x="75.5659" y="-77.3" font-family="Times,serif" font-size="14.00">+ serialNumber: string</text>
<text text-anchor="start" x="75.5659" y="-63.3" font-family="Times,serif" font-size="14.00">+ model: string</text>
<text text-anchor="start" x="75.5659" y="-49.3" font-family="Times,serif" font-size="14.00">+ manufacturer: string</text>
<text text-anchor="start" x="75.5659" y="-35.3" font-family="Times,serif" font-size="14.00">+ *imei: string [0..1]</text>
<text text-anchor="start" x="75.5659" y="-21.3" font-family="Times,serif" font-size="14.00">+ *meid: string [0..1]</text>
<text text-anchor="middle" x="139" y="-7.3" font-family="Times,serif" font-size="14.00">+ type: typeEnum</text>
</g>
<!-- Device&#45;&gt;Mobile -->
<g id="edge5" class="edge"><title>Device&#45;&gt;Mobile</title>
<path fill="none" stroke="black" d="M236.391,-158.055C221.964,-143.307 207.282,-128.299 193.841,-114.56"/>
<polygon fill="none" stroke="black" points="233.951,-160.566 243.446,-165.267 238.955,-155.671 233.951,-160.566"/>
</g>
<!-- Computer -->
<g id="node8" class="node"><title>Computer</title>
<polygon fill="none" stroke="black" points="224.057,-28.5 224.057,-86.5 413.943,-86.5 413.943,-28.5 224.057,-28.5"/>
<text text-anchor="middle" x="319" y="-71.3" font-family="Times,serif" font-size="14.00">Computer</text>
<polyline fill="none" stroke="black" points="224.057,-64.5 413.943,-64.5 "/>
<text text-anchor="start" x="232.057" y="-49.3" font-family="Times,serif" font-size="14.00">+ type: typeEnum [0..1]</text>
<text text-anchor="middle" x="319" y="-35.3" font-family="Times,serif" font-size="14.00">+ forceCreation: boolean [0..1]</text>
</g>
<!-- Device&#45;&gt;Computer -->
<g id="edge6" class="edge"><title>Device&#45;&gt;Computer</title>
<path fill="none" stroke="black" d="M319,-155.057C319,-130.25 319,-104.999 319,-86.5442"/>
<polygon fill="none" stroke="black" points="315.5,-155.267 319,-165.267 322.5,-155.267 315.5,-155.267"/>
</g>
<!-- ComputerMonitor -->
<g id="node9" class="node"><title>ComputerMonitor</title>
<polygon fill="none" stroke="black" points="428.378,-7.5 428.378,-107.5 571.622,-107.5 571.622,-7.5 428.378,-7.5"/>
<text text-anchor="middle" x="500" y="-92.3" font-family="Times,serif" font-size="14.00">ComputerMonitor</text>
<polyline fill="none" stroke="black" points="428.378,-85.5 571.622,-85.5 "/>
<text text-anchor="start" x="436.378" y="-70.3" font-family="Times,serif" font-size="14.00">+ model: string</text>
<text text-anchor="start" x="436.378" y="-56.3" font-family="Times,serif" font-size="14.00">+ serialNumber: string</text>
<text text-anchor="start" x="436.378" y="-42.3" font-family="Times,serif" font-size="14.00">+ manufacturer: string</text>
<text text-anchor="start" x="436.378" y="-28.3" font-family="Times,serif" font-size="14.00">+ type: typeEnum</text>
<text text-anchor="middle" x="500" y="-14.3" font-family="Times,serif" font-size="14.00">+ inches: natural [0..1]</text>
</g>
<!-- Device&#45;&gt;ComputerMonitor -->
<g id="edge7" class="edge"><title>Device&#45;&gt;ComputerMonitor</title>
<path fill="none" stroke="black" d="M402.192,-157.93C419.099,-140.742 436.348,-123.207 451.559,-107.743"/>
<polygon fill="none" stroke="black" points="399.491,-155.684 394.974,-165.267 404.481,-160.593 399.491,-155.684"/>
</g>
<!-- Peripheral -->
<g id="node10" class="node"><title>Peripheral</title>
<polygon fill="none" stroke="black" points="585.566,-14.5 585.566,-100.5 728.434,-100.5 728.434,-14.5 585.566,-14.5"/>
<text text-anchor="middle" x="657" y="-85.3" font-family="Times,serif" font-size="14.00">Peripheral</text>
<polyline fill="none" stroke="black" points="585.566,-78.5 728.434,-78.5 "/>
<text text-anchor="start" x="593.566" y="-63.3" font-family="Times,serif" font-size="14.00">+ model: string</text>
<text text-anchor="start" x="593.566" y="-49.3" font-family="Times,serif" font-size="14.00">+ manufacturer: string</text>
<text text-anchor="start" x="593.566" y="-35.3" font-family="Times,serif" font-size="14.00">+ serialNumber: string</text>
<text text-anchor="middle" x="657" y="-21.3" font-family="Times,serif" font-size="14.00">+ type: typeEnum</text>
</g>
<!-- Device&#45;&gt;Peripheral -->
<g id="edge8" class="edge"><title>Device&#45;&gt;Peripheral</title>
<path fill="none" stroke="black" d="M450.487,-183.416C492.368,-163.179 538.359,-139.439 579,-115 586.308,-110.605 593.8,-105.719 601.113,-100.712"/>
<polygon fill="none" stroke="black" points="448.835,-180.327 441.338,-187.813 451.867,-186.636 448.835,-180.327"/>
</g>
<!-- typeEnum -->
<g id="node6" class="node"><title>typeEnum</title>
<polygon fill="none" stroke="black" points="412.062,-703.5 412.062,-887.5 543.938,-887.5 543.938,-703.5 412.062,-703.5"/>
<text text-anchor="start" x="420.062" y="-872.3" font-family="Times,serif" font-size="14.00">typeEnum</text>
<text text-anchor="middle" x="478" y="-858.3" font-family="Times,serif" font-size="14.00">Enum</text>
<polyline fill="none" stroke="black" points="412.062,-851.5 543.938,-851.5 "/>
<text text-anchor="start" x="420.062" y="-836.3" font-family="Times,serif" font-size="14.00">Mouse</text>
<text text-anchor="start" x="420.062" y="-822.3" font-family="Times,serif" font-size="14.00">Keyboard</text>
<text text-anchor="start" x="420.062" y="-808.3" font-family="Times,serif" font-size="14.00">Switch</text>
<text text-anchor="start" x="420.062" y="-794.3" font-family="Times,serif" font-size="14.00">MultifunctionPrinter</text>
<text text-anchor="start" x="420.062" y="-780.3" font-family="Times,serif" font-size="14.00">SAI</text>
<text text-anchor="start" x="420.062" y="-766.3" font-family="Times,serif" font-size="14.00">Scanner</text>
<text text-anchor="start" x="420.062" y="-752.3" font-family="Times,serif" font-size="14.00">Terminal</text>
<text text-anchor="start" x="420.062" y="-738.3" font-family="Times,serif" font-size="14.00">HUB</text>
<text text-anchor="start" x="420.062" y="-724.3" font-family="Times,serif" font-size="14.00">Printer</text>
<text text-anchor="middle" x="478" y="-710.3" font-family="Times,serif" font-size="14.00">Router</text>
</g>
<!-- @typeEnum -->
<g id="node11" class="node"><title>@typeEnum</title>
<polygon fill="none" stroke="black" points="557.781,-766.5 557.781,-824.5 644.219,-824.5 644.219,-766.5 557.781,-766.5"/>
<text text-anchor="start" x="565.781" y="-809.3" font-family="Times,serif" font-size="14.00">@typeEnum</text>
<text text-anchor="middle" x="601" y="-795.3" font-family="Times,serif" font-size="14.00">Enum</text>
<polyline fill="none" stroke="black" points="557.781,-788.5 644.219,-788.5 "/>
<text text-anchor="middle" x="601" y="-773.3" font-family="Times,serif" font-size="14.00">RDFS</text>
</g>
<!-- RDFS -->
<g id="node12" class="node"><title>RDFS</title>
<polygon fill="none" stroke="black" points="240.392,-759.5 240.392,-831.5 397.608,-831.5 397.608,-759.5 240.392,-759.5"/>
<text text-anchor="middle" x="319" y="-816.3" font-family="Times,serif" font-size="14.00">RDFS</text>
<polyline fill="none" stroke="black" points="240.392,-809.5 397.608,-809.5 "/>
<text text-anchor="start" x="248.392" y="-794.3" font-family="Times,serif" font-size="14.00">+ label: string [0..1]</text>
<text text-anchor="start" x="248.392" y="-780.3" font-family="Times,serif" font-size="14.00">+ @type: @typeEnum</text>
<text text-anchor="middle" x="319" y="-766.3" font-family="Times,serif" font-size="14.00">+ created: datetime [0..1]</text>
</g>
<!-- RDFS&#45;&gt;Thing -->
<g id="edge9" class="edge"><title>RDFS&#45;&gt;Thing</title>
<path fill="none" stroke="black" d="M319,-749.184C319,-722.802 319,-690.039 319,-665.624"/>
<polygon fill="none" stroke="black" points="315.5,-749.318 319,-759.318 322.5,-749.318 315.5,-749.318"/>
</g>
</g>
</svg>
