<?xml version="1.0" encoding="UTF-8" standalone="no"?>
<!DOCTYPE svg PUBLIC "-//W3C//DTD SVG 1.1//EN"
 "http://www.w3.org/Graphics/SVG/1.1/DTD/svg11.dtd">
<!-- Generated by graphviz version 2.38.0 (20140413.2041)
 -->
<!-- Title: %3 Pages: 1 -->
<svg width="597pt" height="967pt"
 viewBox="0.00 0.00 596.56 967.00" xmlns="http://www.w3.org/2000/svg" xmlns:xlink="http://www.w3.org/1999/xlink">
<g id="graph0" class="graph" transform="scale(1 1) rotate(0) translate(299.077 491.5)">
<title>%3</title>
<polygon fill="white" stroke="none" points="-299.077,475.5 -299.077,-491.5 297.483,-491.5 297.483,475.5 -299.077,475.5"/>
<!-- Component -->
<g id="node1" class="node"><title>Component</title>
<polygon fill="none" stroke="black" points="-146.729,187 -146.729,143 2.729,143 2.729,187 -146.729,187"/>
<text text-anchor="middle" x="-72" y="158.2" font-family="Times,serif" font-size="14.00">Component</text>
<polyline fill="none" stroke="black" points="-146.729,165 2.729,165 "/>
<text text-anchor="middle" x="-72" y="180.2" font-family="Times,serif" font-size="14.00">+ interface: string [0..1]</text>
</g>
<!-- Device -->
<g id="node2" class="node"><title>Device</title>
<polygon fill="none" stroke="black" points="11.1792,133 11.1792,97 66.8208,97 66.8208,133 11.1792,133"/>
<text text-anchor="middle" x="39" y="119.2" font-family="Times,serif" font-size="14.00">Device</text>
</g>
<!-- Component&#45;&gt;Device -->
<g id="edge1" class="edge"><title>Component&#45;&gt;Device</title>
<path fill="none" stroke="black" d="M-22.9907,142.924C-14.7329,139.204 -6.28072,135.397 1.62097,131.837"/>
<polygon fill="black" stroke="black" points="0.381051,128.557 10.9362,127.641 3.25603,134.94 0.381051,128.557"/>
<text text-anchor="middle" x="-23.4151" y="132.437" font-family="Times,serif" font-size="14.00">parent</text>
<text text-anchor="middle" x="0.436229" y="124.841" font-family="Times,serif" font-size="14.00">0..1</text>
<text text-anchor="middle" x="-26.4907" y="140.124" font-family="Times,serif" font-size="14.00">*</text>
</g>
<!-- NetworkAdapter -->
<g id="node3" class="node"><title>NetworkAdapter</title>
<polygon fill="none" stroke="black" points="-280.688,363 -280.688,319 -155.312,319 -155.312,363 -280.688,363"/>
<text text-anchor="middle" x="-218" y="334.2" font-family="Times,serif" font-size="14.00">NetworkAdapter</text>
<polyline fill="none" stroke="black" points="-280.688,341 -155.312,341 "/>
<text text-anchor="middle" x="-218" y="356.2" font-family="Times,serif" font-size="14.00">+ speed: float [0..1]</text>
</g>
<!-- Component&#45;&gt;NetworkAdapter -->
<g id="edge3" class="edge"><title>Component&#45;&gt;NetworkAdapter</title>
<path fill="none" stroke="black" d="M-97.1368,195.302C-126.317,230.478 -173.743,287.649 -199.659,318.89"/>
<polygon fill="none" stroke="black" points="-99.5695,192.752 -90.491,187.291 -94.1819,197.222 -99.5695,192.752"/>
</g>
<!-- HardDrive -->
<g id="node4" class="node"><title>HardDrive</title>
<polygon fill="none" stroke="black" points="-216.917,-111 -216.917,-253 2.91699,-253 2.91699,-111 -216.917,-111"/>
<text text-anchor="middle" x="-107" y="-237.8" font-family="Times,serif" font-size="14.00">HardDrive</text>
<polyline fill="none" stroke="black" points="-216.917,-231 2.91699,-231 "/>
<text text-anchor="start" x="-208.917" y="-215.8" font-family="Times,serif" font-size="14.00">+ size: float [0..1]</text>
<text text-anchor="start" x="-208.917" y="-201.8" font-family="Times,serif" font-size="14.00">+ erasures: list [0..1] (read&#45;only)</text>
<text text-anchor="start" x="-208.917" y="-187.8" font-family="Times,serif" font-size="14.00">+ tests: list [0..1] (read&#45;only)</text>
<text text-anchor="start" x="-208.917" y="-173.8" font-family="Times,serif" font-size="14.00">+ benchmarks: list [0..1] (read&#45;only)</text>
<text text-anchor="start" x="-208.917" y="-159.8" font-family="Times,serif" font-size="14.00">+ firmwareRevision: string [0..1]</text>
<text text-anchor="start" x="-208.917" y="-145.8" font-family="Times,serif" font-size="14.00">+ interface: string [0..1]</text>
<text text-anchor="start" x="-208.917" y="-131.8" font-family="Times,serif" font-size="14.00">+ sectors: integer [0..1]</text>
<text text-anchor="middle" x="-107" y="-117.8" font-family="Times,serif" font-size="14.00">+ blockSize: integer [0..1]</text>
</g>
<!-- Component&#45;&gt;HardDrive -->
<g id="edge7" class="edge"><title>Component&#45;&gt;HardDrive</title>
<path fill="none" stroke="black" d="M-110.736,135.83C-124.114,123.408 -137.52,107.727 -144.629,90.2 -170.898,25.4351 -154.778,-54.3466 -136.182,-110.748"/>
<polygon fill="none" stroke="black" points="-108.079,133.507 -102.91,142.756 -112.718,138.749 -108.079,133.507"/>
</g>
<!-- OpticalDrive -->
<g id="node8" class="node"><title>OpticalDrive</title>
<polygon fill="none" stroke="black" points="-146.542,309 -146.542,265 -57.4585,265 -57.4585,309 -146.542,309"/>
<text text-anchor="middle" x="-102" y="280.2" font-family="Times,serif" font-size="14.00">OpticalDrive</text>
<polyline fill="none" stroke="black" points="-146.542,287 -57.4585,287 "/>
<text text-anchor="middle" x="-102" y="302.2" font-family="Times,serif" font-size="14.00"> </text>
</g>
<!-- Component&#45;&gt;OpticalDrive -->
<g id="edge8" class="edge"><title>Component&#45;&gt;OpticalDrive</title>
<path fill="none" stroke="black" d="M-79.8651,196.985C-85.0993,218.271 -91.8446,245.701 -96.5063,264.659"/>
<polygon fill="none" stroke="black" points="-83.2195,195.968 -77.4328,187.093 -76.422,197.64 -83.2195,195.968"/>
</g>
<!-- RamModule -->
<g id="node9" class="node"><title>RamModule</title>
<polygon fill="none" stroke="black" points="-284.622,255 -284.622,197 -155.378,197 -155.378,255 -284.622,255"/>
<text text-anchor="middle" x="-220" y="212.2" font-family="Times,serif" font-size="14.00">RamModule</text>
<polyline fill="none" stroke="black" points="-284.622,219 -155.378,219 "/>
<text text-anchor="start" x="-276.622" y="234.2" font-family="Times,serif" font-size="14.00">+ size: integer [0..1]</text>
<text text-anchor="middle" x="-220" y="248.2" font-family="Times,serif" font-size="14.00">+ speed: float [0..1]</text>
</g>
<!-- Component&#45;&gt;RamModule -->
<g id="edge9" class="edge"><title>Component&#45;&gt;RamModule</title>
<path fill="none" stroke="black" d="M-135.106,191.01C-141.787,193.763 -148.588,196.567 -155.287,199.328"/>
<polygon fill="none" stroke="black" points="-136.011,187.597 -125.431,187.022 -133.343,194.069 -136.011,187.597"/>
</g>
<!-- SoundCard -->
<g id="node10" class="node"><title>SoundCard</title>
<polygon fill="none" stroke="black" points="-146.5,417 -146.5,373 -67.5,373 -67.5,417 -146.5,417"/>
<text text-anchor="middle" x="-107" y="388.2" font-family="Times,serif" font-size="14.00">SoundCard</text>
<polyline fill="none" stroke="black" points="-146.5,395 -67.5,395 "/>
<text text-anchor="middle" x="-107" y="410.2" font-family="Times,serif" font-size="14.00"> </text>
</g>
<!-- Component&#45;&gt;SoundCard -->
<g id="edge10" class="edge"><title>Component&#45;&gt;SoundCard</title>
<path fill="none" stroke="black" d="M-60.9817,196.737C-52.1597,226.96 -42.9672,273.457 -54.2585,312.2 -60.8393,334.781 -75.6513,357.077 -87.9078,372.834"/>
<polygon fill="none" stroke="black" points="-64.3371,197.733 -63.9292,187.146 -57.6459,195.677 -64.3371,197.733"/>
</g>
<!-- GraphicCard -->
<g id="node11" class="node"><title>GraphicCard</title>
<polygon fill="none" stroke="black" points="-295.077,471 -295.077,427 -154.923,427 -154.923,471 -295.077,471"/>
<text text-anchor="middle" x="-225" y="442.2" font-family="Times,serif" font-size="14.00">GraphicCard</text>
<polyline fill="none" stroke="black" points="-295.077,449 -154.923,449 "/>
<text text-anchor="middle" x="-225" y="464.2" font-family="Times,serif" font-size="14.00">+ memory: float [0..1]</text>
</g>
<!-- Component&#45;&gt;GraphicCard -->
<g id="edge11" class="edge"><title>Component&#45;&gt;GraphicCard</title>
<path fill="none" stroke="black" d="M-104.233,194.429C-121.195,212.106 -140.373,236.108 -149.742,261.8 -165.642,305.403 -135.231,322.967 -152.112,366.2 -161.447,390.105 -180.979,411.67 -197.476,426.796"/>
<polygon fill="none" stroke="black" points="-106.655,191.901 -97.1335,187.254 -101.679,196.824 -106.655,191.901"/>
</g>
<!-- Processor -->
<g id="node12" class="node"><title>Processor</title>
<polygon fill="none" stroke="black" points="11.083,-263 11.083,-349 230.917,-349 230.917,-263 11.083,-263"/>
<text text-anchor="middle" x="121" y="-333.8" font-family="Times,serif" font-size="14.00">Processor</text>
<polyline fill="none" stroke="black" points="11.083,-327 230.917,-327 "/>
<text text-anchor="start" x="19.083" y="-311.8" font-family="Times,serif" font-size="14.00">+ numberOfCores: integer [0..1]</text>
<text text-anchor="start" x="19.083" y="-297.8" font-family="Times,serif" font-size="14.00">+ speed: float [0..1]</text>
<text text-anchor="start" x="19.083" y="-283.8" font-family="Times,serif" font-size="14.00">+ benchmarks: list [0..1] (read&#45;only)</text>
<text text-anchor="middle" x="121" y="-269.8" font-family="Times,serif" font-size="14.00">+ address: addressEnum [0..1]</text>
</g>
<!-- Component&#45;&gt;Processor -->
<g id="edge13" class="edge"><title>Component&#45;&gt;Processor</title>
<path fill="none" stroke="black" d="M-30.2279,136.454C-15.7403,124.098 -1.18088,108.299 6.62871,90.2 7.6984,87.7209 6.78438,-101.59 7.47432,-104.2 23.1388,-163.467 60.4265,-223.734 88.0166,-262.778"/>
<polygon fill="none" stroke="black" points="-28.2588,139.364 -38.2259,142.957 -32.6749,133.933 -28.2588,139.364"/>
</g>
<!-- Motherboard -->
<g id="node15" class="node"><title>Motherboard</title>
<polygon fill="none" stroke="black" points="10.6743,41 10.6743,-101 243.326,-101 243.326,41 10.6743,41"/>
<text text-anchor="middle" x="127" y="-85.8" font-family="Times,serif" font-size="14.00">Motherboard</text>
<polyline fill="none" stroke="black" points="10.6743,-79 243.326,-79 "/>
<text text-anchor="start" x="18.6743" y="-63.8" font-family="Times,serif" font-size="14.00">+ maxAcceptedMemory: integer [0..1]</text>
<text text-anchor="start" x="18.6743" y="-49.8" font-family="Times,serif" font-size="14.00">+ totalSlots: integer [0..1]</text>
<text text-anchor="start" x="18.6743" y="-35.8" font-family="Times,serif" font-size="14.00">+ usedSlots: integer [0..1]</text>
<text text-anchor="start" x="18.6743" y="-21.8" font-family="Times,serif" font-size="14.00">+ connectors: dict [0..1]</text>
<text text-anchor="start" x="18.6743" y="-7.8" font-family="Times,serif" font-size="14.00">+ connectors.usb: natural [0..1]</text>
<text text-anchor="start" x="18.6743" y="6.2" font-family="Times,serif" font-size="14.00">+ connectors.serial: natural [0..1]</text>
<text text-anchor="start" x="18.6743" y="20.2" font-family="Times,serif" font-size="14.00">+ connectors.pcmcia: natural [0..1]</text>
<text text-anchor="middle" x="127" y="34.2" font-family="Times,serif" font-size="14.00">+ connectors.firewire: natural [0..1]</text>
</g>
<!-- Component&#45;&gt;Motherboard -->
<g id="edge14" class="edge"><title>Component&#45;&gt;Motherboard</title>
<path fill="none" stroke="black" d="M-41.1451,135.976C-26.5771,122.189 -8.99723,105.43 6.62871,90.2 22.8078,74.4308 40.0663,57.3526 56.3143,41.1557"/>
<polygon fill="none" stroke="black" points="-38.7904,138.566 -48.4623,142.891 -43.5984,133.479 -38.7904,138.566"/>
</g>
<!-- Device&#45;&gt;Component -->
<g id="edge2" class="edge"><title>Device&#45;&gt;Component</title>
<path fill="none" stroke="black" d="M1.70688,131.799C-6.16792,135.346 -14.5927,139.141 -22.829,142.851"/>
<polygon fill="none" stroke="black" points="0.434835,128.533 10.99,127.617 3.30982,134.915 0.434835,128.533"/>
</g>
<!-- BenchmarkHardDrive -->
<g id="node5" class="node"><title>BenchmarkHardDrive</title>
<polygon fill="none" stroke="black" points="10.8032,-405 10.8032,-441 151.197,-441 151.197,-405 10.8032,-405"/>
<text text-anchor="middle" x="81" y="-418.8" font-family="Times,serif" font-size="14.00">BenchmarkHardDrive</text>
</g>
<!-- HardDrive&#45;&gt;BenchmarkHardDrive -->
<g id="edge4" class="edge"><title>HardDrive&#45;&gt;BenchmarkHardDrive</title>
<path fill="none" stroke="black" d="M-63.732,-253.091C-43.4119,-284.547 -17.9955,-321.327 7.88301,-352.2 21.4829,-368.425 38.3684,-384.97 52.4851,-397.983"/>
<polygon fill="black" stroke="black" points="50.2523,-400.683 60.0044,-404.824 54.9631,-395.506 50.2523,-400.683"/>
<text text-anchor="middle" x="-38.5885" y="-335.934" font-family="Times,serif" font-size="14.00">benchmark</text>
<text text-anchor="middle" x="49.5044" y="-393.624" font-family="Times,serif" font-size="14.00">0..1</text>
<text text-anchor="middle" x="-67.232" y="-255.891" font-family="Times,serif" font-size="14.00">*</text>
</g>
<!-- devices:EraseBasic -->
<g id="node6" class="node"><title>devices:EraseBasic</title>
<polygon fill="none" stroke="black" points="-121.031,-359 -121.031,-395 3.03125,-395 3.03125,-359 -121.031,-359"/>
<text text-anchor="middle" x="-59" y="-372.8" font-family="Times,serif" font-size="14.00">devices:EraseBasic</text>
</g>
<!-- HardDrive&#45;&gt;devices:EraseBasic -->
<g id="edge5" class="edge"><title>HardDrive&#45;&gt;devices:EraseBasic</title>
<path fill="none" stroke="black" d="M-89.4671,-253.227C-81.3123,-286.356 -72.0811,-323.858 -65.9381,-348.814"/>
<polygon fill="black" stroke="black" points="-69.2954,-349.818 -63.5066,-358.692 -62.4983,-348.145 -69.2954,-349.818"/>
<text text-anchor="middle" x="-96.6765" y="-308.83" font-family="Times,serif" font-size="14.00">erasure</text>
<text text-anchor="middle" x="-74.0066" y="-347.492" font-family="Times,serif" font-size="14.00">0..1</text>
<text text-anchor="middle" x="-92.9671" y="-256.027" font-family="Times,serif" font-size="14.00">*</text>
</g>
<!-- devices:TestHardDrive -->
<g id="node7" class="node"><title>devices:TestHardDrive</title>
<polygon fill="none" stroke="black" points="-141.429,87 -141.429,51 3.42871,51 3.42871,87 -141.429,87"/>
<text text-anchor="middle" x="-69" y="73.2" font-family="Times,serif" font-size="14.00">devices:TestHardDrive</text>
</g>
<!-- HardDrive&#45;&gt;devices:TestHardDrive -->
<g id="edge6" class="edge"><title>HardDrive&#45;&gt;devices:TestHardDrive</title>
<path fill="none" stroke="black" d="M-96.2124,-110.745C-88.5835,-60.354 -78.7673,4.4847 -73.2522,40.9128"/>
<polygon fill="black" stroke="black" points="-69.7874,40.4175 -71.751,50.8288 -76.7086,41.4654 -69.7874,40.4175"/>
<text text-anchor="middle" x="-93.6123" y="-32.1629" font-family="Times,serif" font-size="14.00">test</text>
<text text-anchor="middle" x="-82.251" y="48.0288" font-family="Times,serif" font-size="14.00">0..1</text>
<text text-anchor="middle" x="-99.7124" y="-99.5449" font-family="Times,serif" font-size="14.00">*</text>
</g>
<!-- BenchmarkProcessor -->
<g id="node13" class="node"><title>BenchmarkProcessor</title>
<polygon fill="none" stroke="black" points="158.517,-451 158.517,-487 293.483,-487 293.483,-451 158.517,-451"/>
<text text-anchor="middle" x="226" y="-464.8" font-family="Times,serif" font-size="14.00">BenchmarkProcessor</text>
</g>
<!-- Processor&#45;&gt;BenchmarkProcessor -->
<g id="edge12" class="edge"><title>Processor&#45;&gt;BenchmarkProcessor</title>
<path fill="none" stroke="black" d="M148.862,-349.253C167.909,-378.821 192.551,-417.075 208.796,-442.292"/>
<polygon fill="black" stroke="black" points="206.017,-444.442 214.375,-450.953 211.902,-440.651 206.017,-444.442"/>
<text text-anchor="middle" x="150.514" y="-388.891" font-family="Times,serif" font-size="14.00">benchmark</text>
<text text-anchor="middle" x="203.875" y="-439.753" font-family="Times,serif" font-size="14.00">0..1</text>
<text text-anchor="middle" x="145.362" y="-352.053" font-family="Times,serif" font-size="14.00">*</text>
</g>
<!-- addressEnum -->
<g id="node14" class="node"><title>addressEnum</title>
<polygon fill="none" stroke="black" points="177.286,235 177.286,107 268.714,107 268.714,235 177.286,235"/>
<text text-anchor="start" x="185.286" y="122.2" font-family="Times,serif" font-size="14.00">addressEnum</text>
<text text-anchor="middle" x="223" y="136.2" font-family="Times,serif" font-size="14.00">Enum</text>
<polyline fill="none" stroke="black" points="177.286,143 268.714,143 "/>
<text text-anchor="start" x="185.286" y="158.2" font-family="Times,serif" font-size="14.00">256</text>
<text text-anchor="start" x="185.286" y="172.2" font-family="Times,serif" font-size="14.00">128</text>
<text text-anchor="start" x="185.286" y="186.2" font-family="Times,serif" font-size="14.00">64</text>
<text text-anchor="start" x="185.286" y="200.2" font-family="Times,serif" font-size="14.00">32</text>
<text text-anchor="start" x="185.286" y="214.2" font-family="Times,serif" font-size="14.00">8</text>
<text text-anchor="middle" x="223" y="228.2" font-family="Times,serif" font-size="14.00">16</text>
</g>
</g>
</svg>
