<?xml version="1.0" encoding="UTF-8" standalone="no"?>
<!DOCTYPE svg PUBLIC "-//W3C//DTD SVG 1.1//EN"
 "http://www.w3.org/Graphics/SVG/1.1/DTD/svg11.dtd">
<!-- Generated by graphviz version 2.38.0 (20140413.2041)
 -->
<!-- Title: %3 Pages: 1 -->
<svg width="1794pt" height="1004pt"
 viewBox="0.00 0.00 1793.91 1004.00" xmlns="http://www.w3.org/2000/svg" xmlns:xlink="http://www.w3.org/1999/xlink">
<g id="graph0" class="graph" transform="scale(1 1) rotate(0) translate(4 1000)">
<title>%3</title>
<polygon fill="white" stroke="none" points="-4,4 -4,-1000 1789.91,-1000 1789.91,4 -4,4"/>
<!-- Event -->
<g id="node1" class="node"><title>Event</title>
<polygon fill="none" stroke="black" points="854.79,-647.5 854.79,-747.5 1108.59,-747.5 1108.59,-647.5 854.79,-647.5"/>
<text text-anchor="middle" x="981.691" y="-732.3" font-family="Times,serif" font-size="14.00">Event</text>
<polyline fill="none" stroke="black" points="854.79,-725.5 1108.59,-725.5 "/>
<text text-anchor="start" x="862.79" y="-710.3" font-family="Times,serif" font-size="14.00">+ byOrganization: string [0..1] (read&#45;only)</text>
<text text-anchor="start" x="862.79" y="-696.3" font-family="Times,serif" font-size="14.00">+ date: datetime [0..1]</text>
<text text-anchor="start" x="862.79" y="-682.3" font-family="Times,serif" font-size="14.00">+ secured: boolean [0..1]</text>
<text text-anchor="start" x="862.79" y="-668.3" font-family="Times,serif" font-size="14.00">+ incidence: boolean [0..1]</text>
<text text-anchor="middle" x="981.691" y="-654.3" font-family="Times,serif" font-size="14.00">+ comment: string [0..1]</text>
</g>
<!-- Account -->
<g id="node2" class="node"><title>Account</title>
<polygon fill="none" stroke="black" points="836.977,-556.5 836.977,-592.5 900.405,-592.5 900.405,-556.5 836.977,-556.5"/>
<text text-anchor="middle" x="868.691" y="-570.3" font-family="Times,serif" font-size="14.00">Account</text>
</g>
<!-- Event&#45;&gt;Account -->
<g id="edge1" class="edge"><title>Event&#45;&gt;Account</title>
<path fill="none" stroke="black" d="M935.729,-647.285C920.61,-631.095 904.447,-613.788 891.781,-600.224"/>
<polygon fill="black" stroke="black" points="894.144,-597.628 884.761,-592.708 889.028,-602.405 894.144,-597.628"/>
<text text-anchor="middle" x="938.908" y="-617.8" font-family="Times,serif" font-size="14.00">byUser</text>
<text text-anchor="middle" x="895.261" y="-595.508" font-family="Times,serif" font-size="14.00">0..1</text>
<text text-anchor="middle" x="932.229" y="-636.085" font-family="Times,serif" font-size="14.00">*</text>
</g>
<!-- devices:DeviceEvent -->
<g id="node4" class="node"><title>devices:DeviceEvent</title>
<polygon fill="none" stroke="black" points="914.608,-552.5 914.608,-596.5 1048.77,-596.5 1048.77,-552.5 914.608,-552.5"/>
<text text-anchor="middle" x="981.691" y="-581.3" font-family="Times,serif" font-size="14.00">devices:DeviceEvent</text>
<polyline fill="none" stroke="black" points="914.608,-574.5 1048.77,-574.5 "/>
<text text-anchor="middle" x="981.691" y="-559.3" font-family="Times,serif" font-size="14.00">+ geo: point [0..1]</text>
</g>
<!-- Event&#45;&gt;devices:DeviceEvent -->
<g id="edge3" class="edge"><title>Event&#45;&gt;devices:DeviceEvent</title>
<path fill="none" stroke="black" d="M981.691,-637.249C981.691,-622.67 981.691,-607.995 981.691,-596.611"/>
<polygon fill="none" stroke="black" points="978.191,-637.285 981.691,-647.285 985.191,-637.285 978.191,-637.285"/>
</g>
<!-- Thing -->
<g id="node3" class="node"><title>Thing</title>
<polygon fill="none" stroke="black" points="880.715,-785.5 880.715,-857.5 1082.67,-857.5 1082.67,-785.5 880.715,-785.5"/>
<text text-anchor="middle" x="981.691" y="-842.3" font-family="Times,serif" font-size="14.00">Thing</text>
<polyline fill="none" stroke="black" points="880.715,-835.5 1082.67,-835.5 "/>
<text text-anchor="start" x="888.715" y="-820.3" font-family="Times,serif" font-size="14.00">+ url: url [0..1]</text>
<text text-anchor="start" x="888.715" y="-806.3" font-family="Times,serif" font-size="14.00">+ *sameAs: url [0..1] (read&#45;only)</text>
<text text-anchor="middle" x="981.691" y="-792.3" font-family="Times,serif" font-size="14.00">+ description: string [0..1]</text>
</g>
<!-- Thing&#45;&gt;Event -->
<g id="edge2" class="edge"><title>Thing&#45;&gt;Event</title>
<path fill="none" stroke="black" d="M981.691,-775.04C981.691,-766.147 981.691,-756.783 981.691,-747.773"/>
<polygon fill="none" stroke="black" points="978.191,-775.213 981.691,-785.213 985.191,-775.213 978.191,-775.213"/>
</g>
<!-- devices:EventWithOneDevice -->
<g id="node5" class="node"><title>devices:EventWithOneDevice</title>
<polygon fill="none" stroke="black" points="721.226,-457.5 721.226,-501.5 906.156,-501.5 906.156,-457.5 721.226,-457.5"/>
<text text-anchor="middle" x="813.691" y="-486.3" font-family="Times,serif" font-size="14.00">devices:EventWithOneDevice</text>
<polyline fill="none" stroke="black" points="721.226,-479.5 906.156,-479.5 "/>
<text text-anchor="middle" x="813.691" y="-464.3" font-family="Times,serif" font-size="14.00"> </text>
</g>
<!-- devices:DeviceEvent&#45;&gt;devices:EventWithOneDevice -->
<g id="edge5" class="edge"><title>devices:DeviceEvent&#45;&gt;devices:EventWithOneDevice</title>
<path fill="none" stroke="black" d="M934.576,-547.419C908.386,-532.92 876.225,-515.117 851.662,-501.52"/>
<polygon fill="none" stroke="black" points="933.125,-550.616 943.569,-552.397 936.515,-544.492 933.125,-550.616"/>
</g>
<!-- Device -->
<g id="node6" class="node"><title>Device</title>
<polygon fill="none" stroke="black" points="887.87,-4.5 887.87,-40.5 943.512,-40.5 943.512,-4.5 887.87,-4.5"/>
<text text-anchor="middle" x="915.691" y="-18.3" font-family="Times,serif" font-size="14.00">Device</text>
</g>
<!-- devices:EventWithOneDevice&#45;&gt;Device -->
<g id="edge4" class="edge"><title>devices:EventWithOneDevice&#45;&gt;Device</title>
<path fill="none" stroke="black" d="M906.455,-459.283C926.588,-450.647 945.486,-438.132 957.691,-420 998.02,-360.087 976.645,-164.691 957.691,-95 953.209,-78.5209 943.862,-61.9615 935.122,-48.9345"/>
<polygon fill="black" stroke="black" points="937.837,-46.7098 929.235,-40.5246 932.102,-50.7241 937.837,-46.7098"/>
<text text-anchor="middle" x="998.957" y="-253.3" font-family="Times,serif" font-size="14.00">device</text>
<text text-anchor="middle" x="925.735" y="-43.3246" font-family="Times,serif" font-size="14.00">1</text>
<text text-anchor="middle" x="909.955" y="-462.083" font-family="Times,serif" font-size="14.00">*</text>
</g>
<!-- devices:EraseBasic -->
<g id="node7" class="node"><title>devices:EraseBasic</title>
<polygon fill="none" stroke="black" points="1201.8,-200.5 1201.8,-314.5 1403.58,-314.5 1403.58,-200.5 1201.8,-200.5"/>
<text text-anchor="middle" x="1302.69" y="-299.3" font-family="Times,serif" font-size="14.00">devices:EraseBasic</text>
<polyline fill="none" stroke="black" points="1201.8,-292.5 1403.58,-292.5 "/>
<text text-anchor="start" x="1209.8" y="-277.3" font-family="Times,serif" font-size="14.00">+ steps: list [0..1]</text>
<text text-anchor="start" x="1209.8" y="-263.3" font-family="Times,serif" font-size="14.00">+ cleanWithZeros: boolean [0..1]</text>
<text text-anchor="start" x="1209.8" y="-249.3" font-family="Times,serif" font-size="14.00">+ startingTime: datetime [0..1]</text>
<text text-anchor="start" x="1209.8" y="-235.3" font-family="Times,serif" font-size="14.00">+ secureRandomSteps: natural</text>
<text text-anchor="start" x="1209.8" y="-221.3" font-family="Times,serif" font-size="14.00">+ endingTime: datetime [0..1]</text>
<text text-anchor="middle" x="1302.69" y="-207.3" font-family="Times,serif" font-size="14.00">+ success: boolean [0..1]</text>
</g>
<!-- devices:EventWithOneDevice&#45;&gt;devices:EraseBasic -->
<g id="edge7" class="edge"><title>devices:EventWithOneDevice&#45;&gt;devices:EraseBasic</title>
<path fill="none" stroke="black" d="M916.351,-472.026C1013.09,-464.287 1149.71,-448.634 1194.69,-420 1233.67,-395.186 1261.86,-350.678 1279.65,-314.662"/>
<polygon fill="none" stroke="black" points="915.933,-468.548 906.237,-472.818 916.479,-475.526 915.933,-468.548"/>
</g>
<!-- devices:Remove -->
<g id="node9" class="node"><title>devices:Remove</title>
<polygon fill="none" stroke="black" points="0,-235.5 0,-279.5 153.382,-279.5 153.382,-235.5 0,-235.5"/>
<text text-anchor="middle" x="76.6909" y="-264.3" font-family="Times,serif" font-size="14.00">devices:Remove</text>
<polyline fill="none" stroke="black" points="0,-257.5 153.382,-257.5 "/>
<text text-anchor="middle" x="76.6909" y="-242.3" font-family="Times,serif" font-size="14.00">+ components: list [0..1]</text>
</g>
<!-- devices:EventWithOneDevice&#45;&gt;devices:Remove -->
<g id="edge9" class="edge"><title>devices:EventWithOneDevice&#45;&gt;devices:Remove</title>
<path fill="none" stroke="black" d="M710.871,-474.73C538.165,-467.6 204.23,-450.096 159.691,-420 110.585,-386.818 88.8409,-315.274 80.7542,-279.608"/>
<polygon fill="none" stroke="black" points="710.862,-478.232 720.997,-475.144 711.148,-471.238 710.862,-478.232"/>
</g>
<!-- devices:TestHardDrive -->
<g id="node10" class="node"><title>devices:TestHardDrive</title>
<polygon fill="none" stroke="black" points="1029.29,-207.5 1029.29,-307.5 1188.09,-307.5 1188.09,-207.5 1029.29,-207.5"/>
<text text-anchor="middle" x="1108.69" y="-292.3" font-family="Times,serif" font-size="14.00">devices:TestHardDrive</text>
<polyline fill="none" stroke="black" points="1029.29,-285.5 1188.09,-285.5 "/>
<text text-anchor="start" x="1037.29" y="-270.3" font-family="Times,serif" font-size="14.00">+ status: string</text>
<text text-anchor="start" x="1037.29" y="-256.3" font-family="Times,serif" font-size="14.00">+ error: boolean</text>
<text text-anchor="start" x="1037.29" y="-242.3" font-family="Times,serif" font-size="14.00">+ firstError: integer [0..1]</text>
<text text-anchor="start" x="1037.29" y="-228.3" font-family="Times,serif" font-size="14.00">+ lifetime: integer [0..1]</text>
<text text-anchor="middle" x="1108.69" y="-214.3" font-family="Times,serif" font-size="14.00">+ type: string [0..1]</text>
</g>
<!-- devices:EventWithOneDevice&#45;&gt;devices:TestHardDrive -->
<g id="edge12" class="edge"><title>devices:EventWithOneDevice&#45;&gt;devices:TestHardDrive</title>
<path fill="none" stroke="black" d="M916.256,-471.063C953.231,-463.297 992.301,-448.35 1018.69,-420 1049.31,-387.108 1073.35,-341.891 1088.86,-307.667"/>
<polygon fill="none" stroke="black" points="915.554,-467.634 906.405,-472.977 916.889,-474.505 915.554,-467.634"/>
</g>
<!-- devices:Add -->
<g id="node11" class="node"><title>devices:Add</title>
<polygon fill="none" stroke="black" points="167,-235.5 167,-279.5 320.382,-279.5 320.382,-235.5 167,-235.5"/>
<text text-anchor="middle" x="243.691" y="-264.3" font-family="Times,serif" font-size="14.00">devices:Add</text>
<polyline fill="none" stroke="black" points="167,-257.5 320.382,-257.5 "/>
<text text-anchor="middle" x="243.691" y="-242.3" font-family="Times,serif" font-size="14.00">+ components: list [0..1]</text>
</g>
<!-- devices:EventWithOneDevice&#45;&gt;devices:Add -->
<g id="edge13" class="edge"><title>devices:EventWithOneDevice&#45;&gt;devices:Add</title>
<path fill="none" stroke="black" d="M710.809,-477.184C586.886,-473.729 387.84,-461.637 327.691,-420 278.968,-386.273 256.555,-315.315 248.05,-279.757"/>
<polygon fill="none" stroke="black" points="710.988,-480.69 721.077,-477.455 711.173,-473.692 710.988,-480.69"/>
</g>
<!-- devices:Snapshot -->
<g id="node13" class="node"><title>devices:Snapshot</title>
<polygon fill="none" stroke="black" points="504.96,-95.5 504.96,-419.5 950.421,-419.5 950.421,-95.5 504.96,-95.5"/>
<text text-anchor="middle" x="727.691" y="-404.3" font-family="Times,serif" font-size="14.00">devices:Snapshot</text>
<polyline fill="none" stroke="black" points="504.96,-397.5 950.421,-397.5 "/>
<text text-anchor="start" x="512.96" y="-382.3" font-family="Times,serif" font-size="14.00">+ *from.email: email</text>
<text text-anchor="start" x="512.96" y="-368.3" font-family="Times,serif" font-size="14.00">+ from.name: string [0..1]</text>
<text text-anchor="start" x="512.96" y="-354.3" font-family="Times,serif" font-size="14.00">+ from: [&#39;objectid&#39;, &#39;dict&#39;, &#39;string&#39;] [0..1]</text>
<text text-anchor="start" x="512.96" y="-340.3" font-family="Times,serif" font-size="14.00">+ from.isOrganization: boolean [0..1]</text>
<text text-anchor="start" x="512.96" y="-326.3" font-family="Times,serif" font-size="14.00">+ condition: dict [0..1]</text>
<text text-anchor="start" x="512.96" y="-312.3" font-family="Times,serif" font-size="14.00">+ from.organization: string [0..1]</text>
<text text-anchor="start" x="512.96" y="-298.3" font-family="Times,serif" font-size="14.00">+ debug: dict [0..1]</text>
<text text-anchor="start" x="512.96" y="-284.3" font-family="Times,serif" font-size="14.00">+ snapshotSoftware: snapshotSoftwareEnum [0..1]</text>
<text text-anchor="start" x="512.96" y="-270.3" font-family="Times,serif" font-size="14.00">+ offline: boolean [0..1]</text>
<text text-anchor="start" x="512.96" y="-256.3" font-family="Times,serif" font-size="14.00">+ request: string [0..1] (read&#45;only)</text>
<text text-anchor="start" x="512.96" y="-242.3" font-family="Times,serif" font-size="14.00">+ condition.appearance: dict [0..1]</text>
<text text-anchor="start" x="512.96" y="-228.3" font-family="Times,serif" font-size="14.00">+ condition.appearance.general: condition.appearance.generalEnum [0..1]</text>
<text text-anchor="start" x="512.96" y="-214.3" font-family="Times,serif" font-size="14.00">+ condition.functionality: dict [0..1]</text>
<text text-anchor="start" x="512.96" y="-200.3" font-family="Times,serif" font-size="14.00">+ condition.functionality.general: condition.functionality.generalEnum [0..1]</text>
<text text-anchor="start" x="512.96" y="-186.3" font-family="Times,serif" font-size="14.00">+ components: list [0..1]</text>
<text text-anchor="start" x="512.96" y="-172.3" font-family="Times,serif" font-size="14.00">+ version: version [0..1]</text>
<text text-anchor="start" x="512.96" y="-158.3" font-family="Times,serif" font-size="14.00">+ unsecured: list [0..1] (read&#45;only)</text>
<text text-anchor="start" x="512.96" y="-144.3" font-family="Times,serif" font-size="14.00">+ events: list [0..1] (read&#45;only)</text>
<text text-anchor="start" x="512.96" y="-130.3" font-family="Times,serif" font-size="14.00">+ automatic: boolean [0..1]</text>
<text text-anchor="start" x="512.96" y="-116.3" font-family="Times,serif" font-size="14.00">+ software.productKey: string [0..1]</text>
<text text-anchor="middle" x="727.691" y="-102.3" font-family="Times,serif" font-size="14.00">+ software: dict [0..1]</text>
</g>
<!-- devices:EventWithOneDevice&#45;&gt;devices:Snapshot -->
<g id="edge16" class="edge"><title>devices:EventWithOneDevice&#45;&gt;devices:Snapshot</title>
<path fill="none" stroke="black" d="M801.738,-447.923C798.481,-439.592 794.715,-429.958 790.643,-419.54"/>
<polygon fill="none" stroke="black" points="798.544,-449.366 805.445,-457.405 805.064,-446.817 798.544,-449.366"/>
</g>
<!-- devices:Register -->
<g id="node17" class="node"><title>devices:Register</title>
<polygon fill="none" stroke="black" points="334.667,-235.5 334.667,-279.5 490.715,-279.5 490.715,-235.5 334.667,-235.5"/>
<text text-anchor="middle" x="412.691" y="-264.3" font-family="Times,serif" font-size="14.00">devices:Register</text>
<polyline fill="none" stroke="black" points="334.667,-257.5 490.715,-257.5 "/>
<text text-anchor="middle" x="412.691" y="-242.3" font-family="Times,serif" font-size="14.00">+ force: [&#39;boolean&#39;] [0..1]</text>
</g>
<!-- devices:EventWithOneDevice&#45;&gt;devices:Register -->
<g id="edge20" class="edge"><title>devices:EventWithOneDevice&#45;&gt;devices:Register</title>
<path fill="none" stroke="black" d="M711.198,-469.236C632.232,-460.344 531.082,-444.586 497.691,-420 449.979,-384.869 426.617,-314.888 417.489,-279.717"/>
<polygon fill="none" stroke="black" points="710.877,-472.722 721.201,-470.34 711.645,-465.764 710.877,-472.722"/>
</g>
<!-- devices:EraseBasic&#45;&gt;Device -->
<g id="edge6" class="edge"><title>devices:EraseBasic&#45;&gt;Device</title>
<path fill="none" stroke="black" d="M1278.22,-200.394C1260.06,-165.109 1231.99,-121.411 1194.69,-95 1120.55,-42.4998 1011.11,-28.5058 953.824,-24.8052"/>
<polygon fill="black" stroke="black" points="953.94,-21.3061 943.755,-24.2271 953.538,-28.2946 953.94,-21.3061"/>
<text text-anchor="middle" x="1179.18" y="-65.8" font-family="Times,serif" font-size="14.00">parent</text>
<text text-anchor="middle" x="954.255" y="-13.0271" font-family="Times,serif" font-size="14.00">0..1</text>
<text text-anchor="middle" x="1274.72" y="-189.194" font-family="Times,serif" font-size="14.00">*</text>
</g>
<!-- devices:EraseSectors -->
<g id="node8" class="node"><title>devices:EraseSectors</title>
<polygon fill="none" stroke="black" points="1235.6,-0.5 1235.6,-44.5 1369.78,-44.5 1369.78,-0.5 1235.6,-0.5"/>
<text text-anchor="middle" x="1302.69" y="-29.3" font-family="Times,serif" font-size="14.00">devices:EraseSectors</text>
<polyline fill="none" stroke="black" points="1235.6,-22.5 1369.78,-22.5 "/>
<text text-anchor="middle" x="1302.69" y="-7.3" font-family="Times,serif" font-size="14.00"> </text>
</g>
<!-- devices:EraseBasic&#45;&gt;devices:EraseSectors -->
<g id="edge8" class="edge"><title>devices:EraseBasic&#45;&gt;devices:EraseSectors</title>
<path fill="none" stroke="black" d="M1302.69,-190.159C1302.69,-141.072 1302.69,-77.3005 1302.69,-44.7092"/>
<polygon fill="none" stroke="black" points="1299.19,-190.394 1302.69,-200.394 1306.19,-190.394 1299.19,-190.394"/>
</g>
<!-- devices:TestHardDrive&#45;&gt;Event -->
<g id="edge11" class="edge"><title>devices:TestHardDrive&#45;&gt;Event</title>
<path fill="none" stroke="black" d="M1108.31,-307.576C1106.18,-375.265 1096.44,-499.919 1055.69,-597 1049.61,-611.492 1040.98,-625.811 1031.74,-638.877"/>
<polygon fill="black" stroke="black" points="1028.68,-637.131 1025.61,-647.271 1034.34,-641.261 1028.68,-637.131"/>
<text text-anchor="middle" x="1106.19" y="-522.8" font-family="Times,serif" font-size="14.00">snapshot</text>
<text text-anchor="middle" x="1015.11" y="-636.071" font-family="Times,serif" font-size="14.00">0..1</text>
<text text-anchor="middle" x="1104.81" y="-310.376" font-family="Times,serif" font-size="14.00">*</text>
</g>
<!-- devices:TestHardDrive&#45;&gt;Device -->
<g id="edge10" class="edge"><title>devices:TestHardDrive&#45;&gt;Device</title>
<path fill="none" stroke="black" d="M1090.25,-207.464C1071.35,-163.601 1037.89,-100.596 989.691,-63 978.527,-54.2925 965.171,-46.5019 952.896,-40.1876"/>
<polygon fill="black" stroke="black" points="954.289,-36.9711 943.776,-35.656 951.174,-43.24 954.289,-36.9711"/>
<text text-anchor="middle" x="1021.18" y="-65.8" font-family="Times,serif" font-size="14.00">parent</text>
<text text-anchor="middle" x="954.276" y="-38.456" font-family="Times,serif" font-size="14.00">0..1</text>
<text text-anchor="middle" x="1086.75" y="-196.264" font-family="Times,serif" font-size="14.00">*</text>
</g>
<!-- snapshotSoftwareEnum -->
<g id="node12" class="node"><title>snapshotSoftwareEnum</title>
<polygon fill="none" stroke="black" points="1074.2,-902.5 1074.2,-988.5 1223.18,-988.5 1223.18,-902.5 1074.2,-902.5"/>
<text text-anchor="start" x="1082.2" y="-973.3" font-family="Times,serif" font-size="14.00">snapshotSoftwareEnum</text>
<text text-anchor="middle" x="1148.69" y="-959.3" font-family="Times,serif" font-size="14.00">Enum</text>
<polyline fill="none" stroke="black" points="1074.2,-952.5 1223.18,-952.5 "/>
<text text-anchor="start" x="1082.2" y="-937.3" font-family="Times,serif" font-size="14.00">DDI</text>
<text text-anchor="start" x="1082.2" y="-923.3" font-family="Times,serif" font-size="14.00">Scan</text>
<text text-anchor="middle" x="1148.69" y="-909.3" font-family="Times,serif" font-size="14.00">DeviceHubClient</text>
</g>
<!-- devices:Snapshot&#45;&gt;Device -->
<g id="edge15" class="edge"><title>devices:Snapshot&#45;&gt;Device</title>
<path fill="none" stroke="black" d="M857.751,-95.3089C872.215,-77.382 885.337,-61.1192 895.421,-48.6213"/>
<polygon fill="black" stroke="black" points="898.341,-50.5765 901.897,-40.5961 892.893,-46.1809 898.341,-50.5765"/>
<text text-anchor="middle" x="898.957" y="-65.8" font-family="Times,serif" font-size="14.00">device</text>
<text text-anchor="middle" x="898.397" y="-43.3961" font-family="Times,serif" font-size="14.00">1</text>
<text text-anchor="middle" x="854.251" y="-84.1089" font-family="Times,serif" font-size="14.00">*</text>
</g>
<!-- Place -->
<g id="node14" class="node"><title>Place</title>
<polygon fill="none" stroke="black" points="543.691,-4.5 543.691,-40.5 597.691,-40.5 597.691,-4.5 543.691,-4.5"/>
<text text-anchor="middle" x="570.35" y="-18.3" font-family="Times,serif" font-size="14.00">Place</text>
</g>
<!-- devices:Snapshot&#45;&gt;Place -->
<g id="edge14" class="edge"><title>devices:Snapshot&#45;&gt;Place</title>
<path fill="none" stroke="black" d="M709.546,-95.2927C704.048,-83.5962 697.197,-72.6332 688.691,-63 668.367,-39.9829 634.237,-30.3483 607.897,-26.3311"/>
<polygon fill="black" stroke="black" points="608.241,-22.8463 597.869,-25.0102 607.326,-29.7863 608.241,-22.8463"/>
<text text-anchor="middle" x="713.457" y="-65.8" font-family="Times,serif" font-size="14.00">place</text>
<text text-anchor="middle" x="608.369" y="-27.8102" font-family="Times,serif" font-size="14.00">0..1</text>
<text text-anchor="middle" x="706.046" y="-84.0927" font-family="Times,serif" font-size="14.00">*</text>
</g>
<!-- condition.appearance.generalEnum -->
<g id="node15" class="node"><title>condition.appearance.generalEnum</title>
<polygon fill="none" stroke="black" points="1236.96,-895.5 1236.96,-995.5 1450.42,-995.5 1450.42,-895.5 1236.96,-895.5"/>
<text text-anchor="start" x="1244.96" y="-980.3" font-family="Times,serif" font-size="14.00">condition.appearance.generalEnum</text>
<text text-anchor="middle" x="1343.69" y="-966.3" font-family="Times,serif" font-size="14.00">Enum</text>
<polyline fill="none" stroke="black" points="1236.96,-959.5 1450.42,-959.5 "/>
<text text-anchor="start" x="1244.96" y="-944.3" font-family="Times,serif" font-size="14.00">A</text>
<text text-anchor="start" x="1244.96" y="-930.3" font-family="Times,serif" font-size="14.00">B</text>
<text text-anchor="start" x="1244.96" y="-916.3" font-family="Times,serif" font-size="14.00">C</text>
<text text-anchor="middle" x="1343.69" y="-902.3" font-family="Times,serif" font-size="14.00">D</text>
</g>
<!-- condition.functionality.generalEnum -->
<g id="node16" class="node"><title>condition.functionality.generalEnum</title>
<polygon fill="none" stroke="black" points="1464.12,-895.5 1464.12,-995.5 1685.26,-995.5 1685.26,-895.5 1464.12,-895.5"/>
<text text-anchor="start" x="1472.12" y="-980.3" font-family="Times,serif" font-size="14.00">condition.functionality.generalEnum</text>
<text text-anchor="middle" x="1574.69" y="-966.3" font-family="Times,serif" font-size="14.00">Enum</text>
<polyline fill="none" stroke="black" points="1464.12,-959.5 1685.26,-959.5 "/>
<text text-anchor="start" x="1472.12" y="-944.3" font-family="Times,serif" font-size="14.00">A</text>
<text text-anchor="start" x="1472.12" y="-930.3" font-family="Times,serif" font-size="14.00">B</text>
<text text-anchor="start" x="1472.12" y="-916.3" font-family="Times,serif" font-size="14.00">C</text>
<text text-anchor="middle" x="1574.69" y="-902.3" font-family="Times,serif" font-size="14.00">D</text>
</g>
<!-- devices:Register&#45;&gt;Device -->
<g id="edge17" class="edge"><title>devices:Register&#45;&gt;Device</title>
<path fill="none" stroke="black" d="M417.794,-235.306C427.311,-200.488 451.156,-131.418 497.691,-95 524.007,-74.4056 538.438,-85.7401 570.691,-77 591.87,-71.2608 596.574,-67.5682 618.036,-63 710.195,-43.3838 820.6,-31.7765 877.544,-26.6477"/>
<polygon fill="black" stroke="black" points="877.884,-30.1313 887.538,-25.7649 877.268,-23.1584 877.884,-30.1313"/>
<text text-anchor="middle" x="652.519" y="-65.8" font-family="Times,serif" font-size="14.00">components</text>
<text text-anchor="middle" x="877.038" y="-28.5649" font-family="Times,serif" font-size="14.00">0..1</text>
<text text-anchor="middle" x="414.294" y="-224.106" font-family="Times,serif" font-size="14.00">*</text>
</g>
<!-- devices:Register&#45;&gt;Device -->
<g id="edge19" class="edge"><title>devices:Register&#45;&gt;Device</title>
<path fill="none" stroke="black" d="M421.188,-235.359C434.656,-203.245 462.969,-141.041 497.691,-95 503.887,-86.7844 521.818,-67.3145 531.16,-63 562.147,-48.6883 786.737,-32.1772 877.644,-26.0012"/>
<polygon fill="black" stroke="black" points="878.051,-29.4818 887.793,-25.317 877.581,-22.4976 878.051,-29.4818"/>
<text text-anchor="middle" x="549.957" y="-65.8" font-family="Times,serif" font-size="14.00">device</text>
<text text-anchor="middle" x="877.293" y="-14.117" font-family="Times,serif" font-size="14.00">0..1</text>
<text text-anchor="middle" x="424.688" y="-224.159" font-family="Times,serif" font-size="14.00">*</text>
</g>
<!-- devices:Register&#45;&gt;Place -->
<g id="edge18" class="edge"><title>devices:Register&#45;&gt;Place</title>
<path fill="none" stroke="black" d="M415.13,-235.412C420.658,-196.606 437.504,-113.264 484.16,-63 497.402,-48.7339 516.793,-39.2312 533.865,-33.1297"/>
<polygon fill="black" stroke="black" points="535.186,-36.3794 543.584,-29.92 532.991,-29.7325 535.186,-36.3794"/>
<text text-anchor="middle" x="499.457" y="-65.8" font-family="Times,serif" font-size="14.00">place</text>
<text text-anchor="middle" x="533.084" y="-32.72" font-family="Times,serif" font-size="14.00">0..1</text>
<text text-anchor="middle" x="411.63" y="-224.212" font-family="Times,serif" font-size="14.00">*</text>
</g>
<!-- @typeEnum -->
<g id="node18" class="node"><title>@typeEnum</title>
<polygon fill="none" stroke="black" points="1699.47,-916.5 1699.47,-974.5 1785.91,-974.5 1785.91,-916.5 1699.47,-916.5"/>
<text text-anchor="start" x="1707.47" y="-959.3" font-family="Times,serif" font-size="14.00">@typeEnum</text>
<text text-anchor="middle" x="1742.69" y="-945.3" font-family="Times,serif" font-size="14.00">Enum</text>
<polyline fill="none" stroke="black" points="1699.47,-938.5 1785.91,-938.5 "/>
<text text-anchor="middle" x="1742.69" y="-923.3" font-family="Times,serif" font-size="14.00">RDFS</text>
</g>
<!-- RDFS -->
<g id="node19" class="node"><title>RDFS</title>
<polygon fill="none" stroke="black" points="903.083,-909.5 903.083,-981.5 1060.3,-981.5 1060.3,-909.5 903.083,-909.5"/>
<text text-anchor="middle" x="981.691" y="-966.3" font-family="Times,serif" font-size="14.00">RDFS</text>
<polyline fill="none" stroke="black" points="903.083,-959.5 1060.3,-959.5 "/>
<text text-anchor="start" x="911.083" y="-944.3" font-family="Times,serif" font-size="14.00">+ label: string [0..1]</text>
<text text-anchor="start" x="911.083" y="-930.3" font-family="Times,serif" font-size="14.00">+ @type: @typeEnum</text>
<text text-anchor="middle" x="981.691" y="-916.3" font-family="Times,serif" font-size="14.00">+ created: datetime [0..1]</text>
</g>
<!-- RDFS&#45;&gt;Thing -->
<g id="edge21" class="edge"><title>RDFS&#45;&gt;Thing</title>
<path fill="none" stroke="black" d="M981.691,-899.033C981.691,-885.372 981.691,-870.599 981.691,-857.708"/>
<polygon fill="none" stroke="black" points="978.191,-899.213 981.691,-909.213 985.191,-899.213 978.191,-899.213"/>
</g>
</g>
</svg>
