<?xml version="1.0" encoding="iso-8859-1"?>
<!-- Generator: Adobe Illustrator 18.0.0, SVG Export Plug-In . SVG Version: 6.00 Build 0)  -->
<!DOCTYPE svg PUBLIC "-//W3C//DTD SVG 1.1//EN" "http://www.w3.org/Graphics/SVG/1.1/DTD/svg11.dtd">
<svg version="1.1" id="Capa_1" xmlns="http://www.w3.org/2000/svg" xmlns:xlink="http://www.w3.org/1999/xlink" x="0px" y="0px"
	 viewBox="0 0 233.039 233.039" style="enable-background:new 0 0 233.039 233.039;" xml:space="preserve">
<path d="M220.476,75.125H45.375v107.041h7.034v12.46h80.221v-12.46h7.612v12.46h80.221v-12.46h0.013
	c6.939,0,12.563-5.628,12.563-12.566V87.687C233.039,80.749,227.415,75.125,220.476,75.125z M62.52,190.542h-4v-9h4V190.542z
	 M70.52,190.542h-4v-9h4V190.542z M78.52,190.542h-4v-9h4V190.542z M86.52,190.542h-4v-9h4V190.542z M94.52,190.542h-4v-9h4V190.542
	z M102.52,190.542h-4v-9h4V190.542z M110.52,190.542h-4v-9h4V190.542z M118.52,190.542h-4v-9h4V190.542z M126.52,190.542h-4v-9h4
	V190.542z M150.354,190.542h-4v-9h4V190.542z M158.354,190.542h-4v-9h4V190.542z M166.354,190.542h-4v-9h4V190.542z
	 M174.354,190.542h-4v-9h4V190.542z M182.354,190.542h-4v-9h4V190.542z M149.318,162.277H58.91v-68h90.408c18.774,0,34,15.228,34,34
	C183.318,147.048,168.093,162.277,149.318,162.277z M190.354,190.542h-4v-9h4V190.542z M198.354,190.542h-4v-9h4V190.542z
	 M206.354,190.542h-4v-9h4V190.542z M214.354,190.542h-4v-9h4V190.542z M20.416,132.958v-27.013h-6.418V68.792h6.418V54.118H0
	V38.413h36.121v144.713H20.416v-13.012h-6.418v-37.155H20.416z M163.154,129.904c-0.516,0.259-1.025,0.509-1.527,0.758
	c0.004,0,0.008,0,0.012,0c0.746,0.148,1.5,0.297,2.234,0.438c0.734,0.125,1.461,0.241,2.16,0.355c0.701,0.113,1.375,0.235,2.01,0.31
	c0.635,0.082,1.232,0.165,1.783,0.241c0.545,0.056,1.041,0.105,1.482,0.157c0.1,0.002,0.201,0.016,0.3,0.028
	c-0.983,5.631-4.044,10.544-8.367,13.924c-0.048-0.021-0.095-0.049-0.144-0.074c-0.648-0.342-1.305-0.73-1.981-1.128
	c-0.679-0.397-1.38-0.798-2.091-1.214c-0.697-0.438-1.398-0.872-2.105-1.31c-0.705-0.443-1.414-0.864-2.09-1.316
	c-0.484-0.319-0.953-0.628-1.422-0.941c0.002,0,0.004,0.002,0.004,0.005c0.246,0.725,0.498,1.453,0.74,2.161
	c0.26,0.691,0.522,1.383,0.773,2.05c0.248,0.66,0.486,1.297,0.738,1.893c0.24,0.592,0.472,1.144,0.682,1.659
	c0.223,0.502,0.422,0.955,0.604,1.361c0.047,0.1,0.084,0.193,0.127,0.29c-2.42,0.875-5.031,1.358-7.758,1.358
	c-3.006,0-5.866-0.584-8.488-1.648c0-0.055-0.001-0.105-0.002-0.166c-0.029-0.73-0.025-1.494-0.02-2.281
	c0.004-0.781,0.006-1.596,0.01-2.424c0.025-0.808,0.051-1.645,0.078-2.469c0.032-0.835,0.045-1.657,0.098-2.47
	c0.035-0.583,0.067-1.146,0.102-1.71c0,0.002-0.002,0.007-0.002,0.009c-0.504,0.585-1.004,1.159-1.498,1.719
	c-0.475,0.585-0.94,1.146-1.389,1.701c-0.451,0.549-0.887,1.075-1.27,1.583c-0.391,0.502-0.76,0.981-1.102,1.428
	c-0.318,0.439-0.617,0.842-0.877,1.195c-0.059,0.084-0.119,0.172-0.176,0.252c-4.195-3.515-7.092-8.528-7.881-14.206
	c0.049-0.036,0.094-0.058,0.146-0.091c0.617-0.386,1.279-0.763,1.961-1.159c0.682-0.39,1.387-0.791,2.1-1.197
	c0.723-0.39,1.453-0.779,2.184-1.172c0.736-0.384,1.461-0.785,2.188-1.153c0.516-0.258,1.027-0.509,1.529-0.756
	c-0.006,0-0.008,0-0.012,0c-0.75-0.148-1.5-0.297-2.24-0.439c-0.734-0.123-1.461-0.238-2.162-0.352
	c-0.697-0.113-1.369-0.236-2.004-0.313c-0.633-0.08-1.232-0.164-1.783-0.238c-0.543-0.056-1.041-0.107-1.48-0.16
	c-0.104-0.001-0.207-0.015-0.305-0.026c0.986-5.63,4.045-10.546,8.367-13.925c0.051,0.022,0.094,0.05,0.146,0.073
	c0.645,0.344,1.305,0.729,1.98,1.128c0.682,0.398,1.381,0.799,2.09,1.216c0.693,0.437,1.402,0.871,2.109,1.308
	c0.703,0.443,1.408,0.864,2.088,1.318c0.479,0.316,0.951,0.626,1.417,0.936c-0.246-0.727-0.496-1.453-0.74-2.162
	c-0.266-0.691-0.523-1.379-0.771-2.048c-0.25-0.662-0.49-1.298-0.738-1.896c-0.244-0.592-0.475-1.143-0.683-1.659
	c-0.224-0.501-0.429-0.954-0.604-1.361c-0.045-0.1-0.09-0.192-0.127-0.29c2.422-0.873,5.031-1.358,7.76-1.358
	c3,0,5.861,0.585,8.484,1.649c0.002,0.057,0.004,0.104,0.004,0.166c0.025,0.729,0.023,1.496,0.021,2.282
	c-0.004,0.783-0.008,1.595-0.012,2.425c-0.025,0.809-0.053,1.645-0.082,2.469c-0.031,0.833-0.041,1.655-0.092,2.47
	c-0.037,0.581-0.072,1.146-0.107,1.709c0.004-0.003,0.006-0.006,0.008-0.006c0.502-0.588,1.004-1.16,1.496-1.721
	c0.475-0.586,0.939-1.147,1.389-1.701c0.453-0.551,0.888-1.077,1.27-1.583c0.391-0.503,0.76-0.983,1.104-1.43
	c0.316-0.438,0.609-0.84,0.873-1.195c0.063-0.082,0.123-0.171,0.18-0.251c4.193,3.514,7.091,8.529,7.879,14.205
	c-0.051,0.036-0.094,0.059-0.145,0.093c-0.617,0.388-1.279,0.761-1.967,1.159c-0.678,0.389-1.383,0.791-2.096,1.195
	c-0.725,0.391-1.457,0.78-2.189,1.174C164.604,129.135,163.881,129.539,163.154,129.904z M80.477,122.268l17.418-12.122v37
	l-17.418-12.122v3.18H66.755v-19.115h13.722V122.268z M103.729,137.753l-1.427-3.417c2.307-0.96,3.794-3.194,3.794-5.69
	c0-2.496-1.487-4.731-3.794-5.69l1.427-3.417c3.685,1.538,6.069,5.114,6.069,9.107C109.799,132.639,107.415,136.215,103.729,137.753
	z M118.283,128.646c0,7.238-4.317,13.714-10.999,16.506l-1.426-3.41c5.299-2.217,8.726-7.356,8.726-13.096
	s-3.427-10.879-8.726-13.096l1.426-3.41C113.966,114.932,118.283,121.408,118.283,128.646z"/>
<g>
</g>
<g>
</g>
<g>
</g>
<g>
</g>
<g>
</g>
<g>
</g>
<g>
</g>
<g>
</g>
<g>
</g>
<g>
</g>
<g>
</g>
<g>
</g>
<g>
</g>
<g>
</g>
<g>
</g>
</svg>
